<?xml version="1.0" encoding="UTF-8"?>
<svg version="1.1" xmlns="http://www.w3.org/2000/svg" width="500" height="500">
<path d="M0 0 C0.71755463 0.00054382 1.43510925 0.00108765 2.17440796 0.00164795 C14.78484428 0.04531471 26.76516995 1.2246146 39 4.375 C39.86399414 4.59462402 40.72798828 4.81424805 41.61816406 5.04052734 C52.30338269 7.8333897 62.38626673 11.40654145 72.20996094 16.45849609 C74.0271401 17.38889579 75.85943957 18.28292765 77.6953125 19.17578125 C92.51326945 26.54604022 105.17542759 36.88683079 117 48.375 C117.55179932 48.90416016 118.10359863 49.43332031 118.67211914 49.97851562 C148.1112487 78.67589099 163.46119788 119.80658059 165 160.375 C165.07927734 161.71691406 165.07927734 161.71691406 165.16015625 163.0859375 C166.69901153 206.57532575 141.49682752 251.65881263 123 289.375 C122.505 290.38691406 122.01 291.39882813 121.5 292.44140625 C109.63633247 316.63216582 96.47964376 340.05678351 83 363.375 C82.64877075 363.98293396 82.2975415 364.59086792 81.93566895 365.21722412 C72.52978451 381.48902775 62.88196576 397.57818724 52.83398438 413.46435547 C50.98614491 416.39698886 49.15461682 419.33918605 47.328125 422.28515625 C34.94769976 442.2416626 22.07558564 461.86802324 9 481.375 C7.4570114 483.68661962 5.9159555 485.99952477 4.375 488.3125 C2.6875 490.84375 2.6875 490.84375 1 493.375 C-3.1715242 491.98449193 -4.4869977 489.04653421 -6.76171875 485.5 C-7.22459793 484.79241043 -7.68747711 484.08482086 -8.16438293 483.35578918 C-9.68017755 481.03401552 -11.1839748 478.70473413 -12.6875 476.375 C-13.73377775 474.76613162 -14.78065666 473.15765403 -15.828125 471.54956055 C-18.89688556 466.83208252 -21.94962827 462.10438067 -25 457.375 C-25.80146717 456.13484573 -26.60305174 454.89476732 -27.40478516 453.65478516 C-31.97166952 446.58364794 -36.50112378 439.48958503 -41 432.375 C-41.62277832 431.39063965 -42.24555664 430.4062793 -42.88720703 429.39208984 C-66.98682009 391.23075247 -89.7829554 352.21285834 -111 312.375 C-111.56332031 311.31829102 -112.12664062 310.26158203 -112.70703125 309.17285156 C-144.1936132 249.87786062 -177.94918142 183.63105141 -157.46728516 115.47558594 C-150.37559749 93.2017441 -139.04205421 72.71366562 -123.078125 55.60546875 C-121.16973109 53.55717378 -119.36375274 51.45464403 -117.5625 49.3125 C-99.87303076 29.21630025 -74.4989857 14.89665532 -49 7.375 C-48.22382324 7.14586914 -47.44764648 6.91673828 -46.64794922 6.68066406 C-44.20807026 5.97460236 -41.76299833 5.29322806 -39.3125 4.625 C-38.22751221 4.32650146 -38.22751221 4.32650146 -37.12060547 4.02197266 C-24.89727906 0.85396926 -12.58210496 -0.03623804 0 0 Z M-67.5625 101.31640625 C-83.5018907 121.53681573 -87.44734928 143.33508764 -86 168.375 C-85.32011095 173.93267328 -83.85649236 179.09067043 -82 184.375 C-81.62617188 185.44621094 -81.25234375 186.51742187 -80.8671875 187.62109375 C-72.09693815 210.41793395 -54.98819818 226.69425283 -32.97070312 236.54980469 C-14.013973 244.48758316 9.65915585 245.72822829 29 238.375 C34.51806446 236.03997632 39.78074097 233.31011941 45 230.375 C46.010625 229.818125 47.02125 229.26125 48.0625 228.6875 C66.2618929 217.93331328 79.11153941 198.5910374 84.4375 178.3125 C90.23084476 154.80139233 86.19760877 132.23766514 74.8125 111.1875 C70.70459749 104.44981443 65.54994728 98.93284194 60 93.375 C59.26910156 92.6325 58.53820312 91.89 57.78515625 91.125 C42.57595004 76.6238574 21.23073279 69.59600857 0.5 69 C-26.50258959 69.77535526 -49.91738591 81.0621823 -67.5625 101.31640625 Z " fill="#000000" transform="translate(270,2.625)"/>
<path d="M0 0 C1.25853287 0.19264938 2.51706573 0.38529877 3.81373596 0.58378601 C6.45241053 0.99040023 9.09019547 1.40064283 11.72729492 1.81713867 C15.09641171 2.34857095 18.46802552 2.86174653 21.84071255 3.36996174 C25.08291351 3.86133357 28.32256028 4.3689659 31.5625 4.875 C32.76772812 5.05638016 33.97295624 5.23776031 35.21470642 5.42463684 C36.33680008 5.60459702 37.45889374 5.78455719 38.61499023 5.9699707 C39.59805649 6.1231929 40.58112274 6.2764151 41.59397888 6.4342804 C46.15016101 7.60986257 48.70490181 9.2194621 51.31640625 13.13671875 C51.80810992 15.92205809 52.09628406 18.4584688 52.25390625 21.26171875 C52.35380859 21.98359375 52.45371094 22.70546875 52.55664062 23.44921875 C52.67805961 26.12519799 52.44095889 27.68946148 51.31640625 30.13671875 C48.00241143 33.21137544 44.27573217 35.49792224 40.4291687 37.83343506 C37.33143139 39.74431269 34.31553585 41.77291548 31.28846741 43.79324341 C27.93977548 46.02586927 24.57471173 48.2332032 21.21020508 50.44189453 C18.5938587 52.1597302 15.97945007 53.88048648 13.36523438 55.6015625 C11.69933065 56.69678482 10.03331914 57.79184319 8.3671875 58.88671875 C7.58708817 59.40016846 6.80698883 59.91361816 6.00325012 60.44262695 C5.2845726 60.914021 4.56589508 61.38541504 3.82543945 61.87109375 C3.19402542 62.28584961 2.56261139 62.70060547 1.9120636 63.12792969 C-4.31643619 67.0656438 -11.58269377 65.11099567 -18.37475586 63.59204102 C-21.40780851 62.89681161 -24.43447311 62.17641367 -27.4609375 61.453125 C-29.07977424 61.07357836 -30.69880136 60.69484293 -32.31800842 60.31687927 C-35.69400381 59.52674972 -39.06840374 58.73024898 -42.44165039 57.9284668 C-46.76962399 56.8997985 -51.10007482 55.88208115 -55.43158627 54.86842442 C-59.56720807 53.90021434 -63.70164637 52.92699887 -67.8359375 51.953125 C-68.62529127 51.76755098 -69.41464504 51.58197697 -70.22791862 51.3907795 C-72.45200589 50.86686626 -74.6752278 50.33944067 -76.89819336 49.81079102 C-78.16344345 49.51100845 -79.42869354 49.21122589 -80.73228455 48.90235901 C-83.68359375 48.13671875 -83.68359375 48.13671875 -85.68359375 47.13671875 C-85.79236357 44.28151094 -85.87125841 41.43051314 -85.93359375 38.57421875 C-85.96710938 37.77435547 -86.000625 36.97449219 -86.03515625 36.15039062 C-86.1109643 31.50714758 -85.83714871 27.62427828 -83.22802734 23.6809082 C-79.82162983 20.27504917 -75.27315319 18.77110741 -70.87109375 17.01171875 C-69.78610596 16.56014404 -68.70111816 16.10856934 -67.58325195 15.64331055 C-65.22147452 14.66086043 -62.85631766 13.68650477 -60.48828125 12.71923828 C-57.17344255 11.35403226 -53.89430008 9.9173717 -50.62016296 8.45758057 C-47.88117977 7.23724533 -45.13429617 6.03533446 -42.38638306 4.83526611 C-41.05884981 4.25159938 -39.73417776 3.66137437 -38.41268921 3.06414795 C-36.53630116 2.2193359 -34.64930241 1.40407989 -32.7578125 0.59375 C-31.68104248 0.1191333 -30.60427246 -0.3554834 -29.49487305 -0.84448242 C-19.80582603 -3.43447622 -9.74255011 -1.53331577 0 0 Z " fill="#000000" transform="translate(285.68359375,119.86328125)"/>
<path d="M0 0 C2.76052692 2.4043299 2.97165223 3.77726752 3.4375 7.4375 C2.79592939 12.66171784 0.28892659 14.98946709 -3.78515625 18.18359375 C-4.86667969 18.92738281 -5.94820312 19.67117187 -7.0625 20.4375 C-8.32136605 21.31489657 -9.57911846 22.19389245 -10.8359375 23.07421875 C-11.50850586 23.5439209 -12.18107422 24.01362305 -12.87402344 24.49755859 C-16.68657056 27.19191034 -20.43418807 29.97403678 -24.1875 32.75 C-24.97922607 33.33354248 -25.77095215 33.91708496 -26.58666992 34.51831055 C-30.82328617 37.64273531 -35.04827134 40.78189683 -39.26171875 43.9375 C-40.11805908 44.5759082 -40.97439941 45.21431641 -41.85668945 45.87207031 C-43.49797956 47.09599698 -45.13601222 48.32430786 -46.77026367 49.55761719 C-53.57556046 54.62195551 -58.31988541 56.70050547 -67 56 C-71.77872766 55.10386671 -76.47134567 53.89498751 -81.17578125 52.67578125 C-82.54966427 52.32809735 -83.92378994 51.98137105 -85.29814148 51.63554382 C-88.90792116 50.72455357 -92.5143492 49.80093659 -96.12017822 48.87445068 C-99.72211325 47.95117844 -103.32694537 47.03937781 -106.93164062 46.12695312 C-111.12248628 45.06581742 -115.31272788 44.002564 -119.50003052 42.92752075 C-125.42003125 41.40854303 -131.34070824 39.90398888 -137.29052734 38.50537109 C-138.67621162 38.17571602 -138.67621162 38.17571602 -140.08988953 37.83940125 C-141.73284525 37.45134136 -143.37804287 37.07257188 -145.0259552 36.70613098 C-149.85282277 35.55874211 -153.14432098 34.01535775 -157 31 C-158.70052563 27.32890818 -158.30233091 23.86920135 -157 20.125 C-154.29316781 17.2489908 -151.85370622 16.34075282 -148 16 C-143.43794019 16.54940372 -139.03017705 17.63740288 -134.5703125 18.7265625 C-133.25375801 19.03521956 -131.9368449 19.34235048 -130.61959839 19.64804077 C-127.15367094 20.4566715 -123.6929636 21.28577702 -120.23297119 22.11938477 C-116.77018327 22.94996458 -113.30289896 23.76127247 -109.8359375 24.57421875 C-89.06470315 29.45775069 -89.06470315 29.45775069 -81.54589844 31.38964844 C-80.76761688 31.58561615 -79.98933533 31.78158386 -79.18746948 31.98348999 C-77.25745001 32.47210496 -75.33134616 32.97612304 -73.40576172 33.48193359 C-66.41804172 34.54486849 -61.03077777 33.00314855 -55.1875 29.0625 C-54.20898071 28.42779785 -54.20898071 28.42779785 -53.21069336 27.78027344 C-50.7952784 26.20421178 -48.39792578 24.60254821 -46 23 C-44.34884109 21.90563885 -42.69766496 20.81130355 -41.04612732 19.71751404 C-35.76213344 16.2164559 -30.48810885 12.70074933 -25.22265625 9.171875 C-24.16062988 8.46095703 -23.09860352 7.75003906 -22.00439453 7.01757812 C-20.09527637 5.73552445 -18.18958581 4.44834042 -16.28857422 3.15429688 C-15.49080566 2.61353516 -14.69303711 2.07277344 -13.87109375 1.515625 C-13.18845459 1.04930664 -12.50581543 0.58298828 -11.80249023 0.10253906 C-7.37396309 -2.60628236 -4.69963072 -1.76236152 0 0 Z " fill="#000000" transform="translate(348,156)"/>
</svg>
