<?xml version="1.0" encoding="UTF-8"?>
<svg version="1.1" xmlns="http://www.w3.org/2000/svg" width="512" height="512">
<path d="M0 0 C1.01790619 0.00215515 2.03581238 0.0043103 3.08456421 0.00653076 C17.69363523 0.05620146 32.02575853 0.30709809 46.375 3.3125 C47.34985352 3.51117676 48.32470703 3.70985352 49.32910156 3.91455078 C97.37402273 13.96468706 141.56847595 35.56129574 176.87475586 69.90942383 C178.93859956 71.83959628 181.16756034 73.55032168 183.375 75.3125 C184.47309154 76.46716769 185.5374861 77.65499631 186.5625 78.875 C188.5262211 81.18501171 190.50144722 83.44563755 192.58984375 85.64453125 C227.92568829 122.92756982 248.89418418 173.81890493 255.375 224.3125 C255.46232895 224.97970566 255.5496579 225.64691132 255.63963318 226.33433533 C256.33587491 232.05070476 256.54956164 237.68992632 256.578125 243.4453125 C256.58518463 244.39166061 256.59224426 245.33800873 256.59951782 246.31303406 C256.82741099 285.82902112 256.82741099 285.82902112 253.375 302.3125 C253.07698486 303.77478027 253.07698486 303.77478027 252.77294922 305.26660156 C242.92075995 352.36523222 221.93479251 395.46985483 188.8828125 430.59375 C187.10997467 432.51570503 185.43556591 434.42927239 183.78515625 436.44921875 C181.83630074 438.76447173 179.99189028 440.69051185 177.6875 442.625 C174.67818744 445.18207821 171.76508138 447.80906708 168.875 450.5 C135.61747051 480.36597016 93.50517529 499.70708716 49.9375 508.625 C49.21860596 508.77235596 48.49971191 508.91971191 47.7590332 509.0715332 C33.08339502 511.86090125 18.55831162 512.66142619 3.64770508 512.62817383 C0.70811513 512.6250221 -2.2304558 512.64854926 -5.16992188 512.67382812 C-18.54306192 512.71848737 -31.43916711 511.51301542 -44.625 509.3125 C-46.33055054 509.03031616 -46.33055054 509.03031616 -48.07055664 508.74243164 C-50.6662622 508.27617402 -53.23774939 507.7574418 -55.8125 507.1875 C-57.20142456 506.88054199 -57.20142456 506.88054199 -58.6184082 506.56738281 C-101.81787364 496.52249509 -141.64439095 475.17908436 -173.90625 444.8203125 C-175.82820503 443.04747467 -177.74177239 441.37306591 -179.76171875 439.72265625 C-182.07697173 437.77380074 -184.00301185 435.92939028 -185.9375 433.625 C-188.49457821 430.61568744 -191.12156708 427.70258138 -193.8125 424.8125 C-223.67847016 391.55497051 -243.01958716 349.44267529 -251.9375 305.875 C-252.08485596 305.15610596 -252.23221191 304.43721191 -252.3840332 303.6965332 C-255.35789102 288.05024321 -255.99799808 272.57681915 -255.9375 256.6875 C-255.93534485 255.66926147 -255.9331897 254.65102295 -255.93096924 253.60192871 C-255.88127396 238.98002576 -255.57561242 224.68116068 -252.625 210.3125 C-252.42632324 209.29994141 -252.22764648 208.28738281 -252.02294922 207.24414062 C-242.44660799 159.35526119 -220.15243333 114.88901097 -186.02807617 79.81274414 C-184.09790372 77.74890044 -182.38717832 75.51993966 -180.625 73.3125 C-179.47033231 72.21440846 -178.28250369 71.1500139 -177.0625 70.125 C-174.75248829 68.1612789 -172.49186245 66.18605278 -170.29296875 64.09765625 C-137.84433247 33.34372602 -94.77023809 13.81543336 -51.4375 4.5625 C-50.51267822 4.36366211 -49.58785645 4.16482422 -48.63500977 3.95996094 C-32.42831484 0.66808631 -16.49462105 -0.0628085 0 0 Z M-40.625 34.3125 C-41.60645996 34.51117676 -42.58791992 34.70985352 -43.59912109 34.91455078 C-63.86755319 39.13384859 -83.37315363 45.36729032 -101.62255859 55.23095703 C-103.76671298 56.38904091 -105.9242534 57.51986993 -108.08203125 58.65234375 C-118.25923932 64.07132044 -127.56211015 70.19357321 -136.625 77.3125 C-137.59953125 78.07433594 -138.5740625 78.83617187 -139.578125 79.62109375 C-146.54769017 85.20670241 -153.12395024 91.19496541 -159.625 97.3125 C-160.28371094 97.92867188 -160.94242188 98.54484375 -161.62109375 99.1796875 C-166.77131516 104.15149477 -171.17708317 109.7160257 -175.625 115.3125 C-176.40875 116.26769531 -177.1925 117.22289063 -178 118.20703125 C-206.04462075 153.21786388 -224.55085162 200.68845529 -224.828125 245.73046875 C-224.83518463 246.50162018 -224.84224426 247.27277161 -224.84951782 248.06729126 C-224.96690441 264.66967413 -224.99383037 280.98290446 -221.625 297.3125 C-221.32698486 298.78468994 -221.32698486 298.78468994 -221.02294922 300.28662109 C-216.62894392 321.39430347 -209.92503319 341.35615941 -199.625 360.3125 C-199.27856445 360.96379883 -198.93212891 361.61509766 -198.57519531 362.28613281 C-190.24234781 377.92261061 -180.37510731 392.06312084 -168.625 405.3125 C-167.81804687 406.2303125 -167.01109375 407.148125 -166.1796875 408.09375 C-158.54133166 416.69013691 -150.60042448 424.11463518 -141.625 431.3125 C-140.85542969 431.96089844 -140.08585937 432.60929687 -139.29296875 433.27734375 C-131.57119538 439.70996245 -123.16285387 445.04269646 -114.625 450.3125 C-113.98320801 450.71114258 -113.34141602 451.10978516 -112.68017578 451.52050781 C-82.70451135 469.91270223 -45.48658026 481.29844821 -10.20703125 481.515625 C-9.05030411 481.52621445 -9.05030411 481.52621445 -7.87020874 481.53701782 C8.73217413 481.65440441 25.04540446 481.68133037 41.375 478.3125 C42.35645996 478.11382324 43.33791992 477.91514648 44.34912109 477.71044922 C65.45680347 473.31644392 85.41865941 466.61253319 104.375 456.3125 C105.02629883 455.96606445 105.67759766 455.61962891 106.34863281 455.26269531 C121.97388174 446.93583179 136.15914363 437.08517307 149.375 425.3125 C150.13224365 424.64782715 150.13224365 424.64782715 150.90478516 423.96972656 C168.36483632 408.62281803 182.20550413 391.06509014 194.375 371.3125 C194.77074219 370.67505859 195.16648437 370.03761719 195.57421875 369.38085938 C213.97062917 339.40036117 225.36090591 302.18095246 225.578125 266.89453125 C225.58871445 265.73780411 225.58871445 265.73780411 225.59951782 264.55770874 C225.71690441 247.95532587 225.74383037 231.64209554 222.375 215.3125 C222.07698486 213.84031006 222.07698486 213.84031006 221.77294922 212.33837891 C217.55365141 192.06994681 211.32020968 172.56434637 201.45654297 154.31494141 C200.29845909 152.17078702 199.16763007 150.0132466 198.03515625 147.85546875 C192.61572778 137.6774122 186.49107671 128.37837097 179.375 119.3125 C178.24964844 117.86810547 178.24964844 117.86810547 177.1015625 116.39453125 C138.92814964 68.64331263 84.80472328 39.0736522 24.07788086 31.77758789 C19.69597704 31.30242975 15.36218286 31.1364926 10.95703125 31.109375 C10.18587982 31.10231537 9.41472839 31.09525574 8.62020874 31.08798218 C-7.98217413 30.97059559 -24.29540446 30.94366963 -40.625 34.3125 Z " fill="#000000" transform="translate(255.625,-0.3125)"/>
<path d="M0 0 C9.28717793 7.84773456 15.48888652 17.47508527 16.70541954 29.77586746 C16.79957205 32.76107271 16.80516161 35.73270722 16.77416992 38.71923828 C16.77482704 40.4039196 16.77482704 40.4039196 16.77549744 42.12263489 C16.7734223 45.80199104 16.7501511 49.48088057 16.7265625 53.16015625 C16.72096203 55.72418977 16.71669406 58.28822652 16.71369934 60.8522644 C16.70345012 66.89044595 16.67985248 72.92842994 16.64965087 78.96653259 C16.61599146 85.84690039 16.59959201 92.72727653 16.58456457 99.60770631 C16.553299 113.74769331 16.49833371 127.88747242 16.43359375 142.02734375 C6.20359375 142.02734375 -4.02640625 142.02734375 -14.56640625 142.02734375 C-14.56640625 127.17734375 -14.56640625 112.32734375 -14.56640625 97.02734375 C-24.13640625 97.02734375 -33.70640625 97.02734375 -43.56640625 97.02734375 C-43.56640625 111.87734375 -43.56640625 126.72734375 -43.56640625 142.02734375 C-53.79640625 142.02734375 -64.02640625 142.02734375 -74.56640625 142.02734375 C-74.65699287 127.51850263 -74.73028712 113.00985121 -74.77365494 98.5007906 C-74.79420695 91.76271187 -74.82218489 85.02482241 -74.86816406 78.28686523 C-74.91181824 71.77699477 -74.93558481 65.2673203 -74.94591522 58.75731468 C-74.9532715 56.28116969 -74.96763607 53.80503469 -74.98932648 51.32897377 C-75.14418094 32.90893386 -74.67211652 17.47629327 -61.7578125 3 C-44.50124731 -13.39553075 -18.66199023 -14.34445215 0 0 Z M-39.09375 25.45703125 C-43.33500542 30.39901582 -43.70974303 34.28742521 -43.6640625 40.5390625 C-43.66264755 41.26728714 -43.6612326 41.99551178 -43.65977478 42.74580383 C-43.65418284 45.06885914 -43.64163187 47.39181763 -43.62890625 49.71484375 C-43.62389021 51.29101423 -43.61932748 52.86718623 -43.61523438 54.44335938 C-43.60506746 58.3047547 -43.58549061 62.165941 -43.56640625 66.02734375 C-33.99640625 66.02734375 -24.42640625 66.02734375 -14.56640625 66.02734375 C-14.47420748 61.31240104 -14.39469036 56.60062645 -14.34667969 51.88549805 C-14.32665278 50.28415284 -14.29942271 48.68287995 -14.26464844 47.08178711 C-14.21573206 44.77048838 -14.19334914 42.46016221 -14.17578125 40.1484375 C-14.15513611 39.440858 -14.13449097 38.7332785 -14.11322021 38.0042572 C-14.11076673 32.48068319 -15.54194371 29.47615801 -18.56640625 25.02734375 C-20.46670931 23.41496187 -20.46670931 23.41496187 -22.56640625 22.58984375 C-23.22640625 22.28175781 -23.88640625 21.97367188 -24.56640625 21.65625 C-29.88157673 19.98487803 -35.13715908 21.75341929 -39.09375 25.45703125 Z " fill="#000000" transform="translate(194.56640625,189.97265625)"/>
<path d="M0 0 C10.56 0 21.12 0 32 0 C32 39.93 32 79.86 32 121 C46.85 121 61.7 121 77 121 C77 131.23 77 141.46 77 152 C51.59 152 26.18 152 0 152 C0 101.84 0 51.68 0 0 Z " fill="#000000" transform="translate(240,180)"/>
<path d="M0 0 C10.23 0 20.46 0 31 0 C31 39.93 31 79.86 31 121 C45.85 121 60.7 121 76 121 C76 131.23 76 141.46 76 152 C50.92 152 25.84 152 0 152 C0 101.84 0 51.68 0 0 Z " fill="#000000" transform="translate(346,180)"/>
</svg>
