<?xml version="1.0" standalone="no"?>
<!DOCTYPE svg PUBLIC "-//W3C//DTD SVG 20010904//EN"
 "http://www.w3.org/TR/2001/REC-SVG-20010904/DTD/svg10.dtd">
<svg version="1.0" xmlns="http://www.w3.org/2000/svg"
 width="512.000000pt" height="512.000000pt" viewBox="0 0 512.000000 512.000000"
 preserveAspectRatio="xMidYMid meet">
<metadata>
Created by potrace 1.16, written by Peter Selinger 2001-2019
</metadata>
<g transform="translate(0.000000,512.000000) scale(0.100000,-0.100000)"
fill="#000000" stroke="none">
<path d="M3450 4780 c-327 -71 -598 -271 -751 -554 -33 -62 -44 -74 -57 -67
-9 5 -93 43 -185 85 -136 61 -178 76 -217 76 -43 0 -157 -49 -942 -406 -491
-223 -903 -412 -916 -420 -13 -8 -32 -29 -42 -47 -19 -31 -20 -59 -20 -1127 0
-1068 1 -1096 20 -1127 10 -18 29 -39 42 -47 13 -8 425 -197 916 -420 786
-358 899 -406 942 -406 43 0 156 48 942 406 491 223 903 412 916 420 13 8 32
29 42 47 19 31 20 56 20 752 l0 720 65 34 c208 107 404 327 495 554 58 144 72
218 77 392 4 134 2 176 -15 255 -95 453 -427 787 -877 881 -121 25 -336 25
-455 -1z m419 -331 c154 -35 317 -137 423 -265 62 -74 142 -237 162 -331 21
-93 20 -254 0 -346 -35 -157 -144 -335 -267 -437 -78 -64 -239 -143 -337 -165
-96 -21 -245 -21 -340 0 -160 36 -337 144 -440 268 -64 77 -143 239 -164 334
-9 40 -16 117 -16 173 0 133 21 223 80 345 84 172 193 281 365 365 178 87 337
104 534 59z m-1307 -747 c-2 -70 2 -161 8 -202 24 -151 88 -315 174 -442 l44
-66 -274 -125 -274 -125 -675 306 c-371 169 -674 309 -675 312 0 3 304 143
676 311 l676 307 161 -75 162 -74 -3 -127z m-1197 -926 l710 -323 3 -857 c1
-471 0 -856 -2 -856 -3 0 -326 146 -718 324 l-713 324 -3 856 c-1 471 1 856 5
856 5 -1 328 -146 718 -324z m1765 -77 c161 -95 356 -142 571 -137 l139 3 -2
-589 -3 -589 -710 -323 c-390 -178 -713 -323 -718 -324 -4 0 -6 385 -5 857 l3
856 315 143 c173 79 321 143 328 144 8 0 44 -18 82 -41z"/>
<path d="M3913 4300 c-18 -10 -39 -29 -47 -42 -8 -13 -65 -149 -126 -303 -62
-154 -114 -284 -117 -289 -3 -4 -42 28 -87 72 -44 44 -91 85 -103 91 -12 6
-46 11 -75 11 -97 0 -158 -61 -158 -158 0 -29 6 -65 14 -80 17 -32 362 -375
393 -391 12 -6 46 -11 75 -11 58 0 106 23 133 63 8 13 90 209 180 436 140 348
165 420 165 464 0 62 -25 108 -72 137 -44 27 -131 27 -175 0z"/>
</g>
</svg>
