<?xml version="1.0" encoding="UTF-8"?>
<svg version="1.1" xmlns="http://www.w3.org/2000/svg" width="512" height="512">
<path d="M0 0 C79.2 0 158.4 0 240 0 C240 45.21 240 90.42 240 137 C211.62 137 183.24 137 154 137 C153.6875 106.1875 153.6875 106.1875 153.61206055 96.52416992 C153.57974498 93.96792164 153.54636767 91.41168647 153.51171875 88.85546875 C153.50547485 87.55146118 153.49923096 86.24745361 153.49279785 84.90393066 C153.31182869 73.3076462 151.79919358 63.01123042 144 54 C136.70290551 47.22200776 128.2730299 43.60036598 118.234375 43.7890625 C109.37013685 44.62589617 101.34350285 48.41940638 95.2109375 54.88671875 C89.18038298 62.44719228 86.92909257 70.76897258 86.79467773 80.35083008 C86.77449585 81.6292981 86.75431396 82.90776611 86.73352051 84.22497559 C86.71675571 85.57315929 86.70011242 86.92134451 86.68359375 88.26953125 C86.66494263 89.50296265 86.6462915 90.73639404 86.6270752 92.00720215 C86.5588444 96.60889614 86.49865302 101.21070651 86.4375 105.8125 C86.293125 116.104375 86.14875 126.39625 86 137 C57.62 137 29.24 137 0 137 C0 91.79 0 46.58 0 0 Z " fill="#000000" transform="translate(136,256)"/>
<path d="M0 0 C0.639375 -0.01289062 1.27875 -0.02578125 1.9375 -0.0390625 C5.44294443 1.08958438 6.83108758 2.65721105 9 5.625 C9.60121695 9.08587985 9.47323877 12.43834066 9.3125 15.9375 C9.27866211 17.33452148 9.27866211 17.33452148 9.24414062 18.75976562 C9.18542078 21.0498396 9.10336858 23.33657875 9 25.625 C9.68707031 25.60977295 10.37414062 25.5945459 11.08203125 25.57885742 C12.43361328 25.56109253 12.43361328 25.56109253 13.8125 25.54296875 C14.70582031 25.5277417 15.59914063 25.51251465 16.51953125 25.49682617 C19.74006354 25.66324147 21.54733599 26.55556474 24 28.625 C26.18101193 31.89651789 26.57184359 33.91917302 27.21875 37.76171875 C27.42886719 38.97923828 27.63898438 40.19675781 27.85546875 41.45117188 C28.06816406 42.72541016 28.28085937 43.99964844 28.5 45.3125 C30.38729099 56.54606912 30.38729099 56.54606912 33 67.625 C33.88042969 67.65078125 34.76085937 67.6765625 35.66796875 67.703125 C36.82941406 67.75984375 37.99085938 67.8165625 39.1875 67.875 C40.33605469 67.92140625 41.48460937 67.9678125 42.66796875 68.015625 C46.54555099 68.72477251 48.25222287 69.837036 51 72.625 C52.14888518 76.57429279 52.43129396 78.65458859 50.75 82.4375 C49 84.625 49 84.625 46 86.625 C43.69 86.625 41.38 86.625 39 86.625 C40.98 91.575 42.96 96.525 45 101.625 C47.10375 101.810625 47.10375 101.810625 49.25 102 C52.61280989 102.29671852 55.11961513 102.81552746 58 104.625 C60.45970225 108.31455337 60.57750613 111.34111123 60 115.625 C58.625 118.125 58.625 118.125 57 119.625 C56.34 119.625 55.68 119.625 55 119.625 C56.6150647 122.65582355 58.28900821 125.64730711 60 128.625 C60.38414062 129.31335938 60.76828125 130.00171875 61.1640625 130.7109375 C63.38624524 134.29996726 63.38624524 134.29996726 66.953125 136.359375 C68.34225599 136.65778092 69.73567536 136.93697393 71.1328125 137.1953125 C74.18182932 137.89696909 75.32503554 139.01205544 77 141.625 C77.1065987 143.04579349 77.16954167 144.4701403 77.203125 145.89453125 C77.6545346 150.46235558 78.99345338 152.41085474 82.45239258 155.32885742 C83.06622803 155.79783447 83.68006348 156.26681152 84.3125 156.75 C84.95276123 157.25571533 85.59302246 157.76143066 86.25268555 158.2824707 C87.55198536 159.2910294 88.86225691 160.28562683 90.18359375 161.26513672 C91.73616888 162.42748127 93.23406853 163.66225588 94.71875 164.91015625 C104.00170046 171.71858528 115.27395969 170.57088084 126.32788086 170.41723633 C130.15747358 170.71499635 132.99109983 171.68567916 135.8125 174.3125 C137.53562029 177.66805003 137.52208089 179.90517365 137 183.625 C134.9761498 186.52968908 133.3654519 188.33893291 129.80882072 189.08405995 C126.99799372 189.2728619 124.22703175 189.29105173 121.40991211 189.25991821 C119.79170893 189.27161814 119.79170893 189.27161814 118.14081478 189.28355443 C114.51931227 189.30352713 110.8988544 189.28768811 107.27734375 189.27197266 C104.68376043 189.27874637 102.09018192 189.28764811 99.49661255 189.29852295 C93.17953303 189.32076029 86.86275048 189.31595215 80.5456593 189.30145974 C75.4118336 189.29016937 70.27809115 189.2886357 65.14425659 189.29407883 C64.41368229 189.29484499 63.68310799 189.29561116 62.93039507 189.29640054 C61.44626337 189.29799916 59.96213169 189.29962023 58.47800004 189.3012635 C44.56011714 189.31552244 30.64239888 189.29912606 16.72454298 189.27226166 C4.7814488 189.24992269 -7.16140239 189.25380278 -19.10449219 189.27685547 C-32.97243851 189.30361099 -46.84024051 189.31414913 -60.70820904 189.29879415 C-62.18689153 189.2972014 -63.66557405 189.29562955 -65.14425659 189.29407883 C-65.8718032 189.29330745 -66.59934981 189.29253607 -67.34894329 189.29174132 C-72.47681489 189.28742355 -77.60459497 189.29471248 -82.73245239 189.30647659 C-89.63378822 189.32196126 -96.53465696 189.31094244 -103.43594742 189.28200531 C-105.97200888 189.27538183 -108.50810889 189.27731353 -111.04415512 189.28831863 C-114.49993368 189.3019347 -117.95422869 189.28490349 -121.40991211 189.25991821 C-122.41914765 189.27107182 -123.4283832 189.28222543 -124.46820164 189.29371703 C-129.11668117 189.22829763 -131.30445203 189.14129747 -135.12672424 186.30406761 C-137.59829327 182.76935014 -137.68002104 180.85624202 -137 176.625 C-134.21450169 172.04882421 -134.21450169 172.04882421 -131.19921875 170.99658203 C-128.61469759 170.55989895 -126.18413389 170.53289984 -123.5625 170.5546875 C-106.49099148 170.66183429 -106.49099148 170.66183429 -92 162.625 C-90.74189021 161.68310867 -89.48130001 160.74452483 -88.21875 159.80859375 C-86.91238681 158.79455224 -85.61025168 157.7750393 -84.3125 156.75 C-83.69866455 156.28102295 -83.0848291 155.8120459 -82.45239258 155.32885742 C-78.9907086 152.40853921 -77.66930587 150.50236777 -77.26953125 145.92578125 C-77.2641333 145.17981689 -77.25873535 144.43385254 -77.25317383 143.6652832 C-77 141.625 -77 141.625 -74.375 138.6875 C-71 136.625 -71 136.625 -67.625 136.0625 C-61.63362446 133.6866097 -59.07427544 128.0912117 -56 122.625 C-55.505 121.14 -55.505 121.14 -55 119.625 C-55.639375 119.33625 -56.27875 119.0475 -56.9375 118.75 C-59 117.625 -59 117.625 -60 115.625 C-60.58394161 108.38412409 -60.58394161 108.38412409 -58.125 105.1875 C-55.09411741 102.95890986 -53.07585318 102.43258532 -49.375 102.0625 C-47.209375 101.8459375 -47.209375 101.8459375 -45 101.625 C-42.03 94.2 -42.03 94.2 -39 86.625 C-41.31 86.625 -43.62 86.625 -46 86.625 C-48.875 85.0625 -48.875 85.0625 -51 82.625 C-52.14888518 78.67570721 -52.43129396 76.59541141 -50.75 72.8125 C-48.34549614 69.80687017 -46.69650814 68.71694254 -42.86328125 68.2109375 C-41.10564453 68.10652344 -41.10564453 68.10652344 -39.3125 68 C-38.13300781 67.92523438 -36.95351562 67.85046875 -35.73828125 67.7734375 C-34.38283203 67.69996094 -34.38283203 67.69996094 -33 67.625 C-32.20137042 64.06402478 -31.41140784 60.50119379 -30.625 56.9375 C-30.39240479 55.8870752 -30.15980957 54.83665039 -29.92016602 53.75439453 C-28.49789995 47.22858471 -27.31728226 40.7978226 -26.65234375 34.1484375 C-25.8045937 30.86911695 -24.32506054 29.0567147 -22 26.625 C-18.98509443 25.62003148 -16.95818308 25.52164697 -13.8125 25.5625 C-12.91144531 25.57152344 -12.01039063 25.58054687 -11.08203125 25.58984375 C-10.39496094 25.60144531 -9.70789063 25.61304687 -9 25.625 C-9.02618408 25.04532471 -9.05236816 24.46564941 -9.0793457 23.8684082 C-9.18370612 21.22505125 -9.24844327 18.58212801 -9.3125 15.9375 C-9.35439453 15.02548828 -9.39628906 14.11347656 -9.43945312 13.17382812 C-9.52343791 8.5546649 -9.52614231 6.34493655 -6.73046875 2.51953125 C-3.01171481 -0.06072006 -3.01171481 -0.06072006 0 0 Z " fill="#000000" transform="translate(256,50.375)"/>
<path d="M0 0 C1.09170012 -0.00583219 2.18340024 -0.01166439 3.30818218 -0.01767331 C4.50709608 -0.01389399 5.70600999 -0.01011467 6.94125462 -0.00622082 C8.21521282 -0.01004636 9.48917103 -0.01387191 10.80173403 -0.01781338 C14.34036545 -0.02812018 17.87889586 -0.02590478 21.41753566 -0.02163279 C25.23287709 -0.01917043 29.04819388 -0.02817361 32.86352634 -0.03567028 C40.33904539 -0.04843285 47.81452854 -0.05020904 55.29005664 -0.04787002 C61.3649612 -0.04608848 67.43985485 -0.04783296 73.51475811 -0.05209446 C74.37868524 -0.05268965 75.24261238 -0.05328484 76.13271912 -0.05389806 C77.88766833 -0.05510979 79.64261754 -0.05632392 81.39756674 -0.05754044 C97.86295021 -0.06842192 114.32831321 -0.06625057 130.79369784 -0.06015559 C145.86356469 -0.05498557 160.93336691 -0.06624305 176.00322097 -0.08525381 C191.4698576 -0.10461585 206.93646364 -0.11289111 222.40311247 -0.10913056 C231.08930942 -0.10721607 239.77545136 -0.10973017 248.46163845 -0.1238451 C255.85601366 -0.13573905 263.25029999 -0.13718616 270.64467638 -0.12505493 C274.41845296 -0.1191523 278.19206682 -0.11810482 281.96583271 -0.13005733 C286.05404274 -0.14285549 290.1418629 -0.13248472 294.23007298 -0.11974621 C295.42675616 -0.12712049 296.62343934 -0.13449478 297.85638565 -0.14209253 C298.95069351 -0.13488598 300.04500138 -0.12767944 301.17247009 -0.12025452 C302.11618514 -0.12030953 303.0599002 -0.12036455 304.03221267 -0.12042123 C307.19014292 0.33197611 309.07394943 1.40038983 311.64915562 3.25447559 C314.1541521 7.44097284 313.95557158 11.91361603 313.94993687 16.66072559 C313.95422199 17.46304615 313.95850712 18.26536671 313.9629221 19.09200001 C313.96864782 20.78303047 313.96917865 22.47408556 313.96482944 24.16512012 C313.96166586 26.74611466 313.98516198 29.32596603 314.01048374 31.90681934 C314.01275663 33.55395332 314.01346028 35.20109037 314.01243687 36.84822559 C314.02164661 37.61606373 314.03085636 38.38390186 314.04034519 39.17500782 C313.99045999 44.97540316 312.71072463 48.19290658 308.64915562 52.25447559 C306.37916005 52.50747526 306.37916005 52.50747526 303.4791441 52.5117445 C302.37687579 52.51819339 301.27460749 52.52464228 300.13893712 52.5312866 C298.91795162 52.52818939 297.69696612 52.52509219 296.43898106 52.52190113 C295.14969192 52.52643224 293.86040279 52.53096336 292.53204429 52.53563178 C288.94136261 52.54791308 285.35077373 52.54759531 281.76007581 52.54524302 C277.89222625 52.54483615 274.02440697 52.55586164 270.15657139 52.56535816 C262.57416918 52.58199731 254.99179807 52.58746902 247.40937914 52.58858292 C241.2481286 52.58953203 235.08688835 52.59363548 228.92564106 52.59998417 C211.47105581 52.61760468 194.0164952 52.6268218 176.56190099 52.62532322 C175.62019209 52.62524331 174.67848318 52.6251634 173.70823765 52.62508106 C172.76538362 52.6249993 171.8225296 52.62491754 170.85110424 52.6248333 C155.56702278 52.62402021 140.28303982 52.64316148 124.99898686 52.6713578 C109.31884511 52.70005737 93.63875145 52.7138997 77.95858276 52.71217024 C69.1499652 52.71150532 60.3414509 52.71704232 51.53285694 52.73852634 C44.03335233 52.75669975 36.53399776 52.76111727 29.03448071 52.7475075 C25.20611246 52.74095823 21.37803238 52.74093056 17.5496912 52.758214 C13.40400638 52.77673804 9.25899444 52.76444149 5.11329746 52.74895191 C3.28851138 52.7643826 3.28851138 52.7643826 1.42686093 52.78012502 C0.31937713 52.77092743 -0.78810667 52.76172984 -1.92915058 52.75225353 C-2.88648055 52.75268827 -3.84381052 52.753123 -4.83015049 52.75357091 C-8.11378664 52.10341365 -9.28606705 50.83764388 -11.35084438 48.25447559 C-12.60059804 44.50521462 -12.53254335 40.98602628 -12.55396938 37.07869434 C-12.55966946 36.27591557 -12.56536953 35.47313679 -12.57124233 34.64603138 C-12.58068477 32.94724816 -12.58722331 31.24844669 -12.59107876 29.54964161 C-12.60076942 26.96199184 -12.63179296 24.37514163 -12.66334438 21.78767872 C-12.6698764 20.13468863 -12.67512609 18.48169287 -12.67896938 16.82869434 C-12.69131618 16.05974339 -12.70366299 15.29079243 -12.71638393 14.49853992 C-12.69672738 9.71306016 -12.08803916 6.35215354 -9.35084438 2.25447559 C-6.20924608 0.22477845 -3.69773074 0.00339685 0 0 Z " fill="#000000" transform="translate(105.35084438323975,408.7455244064331)"/>
</svg>
