<?xml version="1.0" encoding="UTF-8"?>
<svg version="1.1" xmlns="http://www.w3.org/2000/svg" width="554" height="554">
<path d="M0 0 C182.82 0 365.64 0 554 0 C554 182.82 554 365.64 554 554 C371.18 554 188.36 554 0 554 C0 371.18 0 188.36 0 0 Z " fill="#FEFEFE" transform="translate(0,0)"/>
<path d="M0 0 C-0.48214778 2.25002296 -1.01704837 4.03125535 -2.125 6.0625 C-3.32897101 8.14419719 -3.32897101 8.14419719 -2 11 C-2.66 11 -3.32 11 -4 11 C-3.67 11.66 -3.34 12.32 -3 13 C-2.71733665 15.11854757 -2.49672612 17.24563317 -2.3125 19.375 C-2.15201172 21.08816406 -2.15201172 21.08816406 -1.98828125 22.8359375 C-2.00018866 26.05093714 -2.49801368 27.27070968 -4 30 C-3.9175 31.258125 -3.835 32.51625 -3.75 33.8125 C-3.64966367 37.39116257 -4.41939941 39.11057206 -6.6875 41.875 C-9.19977647 44.49468971 -11.42995175 46.05498723 -15 47 C-13.35 47 -11.7 47 -10 47 C-10 48.98 -10 50.96 -10 53 C-10.78375 52.835 -11.5675 52.67 -12.375 52.5 C-16.93966142 51.87039153 -21.40072601 51.91819473 -26 52 C-24.73025028 56.41522109 -24.73025028 56.41522109 -22 60 C-20.15788171 63.7293234 -19.77535776 66.67734684 -19.875 70.8125 C-19.89304687 71.78832031 -19.91109375 72.76414062 -19.9296875 73.76953125 C-19.96449219 74.87361328 -19.96449219 74.87361328 -20 76 C-20.66 76 -21.32 76 -22 76 C-21.67 78.64 -21.34 81.28 -21 84 C-17.95086772 85.01111093 -17.95086772 85.01111093 -15 84 C-15.165 84.5775 -15.33 85.155 -15.5 85.75 C-16.18654141 88.83943633 -16.02268802 91.73908779 -15.75 94.875 C-16.07050844 98.88135546 -17.66850914 100.77705675 -20 104 C-20.71573527 105.64619113 -21.4025696 107.30728055 -22 109 C-20.02 107.515 -20.02 107.515 -18 106 C-18 107.32 -18 108.64 -18 110 C-20 112 -20 112 -23.625 112.125 C-24.73875 112.08375 -25.8525 112.0425 -27 112 C-26.835 112.825 -26.67 113.65 -26.5 114.5 C-25.92846541 118.5007421 -25.73507615 121.95991129 -26 126 C-27.4375 127.8125 -27.4375 127.8125 -29 129 C-29.33 129.99 -29.66 130.98 -30 132 C-31.65 131.67 -33.3 131.34 -35 131 C-35 131.99 -35 132.98 -35 134 C-34.33613281 134.06058594 -33.67226563 134.12117187 -32.98828125 134.18359375 C-24.21792619 135.01581722 -24.21792619 135.01581722 -20 136 C-19.90234375 142.15234375 -19.90234375 142.15234375 -20 144 C-21 145 -21 145 -23.29296875 145.1328125 C-28.30156901 145.11929401 -33.07889404 145.06402291 -38 144 C-37.00986197 148.73723609 -37.00986197 148.73723609 -34.375 152.625 C-33 154 -33 154 -32.8125 156.6875 C-32.874375 157.450625 -32.93625 158.21375 -33 159 C-32.01 158.67 -31.02 158.34 -30 158 C-30 158.99 -30 159.98 -30 161 C-31.32 161 -32.64 161 -34 161 C-34.4021875 160.0409375 -34.4021875 160.0409375 -34.8125 159.0625 C-35.88667752 156.66868314 -35.88667752 156.66868314 -39 156 C-39.12375 156.763125 -39.2475 157.52625 -39.375 158.3125 C-40 161 -40 161 -42 164 C-40.783125 164.391875 -39.56625 164.78375 -38.3125 165.1875 C-34.26972697 166.54576923 -30.25170774 167.9624678 -26.25 169.4375 C-25.18265625 169.82808594 -24.1153125 170.21867188 -23.015625 170.62109375 C-13.75125171 174.85726444 -9.52370128 183.69088739 -6.06640625 192.84765625 C-2.37126478 203.77065685 0.82274681 214.79555672 3.296875 226.05859375 C5.27064582 234.31553501 8.3803624 242.13960286 11.71875 249.92578125 C13.05366234 253.12875691 14.24560329 256.36638496 15.4375 259.625 C17.34935454 264.6593505 19.67804182 269.03189955 22.546875 273.57421875 C23.98682071 275.97799909 25.13020249 278.37064022 26.25 280.9375 C34.60444688 299.84917398 45.29999599 316.36668848 58.51342773 332.21166992 C59.47141623 333.36411954 60.42206703 334.52272832 61.36352539 335.6887207 C69.25564893 345.40941502 81.53893963 353.91657066 94 356 C97.49754787 356.34299016 100.98853922 356.50250718 104.5 356.625 C105.4178125 356.66367187 106.335625 356.70234375 107.28125 356.7421875 C109.52064528 356.83549564 111.76005254 356.92128185 114 357 C114 360 114 360 112.46484375 361.875 C110.75762999 363.90460217 110.75762999 363.90460217 111.06640625 366.4375 C111.23011719 367.283125 111.39382813 368.12875 111.5625 369 C112.20606327 373.7056239 112.20606327 373.7056239 110.25 376.5 C104.1147541 380.59016393 104.1147541 380.59016393 99 380 C96.50081741 378.84575904 94.3294576 377.49085287 92 376 C91.67 376.33 91.34 376.66 91 377 C95.62 379.64 100.24 382.28 105 385 C105 387.31 105 389.62 105 392 C103.28515625 393.49609375 103.28515625 393.49609375 101.0625 394.4375 C97.86763004 396.05043604 97.86763004 396.05043604 96.24609375 399.0859375 C95.93248351 401.55000996 95.93248351 401.55000996 96 405 C94.68 405.33 93.36 405.66 92 406 C90.7625 404.4840625 90.7625 404.4840625 89.5 402.9375 C85.98798608 398.86061671 82.17469149 395.38687493 78 392 C76.91912109 391.11054687 76.91912109 391.11054687 75.81640625 390.203125 C69.58156691 385.37486542 62.95193975 381.75155615 56 378.0625 C32.87799188 365.70139984 20.12295345 347.21929069 8.94384766 323.94384766 C8.08418714 322.17338283 7.19035346 320.41961443 6.29296875 318.66796875 C-2.48296807 301.01333239 -8.98236153 281.2889847 -13 262 C-13.26039063 260.85917969 -13.52078125 259.71835937 -13.7890625 258.54296875 C-15.74419292 249.27091084 -16.73817015 239.9174087 -17.6875 230.5 C-17.81906494 229.1991748 -17.95062988 227.89834961 -18.08618164 226.55810547 C-18.68343201 220.34461304 -19.16551622 214.24232593 -19 208 C-19.27650391 209.05574219 -19.27650391 209.05574219 -19.55859375 210.1328125 C-22.84637185 221.32587038 -29.03081173 230.06622361 -35.9375 239.3125 C-39.35899639 243.93391998 -42.33880567 248.7361647 -45.25 253.6875 C-45.66241943 254.3885083 -46.07483887 255.0895166 -46.49975586 255.81176758 C-48.84454729 259.85485591 -51.01989535 263.94987729 -53.08007812 268.14477539 C-53.8995334 269.79738703 -54.76324358 271.42788632 -55.6328125 273.0546875 C-58.95701666 279.33760741 -61.26231631 284.91823654 -62 292 C-62.15210938 293.03125 -62.30421875 294.0625 -62.4609375 295.125 C-62.90500178 300.21373657 -63.17367613 303.59075477 -59.80078125 307.640625 C-58.44533203 308.90132813 -58.44533203 308.90132813 -57.0625 310.1875 C-52.61679433 314.40120128 -51.35305004 317.25036563 -50.93920898 323.18286133 C-50.84646374 326.80063097 -50.86470612 330.38287825 -51 334 C-50.34 334 -49.68 334 -49 334 C-48.81824219 334.81082031 -48.63648438 335.62164062 -48.44921875 336.45703125 C-47.6504519 339.97570165 -46.83023837 343.48862487 -46 347 C-45.76023437 348.02351563 -45.52046875 349.04703125 -45.2734375 350.1015625 C-43.90347322 355.56636507 -42.17039402 359.29907093 -39 364 C-38.67076843 367.16062309 -38.88698828 369.55062795 -39.66015625 372.625 C-40.11522624 377.14431571 -39.03714495 380.69055337 -37.75 385 C-37.53214844 385.78117187 -37.31429688 386.56234375 -37.08984375 387.3671875 C-36.07703529 390.88536424 -35.00005849 393.99988413 -33.34375 397.28125 C-31.99555041 400.00900266 -31.64154803 401.50672566 -31.75 404.5 C-31.78480469 405.65048828 -31.78480469 405.65048828 -31.8203125 406.82421875 C-32 409 -32 409 -32.625 412.3125 C-33.06678528 415.47862784 -32.39607488 416.22660253 -31 419 C-30.65283203 421.03955078 -30.65283203 421.03955078 -30.5078125 423.1953125 C-30.41294556 424.38543945 -30.41294556 424.38543945 -30.31616211 425.59960938 C-30.25307861 426.43298828 -30.18999512 427.26636719 -30.125 428.125 C-29.6471967 433.55816009 -29.192993 438.46788927 -26.9375 443.5 C-25 448 -25 448 -24 459 C-75.48 459 -126.96 459 -180 459 C-185.81735161 443.00228307 -187.47499957 429.16079895 -187.70849609 412.32373047 C-187.75043264 409.34426236 -187.81313865 406.36574761 -187.87890625 403.38671875 C-187.91525481 401.47398062 -187.95045373 399.56122022 -187.984375 397.6484375 C-188.01081085 396.32650894 -188.01081085 396.32650894 -188.03778076 394.97787476 C-188.09376488 390.52193944 -187.91702944 386.38761941 -187 382 C-187.66 382 -188.32 382 -189 382 C-189.51424304 377.19733734 -187.69746636 373.80668887 -185.5 369.6875 C-185.16613281 369.04232422 -184.83226562 368.39714844 -184.48828125 367.73242188 C-183.66788637 366.15023174 -182.83515969 364.57444646 -182 363 C-181.34 363 -180.68 363 -180 363 C-179.97421875 362.154375 -179.9484375 361.30875 -179.921875 360.4375 C-179.61771807 354.35436133 -179.27948227 349.45380983 -176.17578125 344.171875 C-174.07723324 340.29548732 -172.74154126 336.09134697 -171.24609375 331.953125 C-170.09148374 329.21680786 -168.79556209 327.32924305 -167 325 C-166.690625 323.865625 -166.38125 322.73125 -166.0625 321.5625 C-164.91724963 317.72254288 -163.50273208 316.07478512 -161 313 C-159.22272062 309.71886883 -157.59751377 306.3718016 -156 303 C-155.34 303 -154.68 303 -154 303 C-154.01047363 301.77071777 -154.02094727 300.54143555 -154.03173828 299.27490234 C-154.06834614 294.64911898 -154.09104662 290.02334801 -154.10986328 285.39746094 C-154.11982901 283.40753007 -154.13340648 281.41761349 -154.15087891 279.42773438 C-154.37578163 253.1273449 -154.37578163 253.1273449 -151 243 C-150.1655408 239.6288837 -150.1655408 239.6288837 -151 236 C-153.1166853 234.13129457 -155.31048834 232.77734115 -157.75 231.359375 C-160 230 -160 230 -162.25 227.5625 C-162.8275 227.046875 -163.405 226.53125 -164 226 C-167.92465042 226.38895567 -170.7097554 227.78058414 -174.0546875 229.80078125 C-174.99957031 230.36603516 -175.94445312 230.93128906 -176.91796875 231.51367188 C-177.89378906 232.10728516 -178.86960937 232.70089844 -179.875 233.3125 C-181.8096769 234.47562466 -183.74456798 235.63839313 -185.6796875 236.80078125 C-189.41918178 239.04776791 -189.41918178 239.04776791 -193.14941406 241.31005859 C-197.66149736 244 -197.66149736 244 -201 244 C-201 244.66 -201 245.32 -201 246 C-201.66 246 -202.32 246 -203 246 C-206.46273727 270.27007818 -206.44610713 294.81509108 -201.16796875 318.77734375 C-199.08470172 328.39321176 -198.32395045 337.67216071 -198.08056641 347.47998047 C-198.00353015 349.88958109 -197.85896546 352.28607716 -197.69921875 354.69140625 C-197.00714219 368.06402019 -200.5130973 379.50059408 -205 392 C-205.42125215 393.27711991 -205.8419303 394.55442948 -206.26171875 395.83203125 C-207.28882954 398.58180504 -208.13075893 400.7409172 -210 403 C-212.44508504 404.09230603 -214.44521672 404.5377742 -217.109375 404.75390625 C-217.73328125 404.83511719 -218.3571875 404.91632813 -219 405 C-219.33 405.66 -219.66 406.32 -220 407 C-220.71027344 406.91621094 -221.42054688 406.83242188 -222.15234375 406.74609375 C-223.07144531 406.64425781 -223.99054688 406.54242188 -224.9375 406.4375 C-225.85402344 406.33308594 -226.77054687 406.22867187 -227.71484375 406.12109375 C-228.46894531 406.08113281 -229.22304687 406.04117187 -230 406 C-230.33 406.33 -230.66 406.66 -231 407 C-232.37603641 406.96751845 -233.7512789 406.89864861 -235.125 406.8125 C-238.65538335 406.75085839 -240.75554352 407.12022005 -243.75 409 C-246.99015986 410.99394453 -248.31320866 411.4468838 -252 411 C-251.54738642 409.56068883 -251.08767021 408.12361001 -250.625 406.6875 C-250.36976563 405.88699219 -250.11453125 405.08648437 -249.8515625 404.26171875 C-249 402 -249 402 -247 399 C-246.34 399 -245.68 399 -245 399 C-244.63068359 397.99839844 -244.63068359 397.99839844 -244.25390625 396.9765625 C-242.70796569 393.30675968 -240.84406367 389.86752451 -238.9375 386.375 C-236.15558526 381.33187494 -236.15558526 381.33187494 -234 376 C-233.34 376 -232.68 376 -232 376 C-231.87625 374.741875 -231.7525 373.48375 -231.625 372.1875 C-231.25342252 368.74047625 -230.68681976 365.41058672 -229.97265625 362.01953125 C-228.77014127 355.49495659 -228.74178883 349.11707703 -228.8125 342.5 C-228.81314453 341.35402344 -228.81378906 340.20804687 -228.81445312 339.02734375 C-228.84089393 333.86257227 -228.97000826 328.76777119 -229.5 323.62890625 C-230.21121787 316.57572846 -230.19683762 309.52029239 -230.1875 302.4375 C-230.18759064 301.3802623 -230.18759064 301.3802623 -230.18768311 300.30166626 C-230.16975348 285.60000191 -228.98606963 271.42208097 -226 257 C-227.11375 257.33 -228.2275 257.66 -229.375 258 C-235.01815247 259.35595183 -240.8097776 260.51438131 -246.23828125 257.9375 C-255.06665992 251.81915094 -258.77735945 242.55779932 -260.6875 232.3125 C-261.55654735 223.20560795 -261.26332641 214.3156536 -259.578125 205.3359375 C-257.38962173 192.70768214 -255.78967712 179.70935658 -258 167 C-257.01 166.67 -256.02 166.34 -255 166 C-254.58515161 161.95522819 -255.14769116 159.48096237 -257 155.96875 C-259.4772234 150.57963512 -259.46150517 145.78236389 -259.25 139.9375 C-259.23195313 138.97650391 -259.21390625 138.01550781 -259.1953125 137.02539062 C-259.14868796 134.68250773 -259.08328169 132.3418171 -259 130 C-258.34 130 -257.68 130 -257 130 C-257 127.36 -257 124.72 -257 122 C-258.23621094 121.86722656 -259.47242188 121.73445313 -260.74609375 121.59765625 C-266.52848297 120.95516856 -272.29464625 120.19805611 -278.0625 119.4375 C-279.11888672 119.29892578 -280.17527344 119.16035156 -281.26367188 119.01757812 C-283.84255246 118.67917298 -286.42132457 118.33996428 -289 118 C-289 118.66 -289 119.32 -289 120 C-289.66 120 -290.32 120 -291 120 C-291.33 119.34 -291.66 118.68 -292 118 C-294.80478195 117.08514427 -294.80478195 117.08514427 -298.0625 116.375 C-299.16722656 116.11460937 -300.27195312 115.85421875 -301.41015625 115.5859375 C-302.69212891 115.29589844 -302.69212891 115.29589844 -304 115 C-304.09765625 108.84765625 -304.09765625 108.84765625 -304 107 C-301.9035354 104.9035354 -298.03481513 105.75465081 -295.21459961 105.74023438 C-283.76826009 105.87752181 -272.34623081 107.60536686 -261 109 C-261.49113281 107.42025391 -261.49113281 107.42025391 -261.9921875 105.80859375 C-262.83327023 102.63008345 -263.22454562 100.2977325 -263.125 97.0625 C-263.10695313 96.29035156 -263.08890625 95.51820313 -263.0703125 94.72265625 C-263.04710937 94.15417969 -263.02390625 93.58570313 -263 93 C-261.68 93 -260.36 93 -259 93 C-257.99580363 95.4566947 -256.99649499 97.91518353 -256 100.375 C-255.71382812 101.07367188 -255.42765625 101.77234375 -255.1328125 102.4921875 C-253 107.7734375 -253 107.7734375 -253 110 C-252.01 110 -251.02 110 -250 110 C-249.98018066 109.41508789 -249.96036133 108.83017578 -249.93994141 108.22753906 C-249.84446519 105.56791975 -249.73487858 102.90906162 -249.625 100.25 C-249.5940625 99.32960938 -249.563125 98.40921875 -249.53125 97.4609375 C-249.49257812 96.57148438 -249.45390625 95.68203125 -249.4140625 94.765625 C-249.3826416 93.94868164 -249.3512207 93.13173828 -249.31884766 92.29003906 C-248.97656307 89.83167042 -248.2260723 88.14240001 -247 86 C-245.68 86 -244.36 86 -243 86 C-243 93.59 -243 101.18 -243 109 C-242.01 108.67 -241.02 108.34 -240 108 C-239.22800329 106.21914476 -239.22800329 106.21914476 -238.8671875 104.03515625 C-238.70089844 103.23529297 -238.53460938 102.43542969 -238.36328125 101.61132812 C-238.20214844 100.77021484 -238.04101562 99.92910156 -237.875 99.0625 C-237.54112347 97.40713506 -237.20527715 95.75216584 -236.8671875 94.09765625 C-236.72394043 93.36039307 -236.58069336 92.62312988 -236.43310547 91.86352539 C-236 90 -236 90 -235 88 C-233.02 88.495 -233.02 88.495 -231 89 C-230.87113817 96.40239645 -231.20274098 103.63959083 -232 111 C-231.40832031 110.89300781 -230.81664062 110.78601563 -230.20703125 110.67578125 C-224.84386238 109.86211941 -222.63483163 110.02895408 -218 113 C-213.59464031 113.5518007 -209.29397355 113.07349339 -205 112 C-196.33333333 109.83333333 -196.33333333 109.83333333 -194 111 C-194 109.68 -194 108.36 -194 107 C-191.9375 106.125 -191.9375 106.125 -189 106 C-184.8343658 108.68720599 -181.4825528 112.5174472 -178 116 C-178 110.72 -178 105.44 -178 100 C-176.68 100 -175.36 100 -174 100 C-173.80664062 101.28777344 -173.61328125 102.57554687 -173.4140625 103.90234375 C-173.15151029 105.58080254 -172.88846393 107.25918408 -172.625 108.9375 C-172.49867188 109.78763672 -172.37234375 110.63777344 -172.2421875 111.51367188 C-172.04882812 112.72700195 -172.04882812 112.72700195 -171.8515625 113.96484375 C-171.73635254 114.7137085 -171.62114258 115.46257324 -171.50244141 116.23413086 C-171.33663574 116.81686768 -171.17083008 117.39960449 -171 118 C-166.64905151 120.17547425 -161.08848923 119.89695927 -156.26367188 120.35717773 C-154.16719367 120.55844921 -152.07193211 120.76995953 -149.9765625 120.98242188 C-137.96421589 122.51234474 -137.96421589 122.51234474 -126 122 C-123.24224703 119.64871935 -121.94496173 117.49635842 -121 114 C-120.92105134 111.07889943 -121.33052794 108.88387964 -122 106 C-121.34 105.67 -120.68 105.34 -120 105 C-119.608125 105.66 -119.21625 106.32 -118.8125 107 C-117.14583333 109.29166667 -117.14583333 109.29166667 -114.3125 109.25 C-113.549375 109.1675 -112.78625 109.085 -112 109 C-113.05875074 105.59687262 -114.00902154 102.98646769 -116 100 C-116.11366696 97.32736908 -116.09402743 94.84365015 -115.9375 92.1875 C-115.92267578 91.48818359 -115.90785156 90.78886719 -115.89257812 90.06835938 C-115.58428684 84.48253936 -113.94912978 81.94321791 -110 78 C-105.7 75 -105.7 75 -103 75 C-102.67 73.35 -102.34 71.7 -102 70 C-101.34 70 -100.68 70 -100 70 C-99.87044922 68.73542969 -99.87044922 68.73542969 -99.73828125 67.4453125 C-99.52751953 65.80175781 -99.52751953 65.80175781 -99.3125 64.125 C-99.18488281 63.03445312 -99.05726563 61.94390625 -98.92578125 60.8203125 C-98.62027344 59.88960937 -98.31476563 58.95890625 -98 58 C-95.48046875 56.7421875 -95.48046875 56.7421875 -93 56 C-92.67 55.34 -92.34 54.68 -92 54 C-90.07421875 53.578125 -90.07421875 53.578125 -87.6875 53.25 C-83.60004279 52.45453488 -83.60004279 52.45453488 -80.9375 49.125 C-79.9784375 47.578125 -79.9784375 47.578125 -79 46 C-72.37434577 41.66888586 -66.69290486 40.92991479 -58.91015625 41.2578125 C-55.57711758 40.96253659 -54.55270217 40.03576666 -52 38 C-50.68 38 -49.36 38 -48 38 C-48 37.34 -48 36.68 -48 36 C-47.34 36 -46.68 36 -46 36 C-45.896875 34.865625 -45.79375 33.73125 -45.6875 32.5625 C-44.69423277 24.87488373 -42.69919808 18.4278077 -37 13 C-34.3125 12.25 -34.3125 12.25 -32 12 C-31.34 11.34 -30.68 10.68 -30 10 C-28.01049438 9.73908123 -26.0198063 9.48304901 -24.0234375 9.28125 C-21.47661441 8.92725142 -19.35210569 8.01712678 -17 7 C-16.195625 6.87625 -15.39125 6.7525 -14.5625 6.625 C-11.14573446 5.79164255 -8.84016088 4.03750672 -6 2 C-3 0 -3 0 0 0 Z " fill="#020202" transform="translate(372,50)"/>
<path d="M0 0 C2.12534659 0.14069196 4.25027529 0.28770921 6.375 0.4375 C7.55835938 0.51871094 8.74171875 0.59992188 9.9609375 0.68359375 C13 1 13 1 15 2 C15.02685938 4.14576637 15.04633088 6.29162645 15.0625 8.4375 C15.07410156 9.63246094 15.08570313 10.82742187 15.09765625 12.05859375 C15 15 15 15 14 16 C13.84490893 19.03322336 13.7681575 22.02792824 13.75 25.0625 C13.729375 25.89716797 13.70875 26.73183594 13.6875 27.59179688 C13.65115005 33.42142083 14.50000219 37.70930697 17 43 C18.52280119 44.54285579 18.52280119 44.54285579 20.125 45.8125 C22.36510133 47.79643403 22.94798404 48.62190547 23.36328125 51.640625 C23.38777344 52.60484375 23.41226563 53.5690625 23.4375 54.5625 C23.47289069 58.51170563 23.47289069 58.51170563 25.53125 61.6796875 C26.77695616 62.50164935 28.04810449 63.2865956 29.34375 64.02734375 C31.57069244 65.33514721 32.30525714 66.52980318 33 69 C33.625 71.4375 33.625 71.4375 33 74 C30.54714186 76.04922326 27.81259731 77.50027591 25 79 C20.45397461 81.34435635 20.45397461 81.34435635 16.55419922 84.56005859 C14.66053448 86.31450952 13.47825347 86.54264151 10.9453125 86.9140625 C10.16542969 87.03523438 9.38554687 87.15640625 8.58203125 87.28125 C7.77121094 87.3946875 6.96039063 87.508125 6.125 87.625 C4.52335786 87.86666029 2.92179309 88.10883398 1.3203125 88.3515625 C0.19737793 88.51640137 0.19737793 88.51640137 -0.94824219 88.68457031 C-3.31561951 89.04852218 -5.65823816 89.49751669 -8 90 C-10.1235013 84.60957363 -11.79208794 79.33579751 -13.0625 73.6875 C-13.23096436 72.94983398 -13.39942871 72.21216797 -13.57299805 71.45214844 C-14.05813348 69.30339006 -14.53185947 67.15251842 -15 65 C-15.24234375 63.88753906 -15.4846875 62.77507812 -15.734375 61.62890625 C-16.87747792 55.93656266 -16.78378087 52.13512349 -15.375 46.5 C-14.82744963 44.0058302 -14.82744963 44.0058302 -15.6484375 41.66015625 C-16.11069419 38.16241397 -15.14843901 36.86200009 -13.25 33.9375 C-12.71890625 33.10089844 -12.1878125 32.26429688 -11.640625 31.40234375 C-10 29 -10 29 -8.47973633 27.15258789 C-6.84810302 24.77903388 -6.2925168 22.95940978 -5.68359375 20.15625 C-5.37325195 18.78146484 -5.37325195 18.78146484 -5.05664062 17.37890625 C-4.85232422 16.42886719 -4.64800781 15.47882813 -4.4375 14.5 C-4.02412379 12.6135711 -3.60631514 10.72810679 -3.18359375 8.84375 C-3.00368896 8.01037109 -2.82378418 7.17699219 -2.63842773 6.31835938 C-2.00445 4.01615954 -1.14102067 2.09131972 0 0 Z " fill="#FAFAFA" transform="translate(153,175)"/>
<path d="M0 0 C2.39717111 0.0300268 4.75733433 0.12473251 7.1484375 0.26953125 C7.87559967 0.31059494 8.60276184 0.35165863 9.35195923 0.39396667 C10.90064749 0.48305033 12.44917992 0.57487766 13.99755859 0.66918945 C16.32999247 0.80978698 18.6628693 0.93774986 20.99609375 1.06445312 C40.41313668 2.17156351 40.41313668 2.17156351 45 4 C46.37182987 6.10362889 46.99982695 7.77606864 47.53515625 10.22265625 C47.68855469 10.80917969 47.84195313 11.39570313 48 12 C48.66 12.33 49.32 12.66 50 13 C50 16.3 50 19.6 50 23 C52.31 23.66 54.62 24.32 57 25 C57.495 26.98 57.495 26.98 58 29 C55.7413495 31.54783754 53.92383481 32.89594912 50.49853516 33.28173828 C47.42921826 33.2853743 44.37881277 33.19890514 41.3125 33.0625 C33.16790551 32.72377385 26.69648832 33.28735355 19 36 C17.67058127 36.34861832 16.33828349 36.68713231 15 37 C15 37.66 15 38.32 15 39 C13.20703125 40.54296875 13.20703125 40.54296875 10.8125 42.1875 C10.03519531 42.73792969 9.25789063 43.28835937 8.45703125 43.85546875 C5.49002367 45.23755654 4.07442438 44.94471655 1 44 C0.67 42.02 0.34 40.04 0 38 C-0.969375 37.690625 -1.93875 37.38125 -2.9375 37.0625 C-6 36 -6 36 -7 35 C-7.203125 33.21484375 -7.203125 33.21484375 -7.25 30.9375 C-7.27578125 30.20402344 -7.3015625 29.47054687 -7.328125 28.71484375 C-7.02774472 26.22955455 -6.50189229 24.54785675 -5.5859375 22.25 C-3.87098821 17.92148019 -3.07887048 13.64965591 -2.375 9.0625 C-1.11900599 1.11900599 -1.11900599 1.11900599 0 0 Z " fill="#F9F9F9" transform="translate(200,180)"/>
<path d="M0 0 C0.33 0 0.66 0 1 0 C1 1.65 1 3.3 1 5 C-34.64 5 -70.28 5 -107 5 C-107 4.34 -107 3.68 -107 3 C-96.09875315 1.56692695 -85.11392007 1.87376366 -74.14453125 1.90234375 C-72.03032973 1.90421164 -69.91612777 1.90563379 -67.80192566 1.90663147 C-62.27003763 1.91042747 -56.73817637 1.92023248 -51.20629883 1.93133545 C-45.54834352 1.94161265 -39.89038385 1.94614254 -34.23242188 1.95117188 C-23.15493624 1.96185768 -12.07747035 1.9788986 -1 2 C-0.67 1.34 -0.34 0.68 0 0 Z " fill="#090909" transform="translate(347,504)"/>
<path d="M0 0 C0.33 0 0.66 0 1 0 C1.33 19.8 1.66 39.6 2 60 C0.35 60 -1.3 60 -3 60 C-2.73869673 52.57996667 -2.47156818 45.16015927 -2.20043945 37.74047852 C-2.10893613 35.21774009 -2.01875347 32.6949534 -1.92993164 30.17211914 C-1.80183721 26.54039143 -1.66895336 22.9088653 -1.53515625 19.27734375 C-1.49656998 18.15416245 -1.4579837 17.03098114 -1.41822815 15.87376404 C-1.21615524 10.51138503 -0.90348214 5.29182398 0 0 Z " fill="#3C3C3C" transform="translate(81,173)"/>
<path d="M0 0 C1.8125 2.0625 1.8125 2.0625 3 4 C2.01 4 1.02 4 0 4 C0 4.66 0 5.32 0 6 C-0.66 6 -1.32 6 -2 6 C-2 6.66 -2 7.32 -2 8 C-3.32 8 -4.64 8 -6 8 C-6.33 7.34 -6.66 6.68 -7 6 C-9.52733235 5.34444881 -9.52733235 5.34444881 -12 5 C-12 5.66 -12 6.32 -12 7 C-17.36489595 7.90483637 -22.50317457 8.12303662 -27.9375 8.0625 C-28.71673828 8.05798828 -29.49597656 8.05347656 -30.29882812 8.04882812 C-32.19925268 8.03716908 -34.09963706 8.01923877 -36 8 C-36.33 7.01 -36.66 6.02 -37 5 C-34 5 -34 5 -31 6 C-26.46239887 6.14637423 -22.42226926 6.10556731 -18 5 C-9.33333333 2.83333333 -9.33333333 2.83333333 -7 4 C-7 2.68 -7 1.36 -7 0 C-4.24438552 -1.37780724 -2.90228766 -0.92023755 0 0 Z " fill="#1A1A1A" transform="translate(185,157)"/>
<path d="M0 0 C0.99 0.33 1.98 0.66 3 1 C4.22899346 7.06815522 5.27560214 12.79895188 5 19 C4.01 19 3.02 19 2 19 C1.67 18.34 1.34 17.68 1 17 C0.4225 17.350625 -0.155 17.70125 -0.75 18.0625 C-3.35801776 19.14917407 -4.39417629 18.93065133 -7 18 C-6.01 17.01 -5.02 16.02 -4 15 C-3.01 15.66 -2.02 16.32 -1 17 C-1.01160156 15.85660156 -1.02320313 14.71320313 -1.03515625 13.53515625 C-1.04453288 12.04427246 -1.05363321 10.55338691 -1.0625 9.0625 C-1.07087891 8.30775391 -1.07925781 7.55300781 -1.08789062 6.77539062 C-1.09652441 4.85005687 -1.05224333 2.92464419 -1 1 C-0.67 0.67 -0.34 0.34 0 0 Z " fill="#151515" transform="translate(195,149)"/>
<path d="M0 0 C1.23556641 0.01740234 1.23556641 0.01740234 2.49609375 0.03515625 C3.32238281 0.04417969 4.14867188 0.05320313 5 0.0625 C5.63808594 0.07410156 6.27617188 0.08570313 6.93359375 0.09765625 C6.70671875 1.19078125 6.47984375 2.28390625 6.24609375 3.41015625 C5.53212992 7.00296898 5.53212992 7.00296898 7.37109375 9.03515625 C7.88671875 9.38578125 8.40234375 9.73640625 8.93359375 10.09765625 C8.60359375 10.42765625 8.27359375 10.75765625 7.93359375 11.09765625 C5.9375 11.01171875 5.9375 11.01171875 3.49609375 10.72265625 C2.69300781 10.63242188 1.88992187 10.5421875 1.0625 10.44921875 C-1.06640625 10.09765625 -1.06640625 10.09765625 -3.06640625 9.09765625 C-3.1640625 2.9453125 -3.1640625 2.9453125 -3.06640625 1.09765625 C-2.06640625 0.09765625 -2.06640625 0.09765625 0 0 Z " fill="#070707" transform="translate(71.06640625,155.90234375)"/>
<path d="M0 0 C1.32 0 2.64 0 4 0 C4.83764268 1.95649397 5.66999059 3.91525556 6.5 5.875 C7.19609375 7.51082031 7.19609375 7.51082031 7.90625 9.1796875 C9 12 9 12 9 14 C8.195625 14.12375 7.39125 14.2475 6.5625 14.375 C5.716875 14.58125 4.87125 14.7875 4 15 C3.67 15.66 3.34 16.32 3 17 C1.68 16.67 0.36 16.34 -1 16 C-0.01 16 0.98 16 2 16 C1.67 15.030625 1.34 14.06125 1 13.0625 C-0.26873752 8.70233163 -0.18385528 4.50445434 0 0 Z " fill="#1C1C1C" transform="translate(109,143)"/>
<path d="M0 0 C1 4 1 4 0 6 C-0.61875 5.835 -1.2375 5.67 -1.875 5.5 C-6.25470729 4.79924683 -10.57428989 4.92265749 -15 5 C-13.8905928 8.48670834 -12.73662334 11.77484237 -11 15 C-11.99 15 -12.98 15 -14 15 C-16.46921528 12.00166715 -17.05635938 10.59740941 -16.6875 6.6875 C-16.460625 5.800625 -16.23375 4.91375 -16 4 C-15.34 4 -14.68 4 -14 4 C-14 3.34 -14 2.68 -14 2 C-7.07 1.01 -7.07 1.01 0 0 Z " fill="#343434" transform="translate(361,97)"/>
<path d="M0 0 C0.69222656 0.08765625 1.38445312 0.1753125 2.09765625 0.265625 C3.9375 0.75 3.9375 0.75 5.9375 2.75 C4.9475 3.245 4.9475 3.245 3.9375 3.75 C2.9475 5.235 2.9475 5.235 1.9375 6.75 C1.545625 6.234375 1.15375 5.71875 0.75 5.1875 C-0.96286663 3.51234596 -0.96286663 3.51234596 -3.25 3.8125 C-7.05795952 5.08181984 -10.52661967 6.86361223 -14.0625 8.75 C-14.0625 7.76 -14.0625 6.77 -14.0625 5.75 C-13.4025 5.75 -12.7425 5.75 -12.0625 5.75 C-12.0625 4.43 -12.0625 3.11 -12.0625 1.75 C-11.0725 1.42 -10.0825 1.09 -9.0625 0.75 C-8.4025 1.08 -7.7425 1.41 -7.0625 1.75 C-3.88217735 -0.3702151 -3.51682601 -0.4995865 0 0 Z " fill="#1A1A1A" transform="translate(209.0625,272.25)"/>
<path d="M0 0 C1.32 0 2.64 0 4 0 C3.67 7.26 3.34 14.52 3 22 C2.67 22 2.34 22 2 22 C1.67 16.06 1.34 10.12 1 4 C-0.64920633 7.29841266 -0.66486707 10.9962313 -1.0625 14.625 C-1.15337891 15.42679688 -1.24425781 16.22859375 -1.33789062 17.0546875 C-1.56197653 19.03607868 -1.7814275 21.01799305 -2 23 C-2.33 23 -2.66 23 -3 23 C-2.88979143 19.91595192 -2.75924186 16.83308808 -2.625 13.75 C-2.5940625 12.87730469 -2.563125 12.00460938 -2.53125 11.10546875 C-2.49257812 10.26113281 -2.45390625 9.41679687 -2.4140625 8.546875 C-2.3826416 7.77182617 -2.3512207 6.99677734 -2.31884766 6.19824219 C-1.96973494 3.79134258 -1.19448896 2.10397705 0 0 Z " fill="#3F3F3F" transform="translate(125,136)"/>
<path d="M0 0 C1.32 0.33 2.64 0.66 4 1 C4.18451025 12.52164009 4.18451025 12.52164009 3 18 C0.67409146 14.36576791 0.83734167 11.22911669 1 7 C0.34 6.67 -0.32 6.34 -1 6 C-1.33 8.64 -1.66 11.28 -2 14 C-3.25127906 10.45332822 -2.72285053 8.27746562 -1.5625 4.75 C-1.27503906 3.85796875 -0.98757812 2.9659375 -0.69140625 2.046875 C-0.46324219 1.37140625 -0.23507813 0.6959375 0 0 Z " fill="#2A2A2A" transform="translate(137,138)"/>
<path d="M0 0 C0.99 0.33 1.98 0.66 3 1 C3 3.31 3 5.62 3 8 C-0.63 9.98 -4.26 11.96 -8 14 C-8.33 12.35 -8.66 10.7 -9 9 C-5.81237635 6.87491756 -3.73487777 6.4979837 0 6 C0 4.02 0 2.04 0 0 Z " fill="#0C0C0C" transform="translate(474,434)"/>
<path d="M0 0 C4.29 0.66 8.58 1.32 13 2 C13.09765625 8.15234375 13.09765625 8.15234375 13 10 C12 11 12 11 9.49609375 11.09765625 C7.98208984 11.08025391 7.98208984 11.08025391 6.4375 11.0625 C5.42558594 11.05347656 4.41367187 11.04445312 3.37109375 11.03515625 C2.58863281 11.02355469 1.80617188 11.01195312 1 11 C1 10.67 1 10.34 1 10 C7.625 7.875 7.625 7.875 11 9 C10.89424098 7.02940862 10.89424098 7.02940862 10 5 C7.68684675 3.85706445 7.68684675 3.85706445 4.9375 3.25 C4.01839844 3.00765625 3.09929687 2.7653125 2.15234375 2.515625 C1.44207031 2.34546875 0.73179687 2.1753125 0 2 C0 1.34 0 0.68 0 0 Z " fill="#222222" transform="translate(339,184)"/>
<path d="M0 0 C-0.47501758 2.21674869 -1.0198699 4.03857099 -2.0625 6.0625 C-3.21778046 8.09134681 -3.21778046 8.09134681 -3 11 C-4.9375 10.6875 -4.9375 10.6875 -7 10 C-7.33 9.01 -7.66 8.02 -8 7 C-10.01508358 6.26676204 -10.01508358 6.26676204 -12 6 C-3 0 -3 0 0 0 Z " fill="#343434" transform="translate(372,50)"/>
<path d="M0 0 C0.33 0.66 0.66 1.32 1 2 C1.66 2 2.32 2 3 2 C3.05807043 5.10408807 3.09361914 8.2080364 3.125 11.3125 C3.15013672 12.63411133 3.15013672 12.63411133 3.17578125 13.98242188 C3.18222656 14.82998047 3.18867188 15.67753906 3.1953125 16.55078125 C3.21102295 17.72120972 3.21102295 17.72120972 3.22705078 18.9152832 C3 21 3 21 1 24 C1 21.69 1 19.38 1 17 C0.67 17 0.34 17 0 17 C0 11.39 0 5.78 0 0 Z " fill="#3E3E3E" transform="translate(171,398)"/>
<path d="M0 0 C0.66 0 1.32 0 2 0 C4.60018816 3.90028225 4.15085514 7.47434569 4 12 C2.35 12 0.7 12 -1 12 C-1.08159574 7.83861737 -0.98248524 4.0527516 0 0 Z " fill="#333333" transform="translate(79,221)"/>
<path d="M0 0 C2.46147484 2.61531702 3.89012586 4.27796993 4.4375 7.875 C3.89998275 11.71440893 2.67505149 14.51030939 1 18 C-1 15 -1 15 -0.625 12.3125 C-0.41875 11.549375 -0.2125 10.78625 0 10 C0.66 10 1.32 10 2 10 C1.01 7.03 0.02 4.06 -1 1 C-0.67 0.67 -0.34 0.34 0 0 Z " fill="#121212" transform="translate(329,409)"/>
<path d="M0 0 C0.89203125 0.03609375 1.7840625 0.0721875 2.703125 0.109375 C3.71632813 0.17898437 3.71632813 0.17898437 4.75 0.25 C4.75 0.58 4.75 0.91 4.75 1.25 C2.44 1.25 0.13 1.25 -2.25 1.25 C-2.58 2.24 -2.91 3.23 -3.25 4.25 C-4.23613281 4.69859375 -4.23613281 4.69859375 -5.2421875 5.15625 C-7.4462048 6.06921219 -7.4462048 6.06921219 -8.0078125 8.34375 C-8.12898438 9.1378125 -8.25015625 9.931875 -8.375 10.75 C-9.06081081 15.06081081 -9.06081081 15.06081081 -11.25 17.25 C-11.02093046 15.16426154 -10.76590108 13.08136359 -10.5 11 C-10.36078125 9.83984375 -10.2215625 8.6796875 -10.078125 7.484375 C-8.58942003 1.66999899 -5.92254946 -0.31171313 0 0 Z " fill="#8D8D8D" transform="translate(282.25,102.75)"/>
<path d="M0 0 C1.134375 0.020625 2.26875 0.04125 3.4375 0.0625 C1.21381342 2.61973956 -0.2862531 3.36753854 -3.5625 4.0625 C-5.92376091 5.1288759 -8.003045 6.3457075 -10.1875 7.75 C-10.97125 8.183125 -11.755 8.61625 -12.5625 9.0625 C-13.2225 8.7325 -13.8825 8.4025 -14.5625 8.0625 C-11.41464347 4.6448272 -8.98131673 2.53543891 -4.5625 1.0625 C-3.5625 0.0625 -3.5625 0.0625 0 0 Z " fill="#333333" transform="translate(345.5625,59.9375)"/>
<path d="M0 0 C0.33 0 0.66 0 1 0 C1 8.58 1 17.16 1 26 C0.67 25.01 0.34 24.02 0 23 C-0.66 23 -1.32 23 -2 23 C-2 20.36 -2 17.72 -2 15 C-1.67 15 -1.34 15 -1 15 C-0.67 10.05 -0.34 5.1 0 0 Z " fill="#989898" transform="translate(81,198)"/>
<path d="M0 0 C1.33332095 2.6666419 0.67102033 4.16680303 0 7 C3.3 7.33 6.6 7.66 10 8 C10 8.99 10 9.98 10 11 C8.54119891 10.85892253 7.08296449 10.71197585 5.625 10.5625 C4.40683594 10.44068359 4.40683594 10.44068359 3.1640625 10.31640625 C1 10 1 10 -1 9 C-1.09765625 2.84765625 -1.09765625 2.84765625 -1 1 C-0.67 0.67 -0.34 0.34 0 0 Z " fill="#212121" transform="translate(69,156)"/>
<path d="M0 0 C1.32 0 2.64 0 4 0 C4.66 2.31 5.32 4.62 6 7 C5.01 7.495 5.01 7.495 4 8 C3.67 7.34 3.34 6.68 3 6 C2.67 7.98 2.34 9.96 2 12 C-0.13586678 8.79619983 -0.23132175 7.98060033 -0.125 4.3125 C-0.10695313 3.50425781 -0.08890625 2.69601563 -0.0703125 1.86328125 C-0.04710938 1.24839844 -0.02390625 0.63351563 0 0 Z " fill="#2F2F2F" transform="translate(109,143)"/>
<path d="M0 0 C2.05078125 0.03255208 4.1015625 0.06510417 6.15234375 0.09765625 C5.82234375 0.75765625 5.49234375 1.41765625 5.15234375 2.09765625 C4.40984375 2.24203125 3.66734375 2.38640625 2.90234375 2.53515625 C0.06767094 2.9481758 0.06767094 2.9481758 -2.34765625 4.66015625 C-5.12921293 6.25955134 -6.69696284 6.36771569 -9.84765625 6.09765625 C-9.18765625 4.77765625 -8.52765625 3.45765625 -7.84765625 2.09765625 C-7.84765625 2.75765625 -7.84765625 3.41765625 -7.84765625 4.09765625 C-5.8722888 3.74978917 -5.8722888 3.74978917 -3.84765625 3.09765625 C-3.51765625 2.43765625 -3.18765625 1.77765625 -2.84765625 1.09765625 C-1.84765625 0.09765625 -1.84765625 0.09765625 0 0 Z " fill="#191919" transform="translate(129.84765625,454.90234375)"/>
<path d="M0 0 C0.33 0 0.66 0 1 0 C1.33 1.65 1.66 3.3 2 5 C2.33 5 2.66 5 3 5 C3.66 9.29 4.32 13.58 5 18 C4.01 17.67 3.02 17.34 2 17 C-0.20018889 11.6230678 -0.20783455 5.71545019 0 0 Z " fill="#131313" transform="translate(134,224)"/>
<path d="M0 0 C6.27 0 12.54 0 19 0 C19 3.52032428 18.29648649 4.4385343 16 7 C15.34 7 14.68 7 14 7 C14.66 5.02 15.32 3.04 16 1 C10.72 1 5.44 1 0 1 C0 0.67 0 0.34 0 0 Z " fill="#222222" transform="translate(467,407)"/>
<path d="M0 0 C1.65 0 3.3 0 5 0 C5.33 1.32 5.66 2.64 6 4 C6.66 4 7.32 4 8 4 C8.33 4.66 8.66 5.32 9 6 C9.66 5.67 10.32 5.34 11 5 C11.33 6.65 11.66 8.3 12 10 C8.55463828 9.74478802 7.81024183 8.78710059 5.4375 6.125 C4.633125 5.09375 3.82875 4.0625 3 3 C2.01709032 1.98319689 1.02665213 0.97261781 0 0 Z " fill="#101010" transform="translate(455,446)"/>
<path d="M0 0 C0.66 0 1.32 0 2 0 C3.6290678 4.79137588 4.20577428 8.05632546 3 13 C3.66 13 4.32 13 5 13 C4.67 13.99 4.34 14.98 4 16 C1.62526776 13.62526776 1.4828067 12.37628347 0.875 9.125 C0.70742187 8.26132812 0.53984375 7.39765625 0.3671875 6.5078125 C0 4 0 4 0 0 Z " fill="#2B2B2B" transform="translate(187,488)"/>
<path d="M0 0 C2.83444974 2.83444974 2.79638309 5.06340644 3 9 C1.5625 11.4375 1.5625 11.4375 0 13 C-1 12 -1 12 -1.1328125 9.78515625 C-1.13023437 8.88667969 -1.12765625 7.98820313 -1.125 7.0625 C-1.12757813 6.16660156 -1.13015625 5.27070313 -1.1328125 4.34765625 C-1 2 -1 2 0 0 Z " fill="#0D0D0D" transform="translate(196,151)"/>
<path d="M0 0 C2.6168821 0.50324656 4.53734125 1.27438702 6.9375 2.5 C9.7172827 3.86152622 11.96160412 4.55317708 15 5 C14.01 5.33 13.02 5.66 12 6 C11.67 6.66 11.34 7.32 11 8 C9.35048774 7.04801289 7.70548492 6.08820855 6.0625 5.125 C5.14597656 4.59132813 4.22945313 4.05765625 3.28515625 3.5078125 C1 2 1 2 0 0 Z " fill="#C2C2C2" transform="translate(461,425)"/>
<path d="M0 0 C2.5 1.6875 2.5 1.6875 5 4 C5.3125 6.75 5.3125 6.75 5 9 C5.99 8.67 6.98 8.34 8 8 C8 8.99 8 9.98 8 11 C6.68 11 5.36 11 4 11 C3.67 9.02 3.34 7.04 3 5 C2.01 5 1.02 5 0 5 C-0.5625 3.0625 -0.5625 3.0625 -1 1 C-0.67 0.67 -0.34 0.34 0 0 Z " fill="#282828" transform="translate(334,200)"/>
<path d="M0 0 C1.66666667 1 3.33333333 2 5 3 C5.9075 3.495 6.815 3.99 7.75 4.5 C10 6 10 6 11 9 C6.32894208 7.44298069 2.91294315 4.91552627 -1 2 C-0.67 1.34 -0.34 0.68 0 0 Z " fill="#222222" transform="translate(413,416)"/>
<path d="M0 0 C0.66 0.66 1.32 1.32 2 2 C-4.625 6 -4.625 6 -8 6 C-8.33 6.66 -8.66 7.32 -9 8 C-9.33 6.68 -9.66 5.36 -10 4 C-9.16855469 3.69255859 -9.16855469 3.69255859 -8.3203125 3.37890625 C-7.59585938 3.10949219 -6.87140625 2.84007812 -6.125 2.5625 C-5.40570313 2.29566406 -4.68640625 2.02882813 -3.9453125 1.75390625 C-1.96351155 1.02083146 -1.96351155 1.02083146 0 0 Z " fill="#1A1A1A" transform="translate(179,288)"/>
<path d="M0 0 C0.66 0.33 1.32 0.66 2 1 C1.3125 2.9375 1.3125 2.9375 0 5 C-3.3186024 6.13531135 -5.68989426 6.10336858 -9 5 C-8.34 3.68 -7.68 2.36 -7 1 C-6.01 1.99 -5.02 2.98 -4 4 C-3.67 3.01 -3.34 2.02 -3 1 C-3 1.66 -3 2.32 -3 3 C-2.01 2.01 -1.02 1.02 0 0 Z " fill="#222222" transform="translate(353,156)"/>
<path d="M0 0 C2.125 0.9375 2.125 0.9375 4 2 C4 2.66 4 3.32 4 4 C0.04 5.98 0.04 5.98 -4 8 C-4 7.01 -4 6.02 -4 5 C-3.34 5 -2.68 5 -2 5 C-2 3.68 -2 2.36 -2 1 C-1.34 0.67 -0.68 0.34 0 0 Z " fill="#141414" transform="translate(199,273)"/>
<path d="M0 0 C0.99 0.33 1.98 0.66 3 1 C1.02 3.97 -0.96 6.94 -3 10 C-3.66 8.68 -4.32 7.36 -5 6 C-4.67 5.01 -4.34 4.02 -4 3 C-3.01 3 -2.02 3 -1 3 C-0.67 2.01 -0.34 1.02 0 0 Z " fill="#171717" transform="translate(346,269)"/>
<path d="M0 0 C2.10478604 0.11409682 4.20884577 0.24165361 6.3125 0.375 C7.48425781 0.44460937 8.65601562 0.51421875 9.86328125 0.5859375 C13 1 13 1 16 3 C11.38926889 4.29676812 7.66159911 3.71109139 3 3 C3 2.34 3 1.68 3 1 C2.01 0.67 1.02 0.34 0 0 Z " fill="#151515" transform="translate(88,166)"/>
<path d="M0 0 C0.66 0 1.32 0 2 0 C3.35091528 2.70183055 3.33858058 5.11808206 3.5625 8.125 C3.64628906 9.22070312 3.73007812 10.31640625 3.81640625 11.4453125 C3.87699219 12.28835938 3.93757813 13.13140625 4 14 C3.34 14 2.68 14 2 14 C0.02905192 9.07262981 -0.1799928 5.21979128 0 0 Z " fill="#101010" transform="translate(306,342)"/>
<path d="M0 0 C3.465 1.98 3.465 1.98 7 4 C7 4.66 7 5.32 7 6 C7.66 6 8.32 6 9 6 C8.67 6.99 8.34 7.98 8 9 C2.25 5.25 2.25 5.25 0 3 C0 2.01 0 1.02 0 0 Z " fill="#1C1C1C" transform="translate(119,299)"/>
<path d="M0 0 C0.66 0.33 1.32 0.66 2 1 C7.31104863 2.77034954 12.59913341 2.35021665 18 1 C15.44725126 3.45605371 14.14109357 3.98802939 10.546875 4.29296875 C9.29390625 4.25816406 8.0409375 4.22335938 6.75 4.1875 C5.48671875 4.16042969 4.2234375 4.13335937 2.921875 4.10546875 C1.47554687 4.05326172 1.47554687 4.05326172 0 4 C-0.33 3.01 -0.66 2.02 -1 1 C-0.67 0.67 -0.34 0.34 0 0 Z " fill="#373737" transform="translate(149,161)"/>
<path d="M0 0 C0.66 0.33 1.32 0.66 2 1 C2 2.32 2 3.64 2 5 C2.66 5.33 3.32 5.66 4 6 C4 6.99 4 7.98 4 9 C2.35 8.67 0.7 8.34 -1 8 C-0.67 5.36 -0.34 2.72 0 0 Z " fill="#2A2A2A" transform="translate(250,195)"/>
<path d="M0 0 C3 3.625 3 3.625 3 7 C1.82851724 9.44233235 0.40263342 11.67688841 -1 14 C-1.66 13.67 -2.32 13.34 -3 13 C-2.484375 12.505 -1.96875 12.01 -1.4375 11.5 C0.70624953 7.77173996 -0.31317622 5.18962506 -1 1 C-0.67 0.67 -0.34 0.34 0 0 Z " fill="#343434" transform="translate(251,155)"/>
<path d="M0 0 C0.66 0.99 1.32 1.98 2 3 C1.071875 3.61875 1.071875 3.61875 0.125 4.25 C-2.06768281 6.05573879 -2.92788417 7.4090534 -4 10 C-4.33 9.67 -4.66 9.34 -5 9 C-6.66617115 8.95936168 -8.33388095 8.957279 -10 9 C-9 7 -9 7 -6.125 5.625 C-3.0427468 4.02222834 -1.79742705 2.8958547 0 0 Z " fill="#DBDBDB" transform="translate(366,89)"/>
<path d="M0 0 C0.66 0.33 1.32 0.66 2 1 C2 4.63 2 8.26 2 12 C1.34 12 0.68 12 0 12 C-1.28571429 3.42857143 -1.28571429 3.42857143 0 0 Z " fill="#2D2D2D" transform="translate(340,474)"/>
<path d="M0 0 C2 3 2 3 1.9375 5.5625 C1 8 1 8 -1.5625 9.3125 C-2.366875 9.539375 -3.17125 9.76625 -4 10 C-4 10.66 -4 11.32 -4 12 C-4.66 11.67 -5.32 11.34 -6 11 C-5.38125 9.9275 -4.7625 8.855 -4.125 7.75 C-2.6676321 5.20219016 -1.27075509 2.64740645 0 0 Z " fill="#2E2E2E" transform="translate(214,356)"/>
<path d="M0 0 C0.33 0.66 0.66 1.32 1 2 C-2.15506142 2.93619813 -4.96586502 3.1057123 -8.25 3.0625 C-9.14203125 3.05347656 -10.0340625 3.04445313 -10.953125 3.03515625 C-11.62859375 3.02355469 -12.3040625 3.01195312 -13 3 C-9.51105881 -0.48894119 -4.73283796 -0.13920112 0 0 Z " fill="#242424" transform="translate(141,306)"/>
<path d="M0 0 C2.625 0.9375 2.625 0.9375 5 2 C4.67 2.66 4.34 3.32 4 4 C2.68 4 1.36 4 0 4 C-0.33 5.65 -0.66 7.3 -1 9 C-1.66 8.67 -2.32 8.34 -3 8 C-2.7525 7.1028125 -2.7525 7.1028125 -2.5 6.1875 C-1.8885876 3.88655664 -1.8885876 3.88655664 -2 1 C-1.34 0.67 -0.68 0.34 0 0 Z " fill="#232323" transform="translate(259,202)"/>
<path d="M0 0 C-0.33 1.32 -0.66 2.64 -1 4 C-3.78823655 5.0326802 -4.8677274 5.04509293 -7.75 4.0625 C-8.4925 3.711875 -9.235 3.36125 -10 3 C-7.29536552 -0.8183075 -4.37912428 -0.24787496 0 0 Z " fill="#313131" transform="translate(360,57)"/>
<path d="M0 0 C0.99 0.33 1.98 0.66 3 1 C3 3.31 3 5.62 3 8 C1.35 8.33 -0.3 8.66 -2 9 C-2 7 -2 7 0 5 C0.16687448 2.41645782 0.16687448 2.41645782 0 0 Z " fill="#171717" transform="translate(474,434)"/>
<path d="M0 0 C2.9244745 2.63202705 5.02154932 5.60837026 7 9 C6.67 9.99 6.34 10.98 6 12 C2 7.25 2 7.25 2 5 C1.34 5 0.68 5 0 5 C0 3.35 0 1.7 0 0 Z " fill="#1F1F1F" transform="translate(410,356)"/>
<path d="M0 0 C0.66 0.66 1.32 1.32 2 2 C1.01 2 0.02 2 -1 2 C0.1094072 5.48670834 1.26337666 8.77484237 3 12 C2.01 12 1.02 12 0 12 C-2.41605151 9.06622316 -3.03333457 7.57779923 -2.8125 3.75 C-2.544375 2.8425 -2.27625 1.935 -2 1 C-1.34 0.67 -0.68 0.34 0 0 Z " fill="#313131" transform="translate(347,100)"/>
<path d="M0 0 C2.96175123 0.61277612 4.38058783 1.25372522 7 3 C6.67 4.65 6.34 6.3 6 8 C3.33264727 5.51047079 1.44253657 3.36591866 0 0 Z " fill="#141414" transform="translate(392,394)"/>
<path d="M0 0 C3.44216672 2.6598561 3.99504674 5.90288286 5 10 C4.34 10.66 3.68 11.32 3 12 C-0.53846154 4 -0.53846154 4 -1 1 C-0.67 0.67 -0.34 0.34 0 0 Z " fill="#282828" transform="translate(393,323)"/>
<path d="M0 0 C0 0.99 0 1.98 0 3 C-0.66 3.66 -1.32 4.32 -2 5 C-2.61875 4.690625 -3.2375 4.38125 -3.875 4.0625 C-8.18802294 2.5960722 -12.4759996 2.33380974 -17 2 C-17 1.67 -17 1.34 -17 1 C-15.41058594 1.01740234 -15.41058594 1.01740234 -13.7890625 1.03515625 C-12.40104342 1.04453476 -11.01302245 1.05363489 -9.625 1.0625 C-8.57699219 1.07506836 -8.57699219 1.07506836 -7.5078125 1.08789062 C-3.62704624 1.1835442 -3.62704624 1.1835442 0 0 Z " fill="#252525" transform="translate(255,211)"/>
<path d="M0 0 C4.43090471 1.20842856 6.98112756 2.51668565 10 6 C6.80389448 6 5.58282374 5.45328458 2.8125 4 C2.09707031 3.62875 1.38164062 3.2575 0.64453125 2.875 C0.10183594 2.58625 -0.44085938 2.2975 -1 2 C-0.67 1.34 -0.34 0.68 0 0 Z " fill="#2A2A2A" transform="translate(425,424)"/>
<path d="M0 0 C1.32 0.66 2.64 1.32 4 2 C4 3.98 4 5.96 4 8 C3.01 8.495 3.01 8.495 2 9 C1.01 6.36 0.02 3.72 -1 1 C-0.67 0.67 -0.34 0.34 0 0 Z " fill="#161616" transform="translate(370,344)"/>
<path d="M0 0 C2.3129482 2.3129482 2.49580975 3.47904875 3.125 6.625 C3.29257812 7.44226563 3.46015625 8.25953125 3.6328125 9.1015625 C3.81457031 10.04128906 3.81457031 10.04128906 4 11 C3.34 11 2.68 11 2 11 C0.14223235 7.86501708 -0.20140476 5.62528568 0 2 C-0.66 1.67 -1.32 1.34 -2 1 C-1.34 0.67 -0.68 0.34 0 0 Z " fill="#1A1A1A" transform="translate(375,279)"/>
<path d="M0 0 C0.33 0 0.66 0 1 0 C0.9131252 1.95917659 0.80495488 3.91741871 0.6875 5.875 C0.62949219 6.96554687 0.57148438 8.05609375 0.51171875 9.1796875 C0.34285156 10.11039062 0.17398437 11.04109375 0 12 C-0.99 12.66 -1.98 13.32 -3 14 C-2.40380045 9.13103697 -1.43023178 4.67209049 0 0 Z " fill="#C4C4C4" transform="translate(353,254)"/>
<path d="M0 0 C0.99 0.33 1.98 0.66 3 1 C2.67 1.99 2.34 2.98 2 4 C1.67 4 1.34 4 1 4 C0.67 7.96 0.34 11.92 0 16 C-0.33 16 -0.66 16 -1 16 C-1.02685095 13.52076199 -1.04676547 11.0418116 -1.0625 8.5625 C-1.07506836 7.50192383 -1.07506836 7.50192383 -1.08789062 6.41992188 C-1.09653588 4.61306441 -1.05220011 2.80612397 -1 1 C-0.67 0.67 -0.34 0.34 0 0 Z " fill="#676767" transform="translate(195,149)"/>
<path d="M0 0 C2.56616632 3.84924948 2.55097676 6.4349304 3 11 C1.68 11.33 0.36 11.66 -1 12 C-0.67 8.04 -0.34 4.08 0 0 Z " fill="#383838" transform="translate(370,259)"/>
<path d="M0 0 C0.33 0 0.66 0 1 0 C1.0825 1.093125 1.165 2.18625 1.25 3.3125 C1.62010299 7.03443943 1.62010299 7.03443943 4.0625 8.8125 C4.701875 9.204375 5.34125 9.59625 6 10 C6 10.66 6 11.32 6 12 C3.13275314 11.42655063 2.1385485 11.1385485 0 9 C-0.1953125 6.8359375 -0.1953125 6.8359375 -0.125 4.375 C-0.10695312 3.55773437 -0.08890625 2.74046875 -0.0703125 1.8984375 C-0.04710937 1.27195313 -0.02390625 0.64546875 0 0 Z " fill="#434343" transform="translate(176,226)"/>
<path d="M0 0 C0.99 0.33 1.98 0.66 3 1 C3 1.99 3 2.98 3 4 C3.66 4 4.32 4 5 4 C5 4.99 5 5.98 5 7 C5.66 7.33 6.32 7.66 7 8 C6.01 8.66 5.02 9.32 4 10 C2.68 6.7 1.36 3.4 0 0 Z " fill="#171717" transform="translate(377,364)"/>
<path d="M0 0 C-1.33333333 2.66666667 -2.66666667 5.33333333 -4 8 C-4.66 7.67 -5.32 7.34 -6 7 C-6 4 -6 4 -4.125 1.8125 C-2 0 -2 0 0 0 Z " fill="#2F2F2F" transform="translate(297,95)"/>
<path d="M0 0 C0.33 0 0.66 0 1 0 C1 1.65 1 3.3 1 5 C-2.63 4.67 -6.26 4.34 -10 4 C-10 3.67 -10 3.34 -10 3 C-9.36191406 2.95101563 -8.72382813 2.90203125 -8.06640625 2.8515625 C-7.24011719 2.77679688 -6.41382813 2.70203125 -5.5625 2.625 C-4.73878906 2.55539062 -3.91507812 2.48578125 -3.06640625 2.4140625 C-2.38449219 2.27742188 -1.70257813 2.14078125 -1 2 C-0.67 1.34 -0.34 0.68 0 0 Z " fill="#272727" transform="translate(347,504)"/>
<path d="M0 0 C0.66 0 1.32 0 2 0 C2.625 1.875 2.625 1.875 3 4 C2.34 4.66 1.68 5.32 1 6 C1 5.34 1 4.68 1 4 C0.34 4 -0.32 4 -1 4 C-1.33 5.32 -1.66 6.64 -2 8 C-2.33 7.34 -2.66 6.68 -3 6 C-2.06553465 3.96855359 -1.06775224 1.96466413 0 0 Z " fill="#3B3B3B" transform="translate(125,449)"/>
<path d="M0 0 C0.33 0 0.66 0 1 0 C1.33 3.63 1.66 7.26 2 11 C1.34 10.67 0.68 10.34 0 10 C-1.29411765 2.58823529 -1.29411765 2.58823529 0 0 Z " fill="#262626" transform="translate(169,365)"/>
<path d="M0 0 C2.14418558 3.21627837 2.67582137 5.19090105 3 9 C2.34 9.66 1.68 10.32 1 11 C-0.62950412 6.87831311 -1.26264601 4.29299643 0 0 Z " fill="#141414" transform="translate(367,249)"/>
<path d="M0 0 C-0.33 0.66 -0.66 1.32 -1 2 C-2.98 2 -4.96 2 -7 2 C-7.33 2.66 -7.66 3.32 -8 4 C-10.475 3.01 -10.475 3.01 -13 2 C-13 1.67 -13 1.34 -13 1 C-8.59085217 -0.10228696 -4.51617599 -0.07654536 0 0 Z " fill="#292929" transform="translate(237,212)"/>
<path d="M0 0 C1.32 0.33 2.64 0.66 4 1 C4 4.63 4 8.26 4 12 C3.67 12 3.34 12 3 12 C2.67 8.7 2.34 5.4 2 2 C1.34 2 0.68 2 0 2 C0 1.34 0 0.68 0 0 Z " fill="#4C4C4C" transform="translate(137,138)"/>
<path d="M0 0 C1.32 0.33 2.64 0.66 4 1 C3.67 1.99 3.34 2.98 3 4 C0.03 4 -2.94 4 -6 4 C-6.33 3.34 -6.66 2.68 -7 2 C-4.69 2.33 -2.38 2.66 0 3 C0 2.01 0 1.02 0 0 Z " fill="#141414" transform="translate(353,95)"/>
<path d="M0 0 C2.60018816 3.90028225 2.15085514 7.47434569 2 12 C1.67 10.68 1.34 9.36 1 8 C0.34 8 -0.32 8 -1 8 C-0.67 5.36 -0.34 2.72 0 0 Z " fill="#5E5E5E" transform="translate(171,376)"/>
<path d="M0 0 C1.32 0.33 2.64 0.66 4 1 C4 1.66 4 2.32 4 3 C2.46875 4.2890625 2.46875 4.2890625 0.5 5.625 C-0.1496875 6.07101563 -0.799375 6.51703125 -1.46875 6.9765625 C-1.9740625 7.31429687 -2.479375 7.65203125 -3 8 C-2.5359375 7.13375 -2.5359375 7.13375 -2.0625 6.25 C-1.07416636 4.15705816 -0.4831387 2.25464725 0 0 Z " fill="#D2D2D2" transform="translate(333,206)"/>
<path d="M0 0 C0.66 0.66 1.32 1.32 2 2 C3.98821313 2.39764263 5.98944339 2.73775349 8 3 C8 3.33 8 3.66 8 4 C4.04 4 0.08 4 -4 4 C-3.67 3.01 -3.34 2.02 -3 1 C-2.01 0.67 -1.02 0.34 0 0 Z " fill="#555555" transform="translate(203,177)"/>
<path d="M0 0 C0.33 0.99 0.66 1.98 1 3 C0.34 3.66 -0.32 4.32 -1 5 C-1.69748583 6.31747324 -2.36959957 7.64914193 -3 9 C-3.33 6.69 -3.66 4.38 -4 2 C-2.68 1.34 -1.36 0.68 0 0 Z " fill="#323232" transform="translate(356,134)"/>
<path d="M0 0 C2.31 0 4.62 0 7 0 C7 0.66 7 1.32 7 2 C7.66 2.33 8.32 2.66 9 3 C5.625 3.1875 5.625 3.1875 2 3 C1.34 2.01 0.68 1.02 0 0 Z " fill="#919191" transform="translate(347,99)"/>
<path d="M0 0 C0.66 0 1.32 0 2 0 C1.01 2.97 0.02 5.94 -1 9 C-1.66 8.67 -2.32 8.34 -3 8 C-1.125 1.125 -1.125 1.125 0 0 Z " fill="#1B1B1B" transform="translate(164,442)"/>
<path d="M0 0 C2.70272533 2.87164566 3.94791837 4.30991841 4.25 8.3125 C4.1675 9.199375 4.085 10.08625 4 11 C3.67 11 3.34 11 3 11 C3 9.35 3 7.7 3 6 C2.01 5.67 1.02 5.34 0 5 C-0.75 3 -0.75 3 -1 1 C-0.67 0.67 -0.34 0.34 0 0 Z " fill="#282828" transform="translate(329,409)"/>
<path d="M0 0 C0.68707555 2.49064888 1 4.37886292 1 7 C-0.9375 6.1875 -0.9375 6.1875 -3 5 C-3.33 4.01 -3.66 3.02 -4 2 C-2.68 1.34 -1.36 0.68 0 0 Z " fill="#121212" transform="translate(402,400)"/>
<path d="M0 0 C0.99 0.33 1.98 0.66 3 1 C3 3.64 3 6.28 3 9 C1.5 7.875 1.5 7.875 0 6 C-0.1875 2.8125 -0.1875 2.8125 0 0 Z " fill="#1D1D1D" transform="translate(170,387)"/>
<path d="M0 0 C0.33 0.66 0.66 1.32 1 2 C1.66 2 2.32 2 3 2 C2.34 3.65 1.68 5.3 1 7 C0.01 7 -0.98 7 -2 7 C-1.125 2.25 -1.125 2.25 0 0 Z " fill="#1A1A1A" transform="translate(339,277)"/>
<path d="M0 0 C0.99 0.33 1.98 0.66 3 1 C4.125 5.75 4.125 5.75 3 8 C1.68 8 0.36 8 -1 8 C-0.67 7.34 -0.34 6.68 0 6 C1.33333333 3 1.33333333 3 0 0 Z " fill="#0F0F0F" transform="translate(371,271)"/>
<path d="M0 0 C-4.27320453 2.84880302 -6.78168857 4.28990619 -12 4 C-11 2 -11 2 -8.25 0.875 C-5.29813104 0.08026605 -3.02780163 -0.17810598 0 0 Z " fill="#303030" transform="translate(309,91)"/>
<path d="M0 0 C1.5625 1.8125 1.5625 1.8125 3 4 C2.67 4.99 2.34 5.98 2 7 C0.68 6.34 -0.64 5.68 -2 5 C-1.34 3.35 -0.68 1.7 0 0 Z " fill="#242424" transform="translate(404,345)"/>
<path d="M0 0 C0.99 0.33 1.98 0.66 3 1 C1.68 3.31 0.36 5.62 -1 8 C-1.66 7.34 -2.32 6.68 -3 6 C-2.01 4.02 -1.02 2.04 0 0 Z " fill="#1D1D1D" transform="translate(323,304)"/>
<path d="M0 0 C0 0.99 0 1.98 0 3 C-2.31 2.67 -4.62 2.34 -7 2 C-7 1.34 -7 0.68 -7 0 C-4.3333581 -1.33332095 -2.83319697 -0.67102033 0 0 Z " fill="#090909" transform="translate(148,305)"/>
<path d="M0 0 C0.66 0.33 1.32 0.66 2 1 C2.625 4.0625 2.625 4.0625 3 7 C2.01 7.495 2.01 7.495 1 8 C-0.42944945 5.64561267 -1.08661261 4.51967567 -0.625 1.75 C-0.41875 1.1725 -0.2125 0.595 0 0 Z " fill="#212121" transform="translate(379,291)"/>
<path d="M0 0 C0.99 0.33 1.98 0.66 3 1 C1.7260411 3.03833424 0.38938077 5.03852126 -1 7 C-1.66 7 -2.32 7 -3 7 C-1.125 2.25 -1.125 2.25 0 0 Z " fill="#171717" transform="translate(333,288)"/>
<path d="M0 0 C0 0.66 0 1.32 0 2 C-0.66 2 -1.32 2 -2 2 C-2.66 3.65 -3.32 5.3 -4 7 C-4.33 6.34 -4.66 5.68 -5 5 C-5.66 4.67 -6.32 4.34 -7 4 C-6.01 3.67 -5.02 3.34 -4 3 C-4 2.34 -4 1.68 -4 1 C-2 0 -2 0 0 0 Z " fill="#282828" transform="translate(219,216)"/>
<path d="M0 0 C2.17766075 4.35532149 2.03039555 5.46625958 1 10 C0.34 9.67 -0.32 9.34 -1 9 C-0.67 6.03 -0.34 3.06 0 0 Z " fill="#0C0C0C" transform="translate(197,180)"/>
<path d="M0 0 C1.65 0 3.3 0 5 0 C5.66 1.65 6.32 3.3 7 5 C6.01 5 5.02 5 4 5 C1.8125 2.5 1.8125 2.5 0 0 Z " fill="#202020" transform="translate(455,446)"/>
<path d="M0 0 C-0.33 0.66 -0.66 1.32 -1 2 C-2.98 2 -4.96 2 -7 2 C-7 1.34 -7 0.68 -7 0 C-4.3333581 -1.33332095 -2.83319697 -0.67102033 0 0 Z " fill="#1E1E1E" transform="translate(478,428)"/>
<path d="M0 0 C2.9719385 1.12451727 5.33440687 2.22293791 8 4 C5.39417629 4.93065133 4.35801776 5.14917407 1.75 4.0625 C1.1725 3.711875 0.595 3.36125 0 3 C0 2.01 0 1.02 0 0 Z " fill="#1D1D1D" transform="translate(453,402)"/>
<path d="M0 0 C0.66 0 1.32 0 2 0 C2.66 2.31 3.32 4.62 4 7 C3.01 7 2.02 7 1 7 C0.67 4.69 0.34 2.38 0 0 Z " fill="#242424" transform="translate(384,306)"/>
<path d="M0 0 C3.465 1.485 3.465 1.485 7 3 C6.67 3.99 6.34 4.98 6 6 C2.535 4.02 2.535 4.02 -1 2 C-0.67 1.34 -0.34 0.68 0 0 Z " fill="#202020" transform="translate(193,215)"/>
<path d="M0 0 C0.66 0 1.32 0 2 0 C1.38461538 6.52307692 1.38461538 6.52307692 -0.5625 8.9375 C-1.036875 9.288125 -1.51125 9.63875 -2 10 C-2.33 9.01 -2.66 8.02 -3 7 C-2.01 6.67 -1.02 6.34 0 6 C0 4.02 0 2.04 0 0 Z " fill="#1F1F1F" transform="translate(146,193)"/>
<path d="M0 0 C0.33 0 0.66 0 1 0 C1 1.98 1 3.96 1 6 C0.34 6 -0.32 6 -1 6 C-1.33 6.99 -1.66 7.98 -2 9 C-2.25 3.375 -2.25 3.375 0 0 Z " fill="#0A0A0A" transform="translate(126,139)"/>
<path d="M0 0 C0.33 0 0.66 0 1 0 C1.75 2.75 1.75 2.75 2 6 C0.0625 8.375 0.0625 8.375 -2 10 C-2 9.34 -2 8.68 -2 8 C-2.66 7.67 -3.32 7.34 -4 7 C-2.68 6.67 -1.36 6.34 0 6 C0 4.02 0 2.04 0 0 Z " fill="#393939" transform="translate(366,82)"/>
<path d="M0 0 C1.11375 0.1546875 1.11375 0.1546875 2.25 0.3125 C0.08312509 2.58771866 -2.20620509 4.47044162 -4.75 6.3125 C-5.41 5.9825 -6.07 5.6525 -6.75 5.3125 C-3.42692308 0.38942308 -3.42692308 0.38942308 0 0 Z " fill="#575757" transform="translate(337.75,62.6875)"/>
</svg>
