<?xml version="1.0" encoding="UTF-8"?>
<svg version="1.1" xmlns="http://www.w3.org/2000/svg" width="512" height="512">
<path d="M0 0 C2.80271065 1.30222326 5.45387184 2.7498355 8.13037109 4.29443359 C9.12012939 4.83801514 10.1098877 5.38159668 11.12963867 5.94165039 C13.18308204 7.0719817 15.23072339 8.21291671 17.27246094 9.36425781 C20.92475707 11.42147683 24.6068251 13.4204461 28.29199219 15.41796875 C31.00144776 16.88873051 33.70484888 18.37019511 36.40771484 19.85302734 C42.91840567 23.41598643 49.46056907 26.9196496 56.00537109 30.41943359 C58.39342147 31.69672212 60.78144049 32.97406924 63.16943359 34.25146484 C63.76084641 34.56779877 64.35225922 34.88413269 64.96159363 35.21005249 C74.3311777 40.2232326 83.68312114 45.26925481 93.03759766 50.31054688 C98.44282546 53.22313624 103.84915677 56.13367589 109.25537109 59.04443359 C111.42204299 60.21109056 113.58870965 61.37775722 115.75537109 62.54443359 C117.36412109 63.41068359 117.36412109 63.41068359 119.00537109 64.29443359 C130.92203776 70.71110026 142.83870443 77.12776693 154.75537109 83.54443359 C155.82916016 84.12257813 156.90294922 84.70072266 158.00927734 85.29638672 C160.16309065 86.45623203 162.31673813 87.61638533 164.47021484 88.77685547 C169.49035409 91.48164564 174.51195284 94.18357173 179.53979492 96.87402344 C181.3060801 97.81937283 183.07174344 98.76588375 184.83740234 99.71240234 C187.04205678 100.89409712 189.24771333 102.07392512 191.45458984 103.25146484 C211.82249161 114.17867463 211.82249161 114.17867463 215.25537109 121.04443359 C215.76039452 126.57485412 215.99344366 131.45473883 213.63037109 136.54443359 C210.24349108 140.10957045 207.67081988 142.74082478 202.70703125 143.36474609 C199.75514715 143.43756969 196.83140412 143.39343599 193.88037109 143.29443359 C192.85814453 143.27638672 191.83591797 143.25833984 190.78271484 143.23974609 C188.27262361 143.1928285 185.76449345 143.12720089 183.25537109 143.04443359 C183.26425354 143.90807526 183.27313599 144.77171692 183.2822876 145.66152954 C183.36253449 153.8123494 183.42338674 161.96303601 183.46261978 170.11416054 C183.48346828 174.30446898 183.51173526 178.49445018 183.55712891 182.68457031 C183.60068529 186.73055601 183.62452879 190.77622754 183.63488007 194.82242966 C183.64225396 196.36378294 183.65665367 197.90511961 183.67829132 199.44633865 C183.7074572 201.61043295 183.71132185 203.77323985 183.70947266 205.9375 C183.7183551 207.16771881 183.72723755 208.39793762 183.73638916 209.66543579 C182.99980007 214.83973818 180.47401945 217.88671766 176.75537109 221.41943359 C171.59037101 223.81746935 166.85514229 223.79824895 161.25537109 223.04443359 C155.8032354 220.51308488 154.779373 218.33043645 151.25537109 213.04443359 C151.25537109 189.94443359 151.25537109 166.84443359 151.25537109 143.04443359 C45.65537109 143.04443359 -59.94462891 143.04443359 -168.74462891 143.04443359 C-168.74462891 232.80443359 -168.74462891 322.56443359 -168.74462891 415.04443359 C-63.14462891 415.04443359 42.45537109 415.04443359 151.25537109 415.04443359 C151.25537109 397.22443359 151.25537109 379.40443359 151.25537109 361.04443359 C156.42778489 353.2858129 156.42778489 353.2858129 161.25537109 351.04443359 C166.85514229 350.29061824 171.59037101 350.27139784 176.75537109 352.66943359 C180.56336088 356.28702389 183.00929533 359.31663993 183.76330566 364.61083984 C183.76648804 365.92955078 183.76967041 367.24826172 183.77294922 368.60693359 C183.78346313 369.70569824 183.78346313 369.70569824 183.79418945 370.82666016 C183.81170506 373.23297742 183.80017064 375.63810568 183.78662109 378.04443359 C183.78931788 379.72542546 183.79320186 381.4064158 183.79821777 383.08740234 C183.80410407 386.60448102 183.79557818 390.12115239 183.77685547 393.63818359 C183.7540661 398.13745548 183.7671939 402.63577286 183.79114532 407.13500977 C183.805627 410.60440206 183.80098653 414.07356954 183.79063416 417.54296875 C183.7879734 419.20149856 183.79121366 420.86004904 183.80055237 422.51855469 C183.81075756 424.8402278 183.79516388 427.1603737 183.77294922 429.48193359 C183.76976685 430.80064453 183.76658447 432.11935547 183.76330566 433.47802734 C182.98706824 438.9282923 180.80659108 441.83435539 176.50934601 445.18655729 C172.90413225 447.2449755 170.95876279 447.54537241 166.84912109 447.54779816 C165.57291901 447.55822915 164.29671692 447.56866014 162.98184204 447.57940722 C161.5730161 447.57075975 160.16419245 447.56173315 158.75537109 447.55236816 C157.25303544 447.55697812 155.75070429 447.56333168 154.24838257 447.57127714 C150.12322663 447.58798079 145.99844068 447.57971951 141.87328339 447.56733227 C137.42330921 447.5582883 132.973399 447.57224825 128.5234375 447.58325195 C119.80721642 447.60104875 111.09113304 447.59719202 102.37490654 447.58560139 C95.29175561 447.57657191 88.20864331 447.57534097 81.12548828 447.57969666 C80.11780207 447.58030959 79.11011585 447.58092252 78.07189369 447.58155403 C76.02486927 447.58283291 73.97784486 447.58412977 71.93082047 447.58544439 C52.73087018 447.59685359 33.53099626 447.58373115 14.3310585 447.56224293 C-2.14733388 447.54437164 -18.62561356 447.54747565 -35.10400391 447.56591797 C-54.23472958 447.58731867 -73.3653883 447.59575492 -92.49612427 447.58346891 C-94.53566487 447.5821947 -96.57520547 447.58093722 -98.61474609 447.57969666 C-100.120029 447.578771 -100.120029 447.578771 -101.65572166 447.57782665 C-108.73127218 447.57437135 -115.80678027 447.58020597 -122.88232422 447.58961487 C-131.50377156 447.60082733 -140.12507321 447.59781065 -148.74650383 447.57649189 C-153.14624934 447.56597134 -157.54575183 447.56187672 -161.94549561 447.5750885 C-165.97226077 447.58699751 -169.99855741 447.58047479 -174.02528 447.55917829 C-175.48279736 447.55470586 -176.9403542 447.55699292 -178.39784622 447.56668144 C-180.37799649 447.57883574 -182.35825748 447.5639826 -184.33837891 447.54779816 C-185.43859375 447.54714875 -186.53880859 447.54649934 -187.67236328 447.54583025 C-192.62095588 446.73821526 -195.72701538 444.13251481 -199.08956528 440.5371151 C-201.51692938 435.41464756 -201.28358611 430.76312414 -201.22564697 425.16152954 C-201.22906467 423.9558386 -201.23248237 422.75014766 -201.23600364 421.50792062 C-201.24144744 418.1690625 -201.22896997 414.83114511 -201.20889139 411.49240088 C-201.19160046 407.88920113 -201.19746425 404.28602987 -201.20050049 400.68280029 C-201.20259682 394.44261433 -201.19005815 388.20259579 -201.16754913 381.96245193 C-201.13502628 372.94030596 -201.12462183 363.91824087 -201.11959717 354.89604263 C-201.11084496 340.25779764 -201.0842314 325.61964187 -201.04638672 310.98144531 C-201.00966471 296.76269985 -200.98135388 282.54397863 -200.96435547 268.32519531 C-200.96330457 267.44859495 -200.96225368 266.57199459 -200.96117094 265.66883059 C-200.95595075 261.2711376 -200.95089593 256.87344444 -200.94592333 252.47575116 C-200.9044636 215.99858232 -200.83401719 179.5215149 -200.74462891 143.04443359 C-201.37965332 143.06538086 -202.01467773 143.08632812 -202.66894531 143.10791016 C-205.56900967 143.1914794 -208.46882006 143.24322133 -211.36962891 143.29443359 C-212.36865234 143.32794922 -213.36767578 143.36146484 -214.39697266 143.39599609 C-220.55692176 143.47758482 -224.06090677 143.1577024 -228.74462891 139.04443359 C-232.37296554 135.22513187 -233.05463349 132.16164353 -233.24462891 127.04443359 C-233.03403163 121.87522779 -232.46707269 118.85766869 -228.74462891 115.04443359 C-222.28883741 110.21174279 -215.22820417 106.55674895 -208.05712891 102.91943359 C-199.96213703 98.76227277 -191.90767946 94.55165307 -183.93212891 90.16943359 C-175.64559886 85.62020351 -167.33090083 81.1268662 -158.99462891 76.66943359 C-156.6065679 75.39216495 -154.21855419 74.11480789 -151.83056641 72.83740234 C-151.23916367 72.52107346 -150.64776093 72.20474457 -150.03843689 71.87882996 C-143.89298493 68.59071996 -137.75559535 65.28770177 -131.61962891 61.98193359 C-130.55518555 61.40846191 -129.49074219 60.83499023 -128.39404297 60.24414062 C-126.25012054 59.08894554 -124.10624023 57.93367229 -121.96240234 56.77832031 C-116.55717454 53.86573094 -111.15084323 50.9551913 -105.74462891 48.04443359 C-103.57795701 46.87777663 -101.41129035 45.71110997 -99.24462891 44.54443359 C-86.24462891 37.54443359 -73.24462891 30.54443359 -60.24462891 23.54443359 C-59.17100098 22.96580566 -58.09737305 22.38717773 -56.99121094 21.79101562 C-54.83769202 20.63247492 -52.68243135 19.47716564 -50.52539062 18.32519531 C-45.48563765 15.62873296 -40.46920398 12.90584745 -35.51177979 10.06011963 C-33.76570832 9.05984632 -32.01401895 8.07020832 -30.26025391 7.08349609 C-28.06876265 5.84636394 -25.88809525 4.58976856 -23.72119141 3.31005859 C-15.83011093 -1.10325188 -8.80107467 -3.06417063 0 0 Z M-16.60400391 37.56005859 C-17.29595856 37.92691269 -17.98791321 38.29376678 -18.70083618 38.67173767 C-20.9676784 39.87513377 -23.23120358 41.08462472 -25.49462891 42.29443359 C-27.0617299 43.12839759 -28.62895055 43.96213677 -30.19628906 44.7956543 C-39.38878799 49.69020126 -48.55505637 54.63116064 -57.68603516 59.63964844 C-64.93110425 63.61217974 -72.20852526 67.52276255 -79.49462891 71.41943359 C-81.88266155 72.69675527 -84.27068948 73.97408574 -86.65869141 75.25146484 C-87.25004883 75.56776855 -87.84140625 75.88407227 -88.45068359 76.20996094 C-95.65802545 80.06624407 -102.85557795 83.94070844 -110.04907227 87.82275391 C-115.07573287 90.53478396 -120.10551677 93.24032131 -125.14892578 95.92106628 C-126.95561173 96.88172866 -128.76116939 97.84447905 -130.56640625 98.80786133 C-132.83665344 100.01856456 -135.10900879 101.22532579 -137.38378906 102.42749023 C-138.917854 103.24721313 -138.917854 103.24721313 -140.48291016 104.08349609 C-141.82929565 104.79820068 -141.82929565 104.79820068 -143.20288086 105.52734375 C-146.27575963 107.28319492 -146.27575963 107.28319492 -150.74462891 111.04443359 C-57.02462891 111.04443359 36.69537109 111.04443359 133.25537109 111.04443359 C129.79100619 108.27294167 127.30625971 106.38120954 123.50927734 104.45068359 C122.60153564 103.98428467 121.69379395 103.51788574 120.75854492 103.03735352 C119.78812256 102.54468994 118.8177002 102.05202637 117.81787109 101.54443359 C110.01622655 97.53006684 102.2579297 93.45630113 94.56787109 89.23193359 C86.2391532 84.66294211 77.88249896 80.14904015 69.50537109 75.66943359 C67.11732072 74.39214507 64.7293017 73.11479794 62.34130859 71.83740234 C61.74989578 71.52106842 61.15848297 71.2047345 60.54914856 70.8788147 C51.2015197 65.87738169 41.87156911 60.84304777 32.5390625 55.81347656 C29.1052568 53.96356161 25.67066157 52.11511727 22.23583984 50.26708984 C21.07777832 49.64390869 19.9197168 49.02072754 18.7265625 48.37866211 C16.53234271 47.19794493 14.33801534 46.01742765 12.14355469 44.8371582 C11.14018066 44.29712158 10.13680664 43.75708496 9.10302734 43.20068359 C8.1363916 42.68119141 7.16975586 42.16169922 6.17382812 41.62646484 C4.15299983 40.53101835 2.13873814 39.42340355 0.12988281 38.30615234 C-0.86124512 37.75572266 -1.85237305 37.20529297 -2.87353516 36.63818359 C-3.76242432 36.13996094 -4.65131348 35.64173828 -5.56713867 35.12841797 C-9.88685347 32.97800495 -12.706648 35.47124501 -16.60400391 37.56005859 Z " fill="#000000" transform="translate(264.74462890625,32.95556640625)"/>
<path d="M0 0 C0.96907791 0.47804077 1.93815582 0.95608154 2.93659973 1.4486084 C6.106106 3.01980455 9.25707507 4.62471555 12.40844727 6.23193359 C14.62049466 7.3402669 16.8334054 8.44687864 19.0471344 9.55184937 C23.66996377 11.86569238 28.28421753 14.19556331 32.89257812 16.53808594 C38.79321148 19.5366632 44.71010789 22.50129099 50.63329983 25.45501137 C55.19845453 27.73465306 59.75635903 30.02847775 64.31202888 32.32700729 C66.49150043 33.42534908 68.67277848 34.52011388 70.85589409 35.61119461 C73.90464439 37.13845787 76.94356764 38.6837122 79.98046875 40.234375 C80.87871368 40.68034027 81.77695862 41.12630554 82.7024231 41.58578491 C88.49258346 44.57481165 92.54903808 47.52874023 95.53735352 53.50537109 C95.63858134 55.13885753 95.67679451 56.77642316 95.68452454 58.4130249 C95.69525749 59.96917511 95.69525749 59.96917511 95.70620728 61.5567627 C95.70889618 62.69963745 95.71158508 63.84251221 95.71435547 65.02001953 C95.72092667 66.22011658 95.72749786 67.42021362 95.73426819 68.65667725 C95.75403812 72.6427027 95.76567228 76.62868786 95.77563477 80.61474609 C95.77968232 81.98718537 95.78379924 83.35962444 95.78798485 84.73206329 C95.80703926 91.18094378 95.82126881 97.62981281 95.82959682 104.07871604 C95.83936559 111.52035696 95.86567429 118.96170013 95.90609771 126.40323615 C95.9362747 132.15619144 95.95106724 137.90906147 95.95437783 143.66209435 C95.9567269 147.09747284 95.96566763 150.53253334 95.990839 153.96782684 C96.01848593 157.80302923 96.01428371 161.63784125 96.00732422 165.47314453 C96.02653931 167.17531128 96.02653931 167.17531128 96.04614258 168.91186523 C96.00646787 174.90386891 95.89593881 178.98825998 91.53735352 183.50537109 C86.22279007 187.50909257 80.10694043 190.38782209 74.19067383 193.38745117 C73.2919455 193.84659912 72.39321716 194.30574707 71.46725464 194.77880859 C68.51918833 196.28253473 65.56789965 197.77974573 62.61547852 199.27490234 C61.60073204 199.78884741 60.58598557 200.30279247 59.5404892 200.83231163 C54.17374869 203.54815201 48.80382716 206.25760017 43.43188477 208.96313477 C39.00263418 211.19559695 34.58060509 213.44148985 30.16430664 215.69946289 C24.81001458 218.43691992 19.44422988 221.150451 14.0694809 223.84750938 C12.0321252 224.87471763 9.99886988 225.91010306 7.97000885 226.95398903 C5.12479344 228.41568847 2.26573502 229.84605184 -0.59838867 231.27026367 C-1.8332753 231.9177079 -1.8332753 231.9177079 -3.09310913 232.57823181 C-10.26084629 236.07480178 -17.37441654 237.03702989 -25.11432838 234.7071619 C-27.79522265 233.59495568 -30.3483977 232.34603926 -32.92529297 231.01074219 C-33.89437088 230.53270142 -34.86344879 230.05466064 -35.8618927 229.56213379 C-39.03139897 227.99093763 -42.18236804 226.38602664 -45.33374023 224.77880859 C-47.54578763 223.67047529 -49.75869837 222.56386355 -51.97242737 221.45889282 C-56.59525674 219.14504981 -61.2095105 216.81517888 -65.81787109 214.47265625 C-71.71850445 211.47407899 -77.63540086 208.5094512 -83.5585928 205.55573082 C-88.1237475 203.27608913 -92.681652 200.98226444 -97.23732185 198.68373489 C-99.4167934 197.58539311 -101.59807145 196.4906283 -103.78118706 195.39954758 C-106.82993735 193.87228432 -109.86886061 192.32702999 -112.90576172 190.77636719 C-113.80400665 190.33040192 -114.70225159 189.88443665 -115.62771606 189.42495728 C-121.41787643 186.43593054 -125.47433105 183.48200196 -128.46264648 177.50537109 C-128.56387431 175.87188465 -128.60208748 174.23431903 -128.6098175 172.59771729 C-128.61697281 171.56028381 -128.62412811 170.52285034 -128.63150024 169.45397949 C-128.63418915 168.31110474 -128.63687805 167.16822998 -128.63964844 165.99072266 C-128.64621964 164.79062561 -128.65279083 163.59052856 -128.65956116 162.35406494 C-128.67933109 158.36803949 -128.69096524 154.38205433 -128.70092773 150.39599609 C-128.70497529 149.02355682 -128.70909221 147.65111775 -128.71327782 146.27867889 C-128.73233223 139.82979841 -128.74656178 133.38092938 -128.75488979 126.93202615 C-128.76465856 119.49038523 -128.79096726 112.04904206 -128.83139068 104.60750604 C-128.86156767 98.85455075 -128.87636021 93.10168072 -128.8796708 87.34864783 C-128.88201987 83.91326935 -128.8909606 80.47820885 -128.91613197 77.04291534 C-128.9437789 73.20771296 -128.93957668 69.37290094 -128.93261719 65.53759766 C-128.94542725 64.40281982 -128.9582373 63.26804199 -128.97143555 62.09887695 C-128.93176083 56.10687328 -128.82123178 52.02248221 -124.46264648 47.50537109 C-119.14808304 43.50164962 -113.0322334 40.6229201 -107.1159668 37.62329102 C-106.21723846 37.16414307 -105.31851013 36.70499512 -104.39254761 36.23193359 C-101.4444813 34.72820746 -98.49319262 33.23099646 -95.54077148 31.73583984 C-94.52602501 31.22189478 -93.51127853 30.70794971 -92.46578217 30.17843056 C-87.09904166 27.46259017 -81.72912012 24.75314201 -76.35717773 22.04760742 C-71.92792714 19.81514523 -67.50589805 17.56925234 -63.08959961 15.3112793 C-57.73530755 12.57382227 -52.36952285 9.86029119 -46.99477386 7.1632328 C-44.95741817 6.13602456 -42.92416285 5.10063913 -40.89530182 4.05675316 C-38.05008641 2.59505372 -35.19102799 1.16469035 -32.3269043 -0.25952148 C-31.50364655 -0.69115097 -30.68038879 -1.12278046 -29.83218384 -1.56748962 C-19.26969505 -6.72008943 -10.14878954 -5.2589056 0 0 Z M-24.05737305 33.07568359 C-25.17823303 33.63626465 -26.29909302 34.1968457 -27.45391846 34.77441406 C-28.67045625 35.39289573 -29.8869052 36.01155219 -31.10327148 36.63037109 C-32.35273771 37.25883568 -33.60255986 37.88659309 -34.85272217 38.51367188 C-38.13766404 40.16376874 -41.4176869 41.82341966 -44.69677734 43.48510742 C-48.04550296 45.17995111 -51.39879226 46.86571343 -54.75170898 48.55224609 C-61.32652141 51.86108384 -67.89616364 55.18002826 -74.46264648 58.50537109 C-74.46264648 59.16537109 -74.46264648 59.82537109 -74.46264648 60.50537109 C-67.27429556 64.19231847 -60.0774074 67.86179171 -52.86903954 71.50942326 C-49.52198482 73.20380573 -46.17816094 74.90399681 -42.84106445 76.61791992 C-39.61909729 78.27243618 -36.38951285 79.91109063 -33.15410233 81.53915215 C-31.92252397 82.16231945 -30.69377096 82.79110398 -29.4679985 83.42561531 C-27.74777035 84.31485637 -26.01627273 85.18219265 -24.28442383 86.04858398 C-23.30291351 86.54822159 -22.3214032 87.04785919 -21.31015015 87.56263733 C-16.91365034 89.01820308 -13.88458813 88.09295009 -9.69107056 86.36009216 C-8.27209976 85.64394493 -8.27209976 85.64394493 -6.82446289 84.91333008 C-5.20346176 84.10260292 -5.20346176 84.10260292 -3.54971313 83.27549744 C-2.39949677 82.69006668 -1.2492804 82.10463593 -0.06420898 81.50146484 C1.13755706 80.89684749 2.3396808 80.29294063 3.54214478 79.68971252 C6.69226156 78.10705074 9.83745217 76.51483561 12.98168945 74.92053223 C16.19652426 73.29258509 19.41595876 71.67378863 22.63500977 70.05419922 C28.94030383 66.88016049 35.24043543 63.69599892 41.53735352 60.50537109 C41.53735352 59.84537109 41.53735352 59.18537109 41.53735352 58.50537109 C34.30967338 54.84519031 27.0777115 51.19367208 19.84012222 47.5531311 C16.47955251 45.8624091 13.12053601 44.16874291 9.76489258 42.46826172 C6.52644911 40.82730914 3.28415948 39.19420493 0.03905487 37.56646729 C-1.19830756 36.94409075 -2.4342583 36.31889936 -3.66875458 35.69085693 C-5.39804763 34.81169308 -7.13287462 33.94344008 -8.86791992 33.07568359 C-9.85387146 32.5782666 -10.839823 32.08084961 -11.85565186 31.56835938 C-16.71825618 29.58565816 -19.62601139 30.84004167 -24.05737305 33.07568359 Z M-96.46264648 86.50537109 C-96.46264648 111.25537109 -96.46264648 136.00537109 -96.46264648 161.50537109 C-86.27389648 166.62037109 -76.08514648 171.73537109 -65.58764648 177.00537109 C-62.36901855 178.62378906 -59.15039062 180.24220703 -55.83422852 181.90966797 C-52.95252202 183.35386521 -52.95252202 183.35386521 -50.07028198 184.79699707 C-48.78463181 185.44135989 -47.49977605 186.08730922 -46.21554565 186.73449707 C-44.272572 187.71327573 -42.32715391 188.68702431 -40.38110352 189.65966797 C-39.2841214 190.21037964 -38.18713928 190.76109131 -37.05691528 191.32849121 C-34.63387698 192.64307911 -34.63387698 192.64307911 -32.46264648 192.50537109 C-32.46264648 167.75537109 -32.46264648 143.00537109 -32.46264648 117.50537109 C-42.65139648 112.39037109 -52.84014648 107.27537109 -63.33764648 102.00537109 C-66.55627441 100.38695312 -69.77490234 98.76853516 -73.09106445 97.10107422 C-75.97277095 95.65687698 -75.97277095 95.65687698 -78.85501099 94.21374512 C-80.14066116 93.5693823 -81.42551692 92.92343296 -82.70974731 92.27624512 C-84.65272096 91.29746646 -86.59813905 90.32371788 -88.54418945 89.35107422 C-89.64117157 88.80036255 -90.73815369 88.24965088 -91.86837769 87.68225098 C-94.29141599 86.36766308 -94.29141599 86.36766308 -96.46264648 86.50537109 Z M55.61889648 89.35107422 C55.0040999 89.65835197 54.38930332 89.96562973 53.75587654 90.28221893 C51.76187582 91.279967 49.77068418 92.28318459 47.77954102 93.28662109 C46.55063706 93.90254293 45.32155295 94.51810543 44.09228516 95.13330078 C39.53012036 97.41963096 34.97144947 99.71292755 30.41235352 102.00537109 C20.22360352 107.12037109 10.03485352 112.23537109 -0.46264648 117.50537109 C-0.46264648 142.25537109 -0.46264648 167.00537109 -0.46264648 192.50537109 C3.88039614 191.05769022 7.5084596 189.64215188 11.54272461 187.61621094 C12.71955811 187.02767334 13.8963916 186.43913574 15.10888672 185.83276367 C16.34290864 185.21071874 17.57687722 184.58856797 18.81079102 183.96630859 C19.94492432 183.39823486 21.07905762 182.83016113 22.24755859 182.24487305 C26.47135605 180.12775418 30.69164782 178.00364704 34.91235352 175.88037109 C44.35860352 171.13662109 53.80485352 166.39287109 63.53735352 161.50537109 C63.53735352 136.75537109 63.53735352 112.00537109 63.53735352 86.50537109 C60.47650943 86.50537109 58.34389145 87.98306055 55.61889648 89.35107422 Z " fill="#000000" transform="translate(240.462646484375,196.49462890625)"/>
<path d="M0 0 C4.8846525 2.26787438 7.73212562 5.1153475 10 10 C10.76765612 15.70258831 10.8217584 20.38481969 8.1875 25.5625 C6.50302391 27.43948765 4.79162136 29.22891298 3 31 C3.75088898 31.00364563 4.50177795 31.00729126 5.27542114 31.01104736 C12.3670046 31.04898281 19.45812601 31.10589794 26.54936409 31.18390274 C30.19471102 31.22333889 33.83981781 31.25554588 37.48535156 31.27099609 C41.00643076 31.28618879 44.52684959 31.32067882 48.04763412 31.36830902 C50.03825582 31.39027132 52.02906394 31.39247149 54.01980591 31.39434814 C65.24209917 31.57561119 65.24209917 31.57561119 70 36 C73.62833663 39.81930172 74.31000458 42.88279006 74.5 48 C74.25795672 54.51903235 72.4827958 57.6912394 67.72216797 62.11816406 C62.5525836 65.45303859 55.98495674 64.60379933 50.0703125 64.609375 C48.71123292 64.62436957 47.35217148 64.6410994 45.99313354 64.65948486 C42.43232347 64.7030285 38.87175914 64.72312814 35.31072998 64.73822021 C31.67054796 64.75783863 28.03062953 64.79980309 24.390625 64.83984375 C17.26051735 64.91500444 10.13042918 64.96538116 3 65 C3.42152344 65.48210937 3.84304688 65.96421875 4.27734375 66.4609375 C5.09912109 67.40839844 5.09912109 67.40839844 5.9375 68.375 C6.48277344 69.00148438 7.02804687 69.62796875 7.58984375 70.2734375 C11.27515981 74.78565274 10.51573399 80.45041169 10 86 C7.73212562 90.8846525 4.8846525 93.73212562 0 96 C-6.2001558 96.83463636 -11.0133045 96.99831894 -16.27770996 93.34606934 C-19.76709763 90.61891094 -22.83486034 87.44863412 -25.953125 84.3125 C-27.06527374 83.20322144 -27.06527374 83.20322144 -28.19989014 82.0715332 C-29.75876596 80.51401325 -31.31513951 78.95398525 -32.86914062 77.39160156 C-35.24908972 75.00091439 -37.63955579 72.62111816 -40.03125 70.2421875 C-41.54751695 68.72459945 -43.06316364 67.20639138 -44.578125 65.6875 C-45.2926886 64.97698486 -46.0072522 64.26646973 -46.74346924 63.53442383 C-47.40465759 62.86693115 -48.06584595 62.19943848 -48.74707031 61.51171875 C-49.32853821 60.92865967 -49.9100061 60.34560059 -50.50909424 59.74487305 C-53.6783952 56.03569976 -54.31355315 52.95472245 -54.375 48.125 C-54.40335937 47.11695313 -54.43171875 46.10890625 -54.4609375 45.0703125 C-53.3852156 37.90491071 -47.23095224 32.93730226 -42.3125 28.046875 C-41.57298096 27.3054425 -40.83346191 26.56401001 -40.0715332 25.80010986 C-38.51401325 24.24123404 -36.95398525 22.68486049 -35.39160156 21.13085938 C-33.00091439 18.75091028 -30.62111816 16.36044421 -28.2421875 13.96875 C-26.72459945 12.45248305 -25.20639138 10.93683636 -23.6875 9.421875 C-22.97698486 8.7073114 -22.26646973 7.9927478 -21.53442383 7.25653076 C-20.86693115 6.59534241 -20.19943848 5.93415405 -19.51171875 5.25292969 C-18.92865967 4.67146179 -18.34560059 4.0899939 -17.74487305 3.49090576 C-12.47667871 -1.01049983 -6.62819829 -0.71079874 0 0 Z " fill="#000000" transform="translate(406,272)"/>
</svg>
