<?xml version="1.0" encoding="UTF-8"?>
<svg version="1.1" xmlns="http://www.w3.org/2000/svg" width="512" height="512">
<path d="M0 0 C0.6815918 0.21430664 1.36318359 0.42861328 2.06542969 0.64941406 C16.29351879 5.23201941 28.68612402 12.18713576 40 22 C40.80824219 22.66386719 41.61648438 23.32773437 42.44921875 24.01171875 C62.63859101 41.15842267 75.81374274 66.75985723 79 93 C79.31167763 97.8577634 79.3818035 102.69552175 79.375 107.5625 C79.37418427 108.55120087 79.37418427 108.55120087 79.37335205 109.55987549 C79.33178571 120.54768911 78.37184491 130.54857267 75 141 C74.68651611 142.01441162 74.68651611 142.01441162 74.36669922 143.04931641 C69.72457694 157.74763165 61.99154065 170.31461447 52 182 C51.52304687 182.60972656 51.04609375 183.21945313 50.5546875 183.84765625 C44.30337016 191.68859429 36.02431894 197.49996268 27.6875 202.9375 C27.11322266 203.31503418 26.53894531 203.69256836 25.94726562 204.08154297 C22.39914963 206.33560391 18.99145595 207.73735747 15 209 C15.00368717 209.74176043 15.00737434 210.48352085 15.01117325 211.24775887 C15.0995294 229.30049162 15.16571209 247.35318118 15.20724869 265.40608406 C15.22786965 274.13636162 15.25598128 282.8664948 15.30175781 291.59667969 C15.34163992 299.20635095 15.36743621 306.81591766 15.37635398 314.42569053 C15.38156643 318.45466232 15.39380764 322.48333497 15.42292023 326.51221085 C15.45011121 330.30596663 15.45843768 334.09930063 15.45243073 337.89314461 C15.45352933 339.28389721 15.46146168 340.6746642 15.4768219 342.06533241 C15.61335588 355.06666122 15.61335588 355.06666122 11 360 C4.56991065 365.76432779 -4.93232403 368.79027484 -12.75 372.3125 C-14.31054515 373.02072274 -15.87092598 373.72930766 -17.43115234 374.43823242 C-28.87232526 379.62743288 -40.35710091 384.71756227 -51.8482666 389.79483032 C-65.00437662 395.61181321 -78.05909918 401.63382051 -91.09701538 407.71038818 C-104.79961283 414.0936048 -118.56170043 420.32469181 -132.40429688 426.3984375 C-139.18999371 429.38103134 -145.934551 432.41166065 -152.59765625 435.66015625 C-154.35831421 436.50912476 -154.35831421 436.50912476 -156.15454102 437.37524414 C-158.29120447 438.41293627 -160.41911439 439.4689842 -162.53491211 440.54858398 C-169.92916673 444.12531339 -176.79047857 446.01534959 -184.86401367 443.39501953 C-190.05754977 441.41646829 -195.01601122 438.94787681 -200 436.5 C-201.63574153 435.71845895 -203.27281578 434.93970183 -204.91113281 434.16357422 C-207.44252766 432.96435153 -209.973176 431.76384638 -212.50006104 430.55514526 C-220.12000465 426.91382523 -227.82226441 423.47940038 -235.5559082 420.08789062 C-250.16113632 413.6782968 -264.6455777 407.02568568 -279.10159302 400.287323 C-290.50055471 394.97652687 -301.93419652 389.76022513 -313.4382019 384.68084717 C-319.96397241 381.79890117 -326.48252108 378.90063826 -333 376 C-333.7226001 375.67884216 -334.4452002 375.35768433 -335.18969727 375.02679443 C-339.45464236 373.1290667 -343.71122908 371.21438197 -347.95742798 369.27505493 C-349.25749926 368.68409887 -350.55999743 368.09844727 -351.86508179 367.51864624 C-365.20886572 361.58226856 -365.20886572 361.58226856 -369 354 C-369.10468236 351.14145244 -369.14779401 348.30690191 -369.14717102 345.44781494 C-369.15084771 344.55195797 -369.1545244 343.65610099 -369.1583125 342.73309684 C-369.1693789 339.71300938 -369.17319817 336.69295629 -369.17700195 333.67285156 C-369.18326436 331.51483042 -369.18991096 329.35681037 -369.19691467 327.1987915 C-369.21434485 321.32266517 -369.22488187 315.44654699 -369.2331202 309.57040119 C-369.23826594 305.90154439 -369.24434185 302.23269015 -369.25063133 298.56383514 C-369.26968878 287.09168335 -369.2839189 275.61953802 -369.2922433 264.14737344 C-369.30201964 250.89197927 -369.32834734 237.63675192 -369.36874419 224.38141656 C-369.39887485 214.14442305 -369.41370927 203.90747744 -369.41702431 193.67044044 C-369.41937823 187.55233605 -369.42838315 181.43440977 -369.45348549 175.31635284 C-369.47671783 169.56094043 -369.48101883 163.80582399 -369.47072411 158.05037689 C-369.47022746 155.93721026 -369.47658557 153.8240293 -369.49028015 151.71090698 C-369.50792537 148.82695433 -369.50092904 145.94407232 -369.48774719 143.06011963 C-369.49871644 142.22295229 -369.50968568 141.38578496 -369.52098733 140.52324891 C-369.46233006 135.21142192 -368.47941779 132.24294541 -365 128 C-358.56991065 122.23567221 -349.06767597 119.20972516 -341.25 115.6875 C-339.68945485 114.97927726 -338.12907402 114.27069234 -336.56884766 113.56176758 C-325.12767474 108.37256712 -313.64289909 103.28243773 -302.1517334 98.20516968 C-288.99562338 92.38818679 -275.94090082 86.36617949 -262.90298462 80.28961182 C-249.20038717 73.9063952 -235.43829957 67.67530819 -221.59570312 61.6015625 C-214.81000629 58.61896866 -208.065449 55.58833935 -201.40234375 52.33984375 C-199.64168579 51.49087524 -199.64168579 51.49087524 -197.84545898 50.62475586 C-195.70879553 49.58706373 -193.58088561 48.5310158 -191.46508789 47.45141602 C-183.95876409 43.8204768 -177.13152044 41.96056468 -168.9609375 44.67822266 C-163.41412683 46.81151613 -158.08950612 49.40057534 -152.75 52 C-151.11948879 52.77294467 -149.48798364 53.54379629 -147.85546875 54.3125 C-143.89177309 56.18439652 -139.94260661 58.08410974 -136 60 C-133.63413228 56.90943354 -131.70369025 53.78004087 -129.8125 50.375 C-126.37384596 44.4243187 -122.43765629 39.23073141 -118 34 C-117.48179687 33.33613281 -116.96359375 32.67226562 -116.4296875 31.98828125 C-103.10245187 15.47992154 -82.85813077 5.17015773 -63 -1 C-61.27330078 -1.54333984 -61.27330078 -1.54333984 -59.51171875 -2.09765625 C-40.79123287 -6.82727372 -18.3496194 -5.94755794 0 0 Z M-91 53 C-107.18115275 69.83936913 -112.56951323 91.15434883 -112.26953125 113.8984375 C-111.76144014 130.23244036 -104.62162851 146.5939379 -94 159 C-93.52691406 159.62648437 -93.05382812 160.25296875 -92.56640625 160.8984375 C-80.3963298 176.25519232 -60.74314511 184.66695608 -41.86328125 187.46484375 C-20.73786857 189.7774658 0.51700995 183.23653555 17.16918945 170.17358398 C32.06985825 157.83199603 43.94824538 139.54146875 46 120 C47.4994812 96.77299353 43.55550714 75.11370725 28 57 C27.50371094 56.36191406 27.00742187 55.72382812 26.49609375 55.06640625 C13.31705774 38.77521234 -6.94605029 30.4365558 -27.3125 28.1875 C-51.67946515 26.77662626 -73.71127446 36.27657339 -91 53 Z M-183.53125 80.83203125 C-184.21678955 81.13521774 -184.9023291 81.43840424 -185.60864258 81.7507782 C-187.90690406 82.76879845 -190.20357199 83.79035103 -192.5 84.8125 C-193.29575439 85.16602539 -194.09150879 85.51955078 -194.91137695 85.88378906 C-208.70219982 92.01547905 -222.40384639 98.32919583 -236.08364868 104.70397949 C-251.99024366 112.11293663 -267.99827835 119.27336632 -284.04959106 126.36209106 C-293.40161113 130.49690889 -302.70396815 134.74102506 -312 139 C-312 139.66 -312 140.32 -312 141 C-311.00895264 141.43755615 -310.01790527 141.8751123 -308.99682617 142.32592773 C-275.92458086 156.93607757 -275.92458086 156.93607757 -264.21557617 162.57177734 C-256.69407916 166.17908564 -249.0972429 169.6186458 -241.5 173.0625 C-240.80482269 173.37766571 -240.10964539 173.69283142 -239.3934021 174.01754761 C-237.97214461 174.66185455 -236.55088502 175.30615686 -235.12962341 175.95045471 C-234.41395706 176.27489059 -233.69829071 176.59932648 -232.9609375 176.93359375 C-232.23652969 177.2619371 -231.51212189 177.59028046 -230.76576233 177.92857361 C-222.21016111 181.80837852 -213.66744226 185.71632858 -205.125 189.625 C-203.66210975 190.29435304 -202.19921914 190.96370528 -200.73632812 191.63305664 C-200.03960999 191.95220535 -199.34289185 192.27135406 -198.62506104 192.60017395 C-197.27413269 193.21746173 -195.9220692 193.83227236 -194.56878662 194.44438171 C-191.60034565 195.7896277 -188.67287029 197.16578653 -185.76464844 198.63964844 C-184.80848633 199.11692383 -183.85232422 199.59419922 -182.8671875 200.0859375 C-182.0613623 200.50665527 -181.25553711 200.92737305 -180.42529297 201.36083984 C-174.91990216 202.81172701 -168.75322141 198.60886671 -163.77734375 196.296875 C-162.99541153 195.93660217 -162.21347931 195.57632935 -161.40785217 195.20513916 C-158.91636422 194.05636862 -156.42690843 192.90326888 -153.9375 191.75 C-152.29245084 190.99059695 -150.64726966 190.23147983 -149.00195312 189.47265625 C-145.06117781 187.6544058 -141.12195964 185.83281308 -137.18328857 184.01000977 C-133.89529368 182.4889525 -130.60587269 180.97099728 -127.31640625 179.453125 C-125.76288452 178.73624512 -125.76288452 178.73624512 -124.17797852 178.00488281 C-123.45924561 177.67327148 -122.7405127 177.34166016 -122 177 C-122.4552002 176.32042236 -122.91040039 175.64084473 -123.37939453 174.94067383 C-137.29863228 153.9779411 -144.44559452 132.5880509 -144.125 107.3125 C-144.11494059 105.9173242 -144.10582002 104.5221413 -144.09765625 103.12695312 C-144.07429406 99.7511163 -144.04153668 96.37565382 -144 93 C-148.53783891 90.86133438 -153.07683594 88.72515424 -157.61694336 86.59130859 C-159.16251516 85.86445894 -160.70776348 85.13692104 -162.25268555 84.40869141 C-164.46839859 83.36441498 -166.68524845 82.32258789 -168.90234375 81.28125 C-169.5971434 80.95314331 -170.29194305 80.62503662 -171.00779724 80.2869873 C-176.66805489 77.63342869 -177.97941602 78.36605965 -183.53125 80.83203125 Z M-337 166 C-337 222.43 -337 278.86 -337 337 C-326.16883296 342.45818885 -326.16883296 342.45818885 -315.19921875 347.515625 C-313.81767152 348.12296314 -312.43616285 348.73038901 -311.0546875 349.33789062 C-310.34538086 349.64831299 -309.63607422 349.95873535 -308.90527344 350.27856445 C-294.68575412 356.5070395 -280.56889842 362.93918578 -266.5 369.5 C-251.74568956 376.37849244 -236.93255297 383.10353575 -222.03320312 389.66210938 C-220.65490391 390.26943139 -219.27664765 390.87685091 -217.8984375 391.484375 C-217.24208313 391.77320557 -216.58572876 392.06203613 -215.90948486 392.35961914 C-210.45335257 394.77206438 -205.05058828 397.29311231 -199.67514038 399.88031006 C-196.47973236 401.48514476 -196.47973236 401.48514476 -193 402 C-193 345.57 -193 289.14 -193 231 C-202.3439 226.32805 -211.56382769 221.73785584 -221.12109375 217.57421875 C-236.00362976 211.07187424 -250.78113401 204.36419783 -265.5 197.5 C-280.31365672 190.5941246 -295.18724523 183.84352 -310.14257812 177.25 C-310.83770508 176.94341461 -311.53283203 176.63682922 -312.24902344 176.32095337 C-313.59318068 175.72825742 -314.9375742 175.13609695 -316.28222656 174.54452515 C-321.74019824 172.13561085 -327.1423288 169.61779593 -332.53222656 167.05981445 C-334.85866221 165.86846321 -334.85866221 165.86846321 -337 166 Z M-101.77685547 203.49365234 C-102.50706406 203.82206619 -103.23727264 204.15048004 -103.98960876 204.48884583 C-104.77420975 204.85088608 -105.55881073 205.21292633 -106.3671875 205.5859375 C-107.60288231 206.145373 -107.60288231 206.145373 -108.86354065 206.71611023 C-111.53732029 207.92863912 -114.20616602 209.15162901 -116.875 210.375 C-118.69770239 211.20434475 -120.52070086 212.0330391 -122.34399414 212.86108398 C-125.93146457 214.49157709 -129.51707513 216.12605126 -133.10107422 217.76416016 C-137.2299537 219.65051851 -141.36483549 221.52283167 -145.50390625 223.38671875 C-147.48178809 224.27860756 -149.45965455 225.17053048 -151.4375 226.0625 C-152.32228027 226.46065918 -153.20706055 226.85881836 -154.11865234 227.26904297 C-157.81522473 228.73713389 -157.81522473 228.73713389 -161 231 C-161.0970006 233.20225454 -161.12186709 235.40768664 -161.12025452 237.61207581 C-161.12110894 238.31121768 -161.12196337 239.01035956 -161.12284368 239.73068756 C-161.12450051 242.09074751 -161.11897384 244.45073753 -161.11352539 246.81079102 C-161.11324354 248.49564614 -161.11340122 250.18050139 -161.1139679 251.86535645 C-161.11425594 256.45400453 -161.10835811 261.0426267 -161.10139394 265.63126874 C-161.09516153 270.42124632 -161.09455669 275.21122443 -161.09336853 280.00120544 C-161.09025488 289.07829032 -161.08204104 298.15536321 -161.07201904 307.2324428 C-161.06085895 317.56358581 -161.05534772 327.89472939 -161.05032361 338.22587693 C-161.03985845 359.48392465 -161.02225836 380.74196157 -161 402 C-159.58322022 401.53852232 -158.16737115 401.07418682 -156.75190735 400.60868835 C-155.56907905 400.22129502 -155.56907905 400.22129502 -154.36235523 399.82607555 C-150.746969 398.56183631 -147.31476973 396.96816161 -143.85546875 395.33203125 C-142.72388588 394.80479462 -142.72388588 394.80479462 -141.56944275 394.26690674 C-139.95059328 393.51242617 -138.33268045 392.75593314 -136.71563721 391.99758911 C-132.3483465 389.95037876 -127.97323195 387.92005438 -123.59765625 385.890625 C-122.70528259 385.47655899 -121.81290894 385.06249298 -120.89349365 384.63587952 C-112.34694913 380.6797987 -103.74315608 376.85937087 -95.125 373.0625 C-80.10652039 366.44024934 -65.20114871 359.58822019 -50.32861328 352.64477539 C-48.70614601 351.88798778 -47.08358897 351.13139259 -45.4609375 350.375 C-44.28998032 349.82887306 -44.28998032 349.82887306 -43.09536743 349.27171326 C-36.60138192 346.25433268 -30.06418889 343.33899291 -23.5015564 340.47412109 C-20.00312132 339.12923885 -20.00312132 339.12923885 -17 337 C-16.90418178 335.46914161 -16.87811892 333.93386244 -16.87974548 332.40000916 C-16.87837082 331.40576431 -16.87699615 330.41151947 -16.87557983 329.387146 C-16.87917511 328.28735413 -16.88277039 327.18756226 -16.88647461 326.05444336 C-16.88625557 324.32784233 -16.88625557 324.32784233 -16.8860321 322.56636047 C-16.88673182 318.74083609 -16.89452698 314.91535969 -16.90234375 311.08984375 C-16.90420772 308.44568407 -16.90563172 305.80152404 -16.90663147 303.15736389 C-16.90974451 296.89584583 -16.91795752 290.63434514 -16.92798096 284.37283474 C-16.93914295 277.24598463 -16.94465276 270.1191337 -16.94967639 262.99227703 C-16.96014016 248.3281757 -16.97773907 233.66408809 -17 219 C-17.88704117 219.00850983 -18.77408234 219.01701965 -19.68800354 219.02578735 C-23.02493557 219.05372217 -26.3617407 219.07397263 -29.69874573 219.08926392 C-31.13441446 219.09736272 -32.57007011 219.10839574 -34.00569153 219.12258911 C-45.13559979 219.22975433 -55.36712391 218.48286583 -66 215 C-66.69077637 214.78037598 -67.38155273 214.56075195 -68.09326172 214.33447266 C-76.55158452 211.5838144 -84.05859511 208.15213556 -91.546875 203.3203125 C-95.30322659 201.29858187 -98.07827545 201.80777896 -101.77685547 203.49365234 Z " fill="#000000" transform="translate(401,36)"/>
<path d="M0 0 C6.30202787 3.24920417 10.95997351 8.73874558 15.875 13.75 C16.75414062 14.63816406 17.63328125 15.52632812 18.5390625 16.44140625 C20.69732519 18.62312832 22.85076168 20.80939346 25 23 C28.53323172 21.4994769 30.74536516 19.462001 33.40625 16.71875 C34.23253906 15.87699219 35.05882812 15.03523438 35.91015625 14.16796875 C36.76480469 13.28753906 37.61945313 12.40710938 38.5 11.5 C40.19314885 9.75577577 41.89088708 8.01599179 43.59375 6.28125 C44.71813477 5.12206055 44.71813477 5.12206055 45.86523438 3.93945312 C50.63819121 -0.39681965 54.8183888 -0.43449608 61.0859375 -0.3125 C66.38740101 0.25602156 68.83972495 2.77865784 72.375 6.5 C74.72325726 11.55778486 74.97097307 16.51685793 74 22 C70.75079583 28.30202787 65.26125442 32.95997351 60.25 37.875 C59.36183594 38.75414062 58.47367187 39.63328125 57.55859375 40.5390625 C55.37687168 42.69732519 53.19060654 44.85076168 51 47 C52.5005231 50.53323172 54.537999 52.74536516 57.28125 55.40625 C58.12300781 56.23253906 58.96476562 57.05882812 59.83203125 57.91015625 C60.71246094 58.76480469 61.59289062 59.61945313 62.5 60.5 C64.24422423 62.19314885 65.98400821 63.89088708 67.71875 65.59375 C68.87793945 66.71813477 68.87793945 66.71813477 70.06054688 67.86523438 C74.39681965 72.63819121 74.43449608 76.8183888 74.3125 83.0859375 C73.74397844 88.38740101 71.22134216 90.83972495 67.5 94.375 C62.44221514 96.72325726 57.48314207 96.97097307 52 96 C45.69797213 92.75079583 41.04002649 87.26125442 36.125 82.25 C35.24585938 81.36183594 34.36671875 80.47367187 33.4609375 79.55859375 C31.30267481 77.37687168 29.14923832 75.19060654 27 73 C23.46676828 74.5005231 21.25463484 76.537999 18.59375 79.28125 C17.76746094 80.12300781 16.94117188 80.96476562 16.08984375 81.83203125 C15.23519531 82.71246094 14.38054687 83.59289062 13.5 84.5 C11.80685115 86.24422423 10.10911292 87.98400821 8.40625 89.71875 C7.65666016 90.49154297 6.90707031 91.26433594 6.13476562 92.06054688 C1.36180879 96.39681965 -2.8183888 96.43449608 -9.0859375 96.3125 C-14.38740101 95.74397844 -16.83972495 93.22134216 -20.375 89.5 C-22.72325726 84.44221514 -22.97097307 79.48314207 -22 74 C-18.75079583 67.69797213 -13.26125442 63.04002649 -8.25 58.125 C-7.36183594 57.24585938 -6.47367187 56.36671875 -5.55859375 55.4609375 C-3.37687168 53.30267481 -1.19060654 51.14923832 1 49 C-0.5005231 45.46676828 -2.537999 43.25463484 -5.28125 40.59375 C-6.12300781 39.76746094 -6.96476562 38.94117188 -7.83203125 38.08984375 C-8.71246094 37.23519531 -9.59289062 36.38054687 -10.5 35.5 C-12.24422423 33.80685115 -13.98400821 32.10911292 -15.71875 30.40625 C-16.49154297 29.65666016 -17.26433594 28.90707031 -18.06054688 28.13476562 C-22.39681965 23.36180879 -22.43449608 19.1816112 -22.3125 12.9140625 C-21.74397844 7.61259899 -19.22134216 5.16027505 -15.5 1.625 C-10.44221514 -0.72325726 -5.48314207 -0.97097307 0 0 Z " fill="#000000" transform="translate(342,96)"/>
</svg>
