<?xml version="1.0" encoding="UTF-8"?>
<svg version="1.1" xmlns="http://www.w3.org/2000/svg" width="512" height="512">
<path d="M0 0 C1.4240918 0.29003906 1.4240918 0.29003906 2.87695312 0.5859375 C32.4362514 6.66670743 61.5852817 17.96175143 86 36 C87.24449847 36.8871302 88.48931425 37.77381536 89.734375 38.66015625 C98.92507315 45.29232066 107.28862646 52.55425882 115.40771484 60.45458984 C116.77528763 61.7819029 118.16130336 63.09016686 119.55078125 64.39453125 C126.10868436 70.67287899 131.56278005 77.75686018 137 85 C137.42958008 85.56879883 137.85916016 86.13759766 138.30175781 86.72363281 C159.04090031 114.35985734 171.95547887 145.29647356 179 179 C179.18079102 179.82000488 179.36158203 180.64000977 179.54785156 181.48486328 C184.96936103 206.87326397 184.54137771 237.68232863 179 263 C178.70996094 264.4240918 178.70996094 264.4240918 178.4140625 265.87695312 C172.33329257 295.4362514 161.03824857 324.5852817 143 349 C142.1128698 350.24449847 141.22618464 351.48931425 140.33984375 352.734375 C133.70767934 361.92507315 126.44574118 370.28862646 118.54541016 378.40771484 C117.2180971 379.77528763 115.90983314 381.16130336 114.60546875 382.55078125 C108.32712101 389.10868436 101.24313982 394.56278005 94 400 C93.43120117 400.42958008 92.86240234 400.85916016 92.27636719 401.30175781 C64.64014266 422.04090031 33.70352644 434.95547887 0 442 C-0.82000488 442.18079102 -1.64000977 442.36158203 -2.48486328 442.54785156 C-27.87349879 447.96941117 -58.68170406 447.53095766 -84 442 C-84.84111328 441.82839355 -85.68222656 441.65678711 -86.54882812 441.47998047 C-130.06422876 432.52234005 -167.84576168 411.3390797 -200 381 C-200.8559375 380.19820313 -201.711875 379.39640625 -202.59375 378.5703125 C-209.47610135 371.92753667 -215.28257506 364.63910923 -221 357 C-221.42812988 356.43265137 -221.85625977 355.86530273 -222.29736328 355.28076172 C-243.0392189 327.64357587 -255.95496943 296.70596379 -263 263 C-263.18079102 262.17999512 -263.36158203 261.35999023 -263.54785156 260.51513672 C-268.96936103 235.12673603 -268.54137771 204.31767137 -263 179 C-262.70996094 177.5759082 -262.70996094 177.5759082 -262.4140625 176.12304688 C-256.33329257 146.5637486 -245.03824857 117.4147183 -227 93 C-226.1128698 91.75550153 -225.22618464 90.51068575 -224.33984375 89.265625 C-217.70767934 80.07492685 -210.44574118 71.71137354 -202.54541016 63.59228516 C-201.2180971 62.22471237 -199.90983314 60.83869664 -198.60546875 59.44921875 C-192.32712101 52.89131564 -185.24313982 47.43721995 -178 42 C-177.43120117 41.57041992 -176.86240234 41.14083984 -176.27636719 40.69824219 C-148.64014266 19.95909969 -117.70352644 7.04452113 -84 0 C-83.17999512 -0.18079102 -82.35999023 -0.36158203 -81.51513672 -0.54785156 C-56.12673603 -5.96936103 -25.31767137 -5.54137771 0 0 Z M-89 35 C-89.70318359 35.16838379 -90.40636719 35.33676758 -91.13085938 35.51025391 C-132.94596877 45.78668159 -170.46177166 72.75341395 -196 107 C-196.62519531 107.83015625 -197.25039062 108.6603125 -197.89453125 109.515625 C-213.73539937 131.32927946 -223.89555435 155.83299027 -230 182 C-230.19207031 182.80308594 -230.38414062 183.60617188 -230.58203125 184.43359375 C-236.28290344 209.54354227 -234.84795826 239.12544861 -229 264 C-228.82871582 264.77537109 -228.65743164 265.55074219 -228.48095703 266.34960938 C-220.82211229 300.39872892 -201.06236377 335.45242572 -175 359 C-174.34 359 -173.68 359 -173 359 C-171.21189 356.91086138 -169.53378097 354.81350169 -167.875 352.625 C-166.88727762 351.34071582 -165.89899187 350.05686474 -164.91015625 348.7734375 C-164.42047363 348.1350293 -163.93079102 347.49662109 -163.42626953 346.83886719 C-160.80982083 343.46552045 -158.08213739 340.18158514 -155.36328125 336.890625 C-153.8050405 335.11810626 -153.8050405 335.11810626 -154 333 C-155.18553467 332.47567383 -156.37106934 331.95134766 -157.5925293 331.41113281 C-162.00341969 329.45798313 -166.40992199 327.49510077 -170.81518555 325.52929688 C-172.71993206 324.68094399 -174.62584769 323.83521087 -176.53295898 322.9921875 C-179.2790214 321.77776198 -182.02069745 320.55387857 -184.76171875 319.328125 C-186.03543587 318.76850067 -186.03543587 318.76850067 -187.33488464 318.1975708 C-198.65258897 313.10647276 -198.65258897 313.10647276 -201 307 C-201.25726891 303.83838081 -201.25726891 303.83838081 -201.26742554 300.02957153 C-201.27195665 299.32801622 -201.27648776 298.62646091 -201.28115618 297.90364635 C-201.2938156 295.55304752 -201.29217884 293.20267993 -201.29052734 290.85205078 C-201.29651163 289.16663312 -201.30331695 287.48121819 -201.31088257 285.79580688 C-201.32855975 281.21725987 -201.33323867 276.63878759 -201.33451414 272.06020975 C-201.33641305 268.23813171 -201.34377048 264.41607108 -201.35085833 260.59399974 C-201.36714634 251.57649216 -201.3720269 242.55902451 -201.37060547 233.54150391 C-201.36940384 224.23926524 -201.39050894 214.93725852 -201.4220928 205.63507855 C-201.44824336 197.64854723 -201.45897328 189.66209172 -201.45769465 181.67551792 C-201.45718467 176.90553504 -201.46288796 172.13575827 -201.48405075 167.36581802 C-201.50341266 162.87925598 -201.50357172 158.39309709 -201.48901749 153.90652084 C-201.48692575 152.26099814 -201.49165202 150.61545035 -201.5037384 148.9699707 C-201.51918626 146.72097215 -201.50988752 144.47336456 -201.49447632 142.22439575 C-201.49556585 140.96673464 -201.49665539 139.70907352 -201.49777794 138.41330147 C-200.90198779 134.32792278 -199.58289202 132.18765984 -197 129 C-194.65027561 127.50641892 -192.54848939 126.34261004 -190.04296875 125.203125 C-188.99631294 124.70416718 -188.99631294 124.70416718 -187.92851257 124.19512939 C-185.62839809 123.1084264 -183.31658619 122.05109712 -181 121 C-179.82247162 120.46185669 -179.82247162 120.46185669 -178.62115479 119.9128418 C-172.54000649 117.14233807 -166.42820923 114.44312423 -160.3125 111.75 C-158.33592294 110.8761334 -156.35952711 110.00185675 -154.38330078 109.12719727 C-150.28990484 107.31584057 -146.19574575 105.50622506 -142.10107422 103.69775391 C-135.31382186 100.69851611 -128.53328008 97.68429101 -121.7545166 94.66592407 C-117.10981998 92.59790026 -112.46378982 90.53303327 -107.81396484 88.4765625 C-99.19800175 84.66350476 -90.59510582 80.82804941 -82.03320312 76.89479065 C-78.11325314 75.09663729 -74.18578053 73.31528875 -70.25738525 71.53567505 C-68.40301959 70.69021098 -66.55225117 69.83680411 -64.70550537 68.974823 C-43.88678591 59.26327066 -43.88678591 59.26327066 -33.7784729 62.77087402 C-27.18746273 65.28060568 -20.82269067 68.26416585 -14.4375 71.25 C-12.42633807 72.16993147 -10.41412308 73.08756412 -8.40087891 74.00292969 C-4.42503851 75.81392089 -0.45448302 77.63569025 3.51123047 79.46875 C10.69089018 82.78547525 17.90303786 86.02671572 25.125 89.25 C26.21240479 89.7440332 27.29980957 90.23806641 28.42016602 90.74707031 C29.39783936 91.18631836 30.3755127 91.62556641 31.3828125 92.078125 C32.62635498 92.64128418 32.62635498 92.64128418 33.89501953 93.21582031 C36.09415919 94.1745489 36.09415919 94.1745489 39 94 C40.75659947 92.04142219 42.31340254 90.10672571 43.875 88 C44.84731301 86.72140339 45.82134605 85.44411339 46.796875 84.16796875 C47.31185547 83.49169434 47.82683594 82.81541992 48.35742188 82.11865234 C51.74924183 77.74376924 55.30534381 73.49794474 58.84716797 69.24414062 C59.37455566 68.60283203 59.90194336 67.96152344 60.4453125 67.30078125 C60.91469238 66.73528564 61.38407227 66.16979004 61.86767578 65.5871582 C63.20333905 63.87922151 63.20333905 63.87922151 64 61 C16.70166196 33.01147062 -34.6883954 21.63443788 -89 35 Z M89 83 C87.21189 85.08913862 85.53378097 87.18649831 83.875 89.375 C82.88727762 90.65928418 81.89899187 91.94313526 80.91015625 93.2265625 C80.42047363 93.8649707 79.93079102 94.50337891 79.42626953 95.16113281 C76.80982083 98.53447955 74.08213739 101.81841486 71.36328125 105.109375 C69.8050405 106.88189374 69.8050405 106.88189374 70 109 C71.18553467 109.52432617 72.37106934 110.04865234 73.5925293 110.58886719 C78.00341969 112.54201687 82.40992199 114.50489923 86.81518555 116.47070312 C88.71993206 117.31905601 90.62584769 118.16478913 92.53295898 119.0078125 C95.2790214 120.22223802 98.02069745 121.44612143 100.76171875 122.671875 C101.61086349 123.04495789 102.46000824 123.41804077 103.33488464 123.8024292 C114.65258897 128.89352724 114.65258897 128.89352724 117 135 C117.25726891 138.16161919 117.25726891 138.16161919 117.26742554 141.97042847 C117.27195665 142.67198378 117.27648776 143.37353909 117.28115618 144.09635365 C117.2938156 146.44695248 117.29217884 148.79732007 117.29052734 151.14794922 C117.29651163 152.83336688 117.30331695 154.51878181 117.31088257 156.20419312 C117.32855975 160.78274013 117.33323867 165.36121241 117.33451414 169.93979025 C117.33641305 173.76186829 117.34377048 177.58392892 117.35085833 181.40600026 C117.36714634 190.42350784 117.3720269 199.44097549 117.37060547 208.45849609 C117.36940384 217.76073476 117.39050894 227.06274148 117.4220928 236.36492145 C117.44824336 244.35145277 117.45897328 252.33790828 117.45769465 260.32448208 C117.45718467 265.09446496 117.46288796 269.86424173 117.48405075 274.63418198 C117.50341266 279.12074402 117.50357172 283.60690291 117.48901749 288.09347916 C117.48692575 289.73900186 117.49165202 291.38454965 117.5037384 293.0300293 C117.51918626 295.27902785 117.50988752 297.52663544 117.49447632 299.77560425 C117.49556585 301.03326536 117.49665539 302.29092648 117.49777794 303.58669853 C116.90198779 307.67207722 115.58289202 309.81234016 113 313 C110.65027561 314.49358108 108.54848939 315.65738996 106.04296875 316.796875 C105.34519821 317.12951355 104.64742767 317.4621521 103.92851257 317.80487061 C101.62839809 318.8915736 99.31658619 319.94890288 97 321 C95.82247162 321.53814331 95.82247162 321.53814331 94.62115479 322.0871582 C88.54000649 324.85766193 82.42820923 327.55687577 76.3125 330.25 C74.33592294 331.1238666 72.35952711 331.99814325 70.38330078 332.87280273 C66.28990484 334.68415943 62.19574575 336.49377494 58.10107422 338.30224609 C51.31382186 341.30148389 44.53328008 344.31570899 37.7545166 347.33407593 C33.10981998 349.40209974 28.46378982 351.46696673 23.81396484 353.5234375 C15.19800175 357.33649524 6.59510582 361.17195059 -1.96679688 365.10520935 C-5.88674686 366.90336271 -9.81421947 368.68471125 -13.74261475 370.46432495 C-15.59698041 371.30978902 -17.44774883 372.16319589 -19.29449463 373.025177 C-40.11321409 382.73672934 -40.11321409 382.73672934 -50.2215271 379.22912598 C-56.81253727 376.71939432 -63.17730933 373.73583415 -69.5625 370.75 C-71.57366193 369.83006853 -73.58587692 368.91243588 -75.59912109 367.99707031 C-79.57496149 366.18607911 -83.54551698 364.36430975 -87.51123047 362.53125 C-94.69089018 359.21452475 -101.90303786 355.97328428 -109.125 352.75 C-110.75610718 352.0089502 -110.75610718 352.0089502 -112.42016602 351.25292969 C-113.39783936 350.81368164 -114.3755127 350.37443359 -115.3828125 349.921875 C-116.62635498 349.35871582 -116.62635498 349.35871582 -117.89501953 348.78417969 C-120.09415919 347.8254511 -120.09415919 347.8254511 -123 348 C-124.75659947 349.95857781 -126.31340254 351.89327429 -127.875 354 C-128.84731301 355.27859661 -129.82134605 356.55588661 -130.796875 357.83203125 C-131.31185547 358.50830566 -131.82683594 359.18458008 -132.35742188 359.88134766 C-135.74924183 364.25623076 -139.30534381 368.50205526 -142.84716797 372.75585938 C-143.37455566 373.39716797 -143.90194336 374.03847656 -144.4453125 374.69921875 C-144.91469238 375.26471436 -145.38407227 375.83020996 -145.86767578 376.4128418 C-147.20333905 378.12077849 -147.20333905 378.12077849 -148 381 C-102.0181896 409.02742295 -50.22875952 420.28420512 2.74316406 407.55761719 C3.86029785 407.28159668 3.86029785 407.28159668 5 407 C5.71381836 406.82629883 6.42763672 406.65259766 7.16308594 406.47363281 C49.01116686 395.99708872 86.38469733 369.34994219 112 335 C112.62519531 334.16984375 113.25039063 333.3396875 113.89453125 332.484375 C129.73539937 310.67072054 139.89555435 286.16700973 146 260 C146.28810547 258.79537109 146.28810547 258.79537109 146.58203125 257.56640625 C152.2779075 232.47846275 150.87793703 202.84961876 145 178 C144.81808105 177.19804199 144.63616211 176.39608398 144.44873047 175.56982422 C141.64822888 163.49938706 137.15640414 152.24285018 132 141 C131.51442627 139.93604004 131.51442627 139.93604004 131.01904297 138.85058594 C122.38351667 120.17466887 110.25965544 103.79138198 96.4375 88.625 C95.66817139 87.77591064 95.66817139 87.77591064 94.88330078 86.90966797 C93.63208619 85.56489674 92.32090723 84.27638227 91 83 C90.34 83 89.68 83 89 83 Z M-50.94140625 98.5234375 C-52.16898903 99.08294853 -52.16898903 99.08294853 -53.42137146 99.65376282 C-55.20142638 100.46516241 -56.9807803 101.27810119 -58.75952148 102.09237671 C-63.52426553 104.27269013 -68.29497892 106.43982757 -73.06640625 108.60546875 C-74.05081696 109.05233536 -75.03522766 109.49920197 -76.04946899 109.95960999 C-90.32538818 116.42762519 -104.69481423 122.68353185 -119.05699158 128.95690918 C-127.38829091 132.59974721 -135.69521371 136.29720139 -144 140 C-144 140.66 -144 141.32 -144 142 C-142.30870972 142.75168457 -142.30870972 142.75168457 -140.58325195 143.51855469 C-139.44725807 144.0234417 -139.44725807 144.0234417 -138.28831482 144.53852844 C-136.55212061 145.31016916 -134.81592466 146.08180597 -133.07972717 146.85343933 C-128.13139932 149.05267517 -123.18310391 151.25198395 -118.23486328 153.45141602 C-108.65284495 157.71041984 -99.07064628 161.96901481 -89.48728943 166.2250061 C-85.42496491 168.02912321 -81.36279174 169.83358094 -77.30062866 171.63806152 C-75.36631695 172.49719963 -73.431931 173.35617059 -71.49746704 174.21496582 C-69.65357512 175.03356512 -67.8098009 175.8524296 -65.96615601 176.67158508 C-64.24514806 177.43600159 -62.52374801 178.19953605 -60.8019104 178.96208191 C-55.49902605 181.31500425 -50.23378408 183.73560261 -45.01342773 186.26757812 C-42.83068223 187.2371263 -42.83068223 187.2371263 -39.6875 186.5625 C-33.15992491 182.76739821 -29.01065601 179.03473373 -24.3125 173.125 C-23.70092041 172.36904541 -23.08934082 171.61309082 -22.45922852 170.83422852 C-18.29845147 165.67568922 -14.19215895 160.47301117 -10.11889648 155.24511719 C-6.60134697 150.73533927 -2.99716959 146.30098922 0.625 141.875 C5.93524646 135.38007555 11.0403655 128.76663312 16 122 C13.8749896 119.66354154 11.99404199 118.35237305 9.10205078 117.10229492 C8.32338654 116.76151413 7.54472229 116.42073334 6.74246216 116.06962585 C5.48162308 115.53049309 5.48162308 115.53049309 4.1953125 114.98046875 C3.32035126 114.59941483 2.44539001 114.2183609 1.54391479 113.82575989 C-1.25954297 112.60631883 -4.06706061 111.39658097 -6.875 110.1875 C-9.63939299 108.99022486 -12.4029003 107.79093087 -15.16607666 106.59085083 C-16.95668669 105.81332834 -18.74781922 105.03700799 -20.53948975 104.26193237 C-26.6483338 101.61260611 -32.6943354 98.85856394 -38.70361328 95.98950195 C-43.31767482 94.00132511 -46.68126205 96.56113764 -50.94140625 98.5234375 Z M48 135 C46.20327652 137.07915159 44.41257473 139.16300651 42.625 141.25 C42.11710937 141.83652344 41.60921875 142.42304688 41.0859375 143.02734375 C38.64854442 145.88165933 36.44300952 148.4880973 35 152 C38.56669804 151.39768601 41.57808629 150.43842499 44.86328125 148.93359375 C45.74951172 148.53076172 46.63574219 148.12792969 47.54882812 147.71289062 C48.46083984 147.29201172 49.37285156 146.87113281 50.3125 146.4375 C51.70952148 145.80038086 51.70952148 145.80038086 53.13476562 145.15039062 C55.4253672 144.10493657 57.71363659 143.05468244 60 142 C60 141.34 60 140.68 60 140 C56.04 138.35 52.08 136.7 48 135 Z M-170 167 C-170 207.59 -170 248.18 -170 290 C-160.8834235 294.25440237 -151.79578724 298.46112083 -142.5625 302.4375 C-141.53318359 302.88287109 -140.50386719 303.32824219 -139.44335938 303.78710938 C-136.96305746 304.85998416 -134.48195073 305.93094654 -132 307 C-125.93101816 299.9332165 -119.9908612 292.79547503 -114.26831055 285.44482422 C-110.73639673 280.91526145 -107.13286518 276.44889712 -103.5 272 C-99.45008576 267.0377555 -95.44194641 262.04845768 -91.5 257 C-87.55804402 251.95153007 -83.54939406 246.96267938 -79.5 242 C-75.25915385 236.79635693 -71.03900908 231.57792038 -66.875 226.3125 C-66.42576172 225.74853516 -65.97652344 225.18457031 -65.51367188 224.60351562 C-63.08557726 221.51897761 -60.98729618 218.38054422 -59 215 C-60.03253906 214.54898926 -61.06507813 214.09797852 -62.12890625 213.63330078 C-81.75323783 205.05733019 -101.35246804 196.43057531 -120.875 187.625 C-122.54124905 186.87399967 -124.20750873 186.12302291 -125.8737793 185.37207031 C-132.022347 182.60028486 -138.17042576 179.82742665 -144.31591797 177.04882812 C-148.14532175 175.31797098 -151.97868342 173.59605993 -155.8125 171.875 C-156.92157715 171.37178223 -158.0306543 170.86856445 -159.17333984 170.35009766 C-160.17445801 169.9019873 -161.17557617 169.45387695 -162.20703125 168.9921875 C-163.0678833 168.60401855 -163.92873535 168.21584961 -164.81567383 167.81591797 C-167.07976707 166.82504083 -167.07976707 166.82504083 -170 167 Z M74.9609375 170.5234375 C74.14369202 170.89653549 73.32644653 171.26963348 72.48443604 171.65403748 C70.70968696 172.4646674 68.93604877 173.27773279 67.16339111 174.09292603 C62.42166823 176.27312215 57.67187874 178.43557413 52.921875 180.59765625 C51.94179474 181.04410995 50.96171448 181.49056366 49.95193481 181.95054626 C37.86192116 187.44551888 25.68732765 192.74735941 13.50537109 198.03466797 C8.99182502 199.99716216 4.49122376 201.98698214 0 204 C-1.19069092 204.53077148 -2.38138184 205.06154297 -3.6081543 205.60839844 C-9.6987197 208.4634241 -14.03663866 211.21505132 -18.0625 216.625 C-18.50787109 217.18445313 -18.95324219 217.74390625 -19.41210938 218.3203125 C-20.63179381 219.86173187 -21.81739382 221.42995337 -23 223 C-23.53452947 223.62474087 -24.06905893 224.24948174 -24.61978626 224.89315414 C-26.26300191 227.4014628 -26.3707696 228.75783921 -26.36076355 231.73297119 C-26.36488754 232.6808551 -26.36901154 233.62873901 -26.3732605 234.60534668 C-26.36247467 235.63824829 -26.35168884 236.6711499 -26.34057617 237.73535156 C-26.34101425 238.82833557 -26.34145233 239.92131958 -26.34190369 241.04742432 C-26.33981279 244.66200592 -26.31646686 248.27612437 -26.29296875 251.890625 C-26.28737388 254.39597317 -26.28310327 256.90132462 -26.28010559 259.40667725 C-26.26981951 265.32816882 -26.24617253 271.24951166 -26.21605712 277.17092681 C-26.17922017 284.57485911 -26.16311915 291.97881202 -26.14648438 299.3828125 C-26.11430461 312.58862617 -26.06367357 325.79430256 -26 339 C-21.49573756 338.18836122 -17.60960114 336.64063116 -13.46484375 334.74609375 C-12.35752144 334.24763443 -12.35752144 334.24763443 -11.22782898 333.73910522 C-9.63167389 333.01988287 -8.036581 332.29829953 -6.44244385 331.57461548 C-3.89973067 330.42035467 -1.35433782 329.27220747 1.19189453 328.12573242 C4.72423931 326.53506453 8.25569848 324.94245486 11.78662109 323.34863281 C19.63689033 319.80845408 27.50508301 316.3087269 35.375 312.8125 C36.10595886 312.48739441 36.83691772 312.16228882 37.59002686 311.82733154 C45.82546419 308.16473454 54.07020276 304.52457914 62.33203125 300.921875 C63.08327271 300.59414597 63.83451416 300.26641693 64.60852051 299.92875671 C68.19293235 298.36575059 71.77869357 296.80595923 75.36669922 295.2512207 C76.63380846 294.70007715 77.90089939 294.14889149 79.16796875 293.59765625 C80.27422607 293.11820557 81.3804834 292.63875488 82.52026367 292.14477539 C84.8921206 291.22308523 84.8921206 291.22308523 86 290 C86.09597204 288.40577964 86.12187924 286.8072955 86.12025452 285.21018982 C86.12162918 284.17387421 86.12300385 283.13755859 86.12442017 282.06983948 C86.12082489 280.92329391 86.11722961 279.77674835 86.11352539 278.59545898 C86.11367142 277.39562378 86.11381744 276.19578857 86.1139679 274.95959473 C86.11338894 271.66014809 86.10835978 268.36076336 86.10139394 265.0613277 C86.09515973 261.61665703 86.09455655 258.17198562 86.09336853 254.72731018 C86.09025541 248.2001727 86.08204229 241.67305189 86.07201904 235.14592177 C86.0608573 227.71677984 86.0553473 220.28763714 86.05032361 212.85848892 C86.03985966 197.57231628 86.0222606 182.28616028 86 167 C81.83835583 167 78.66726643 168.80485595 74.9609375 170.5234375 Z M-59 268 C-60.61949538 269.97800963 -62.19189647 271.9742499 -63.75 274 C-67.93519518 279.38809234 -72.18283111 284.71708925 -76.5 290 C-84.53163291 299.84622673 -92.44065899 309.78467432 -100 320 C-97.95436534 322.22494102 -96.1589144 323.58276704 -93.40234375 324.80932617 C-92.69150635 325.12943161 -91.98066895 325.44953705 -91.24829102 325.77934265 C-90.48572998 326.11383926 -89.72316895 326.44833588 -88.9375 326.79296875 C-88.14980225 327.14386063 -87.36210449 327.4947525 -86.55053711 327.85627747 C-84.88772577 328.59497873 -83.22337741 329.33022855 -81.55761719 330.06225586 C-79.00547961 331.1850892 -76.45955579 332.32118132 -73.9140625 333.45898438 C-72.29722874 334.17527817 -70.68005249 334.8907995 -69.0625 335.60546875 C-68.29993896 335.94603806 -67.53737793 336.28660736 -66.75170898 336.63749695 C-62.53483792 338.48937399 -62.53483792 338.48937399 -58 339 C-58 315.57 -58 292.14 -58 268 C-58.33 268 -58.66 268 -59 268 Z " fill="#000000" transform="translate(298,35)"/>
</svg>
