<?xml version="1.0" encoding="UTF-8"?>
<svg version="1.1" xmlns="http://www.w3.org/2000/svg" width="512" height="512">
<path d="M0 0 C0.96907791 0.47804077 1.93815582 0.95608154 2.93659973 1.4486084 C6.106106 3.01980455 9.25707507 4.62471555 12.40844727 6.23193359 C14.62049466 7.3402669 16.8334054 8.44687864 19.0471344 9.55184937 C23.66996377 11.86569238 28.28421753 14.19556331 32.89257812 16.53808594 C38.79321148 19.5366632 44.71010789 22.50129099 50.63329983 25.45501137 C55.19845453 27.73465306 59.75635903 30.02847775 64.31202888 32.32700729 C66.49150043 33.42534908 68.67277848 34.52011388 70.85589409 35.61119461 C73.90464439 37.13845787 76.94356764 38.6837122 79.98046875 40.234375 C80.87871368 40.68034027 81.77695862 41.12630554 82.7024231 41.58578491 C88.49258346 44.57481165 92.54903808 47.52874023 95.53735352 53.50537109 C95.63858134 55.13885753 95.67679451 56.77642316 95.68452454 58.4130249 C95.69525749 59.96917511 95.69525749 59.96917511 95.70620728 61.5567627 C95.70889618 62.69963745 95.71158508 63.84251221 95.71435547 65.02001953 C95.72092667 66.22011658 95.72749786 67.42021362 95.73426819 68.65667725 C95.75403812 72.6427027 95.76567228 76.62868786 95.77563477 80.61474609 C95.77968232 81.98718537 95.78379924 83.35962444 95.78798485 84.73206329 C95.80703926 91.18094378 95.82126881 97.62981281 95.82959682 104.07871604 C95.83936559 111.52035696 95.86567429 118.96170013 95.90609771 126.40323615 C95.9362747 132.15619144 95.95106724 137.90906147 95.95437783 143.66209435 C95.9567269 147.09747284 95.96566763 150.53253334 95.990839 153.96782684 C96.01848593 157.80302923 96.01428371 161.63784125 96.00732422 165.47314453 C96.02653931 167.17531128 96.02653931 167.17531128 96.04614258 168.91186523 C96.00646787 174.90386891 95.89593881 178.98825998 91.53735352 183.50537109 C86.22279007 187.50909257 80.10694043 190.38782209 74.19067383 193.38745117 C73.2919455 193.84659912 72.39321716 194.30574707 71.46725464 194.77880859 C68.51918833 196.28253473 65.56789965 197.77974573 62.61547852 199.27490234 C61.60073204 199.78884741 60.58598557 200.30279247 59.5404892 200.83231163 C54.17374869 203.54815201 48.80382716 206.25760017 43.43188477 208.96313477 C39.00263418 211.19559695 34.58060509 213.44148985 30.16430664 215.69946289 C24.81001458 218.43691992 19.44422988 221.150451 14.0694809 223.84750938 C12.0321252 224.87471763 9.99886988 225.91010306 7.97000885 226.95398903 C5.12479344 228.41568847 2.26573502 229.84605184 -0.59838867 231.27026367 C-1.8332753 231.9177079 -1.8332753 231.9177079 -3.09310913 232.57823181 C-10.26084629 236.07480178 -17.37441654 237.03702989 -25.11432838 234.7071619 C-27.79522265 233.59495568 -30.3483977 232.34603926 -32.92529297 231.01074219 C-33.89437088 230.53270142 -34.86344879 230.05466064 -35.8618927 229.56213379 C-39.03139897 227.99093763 -42.18236804 226.38602664 -45.33374023 224.77880859 C-47.54578763 223.67047529 -49.75869837 222.56386355 -51.97242737 221.45889282 C-56.59525674 219.14504981 -61.2095105 216.81517888 -65.81787109 214.47265625 C-71.71850445 211.47407899 -77.63540086 208.5094512 -83.5585928 205.55573082 C-88.1237475 203.27608913 -92.681652 200.98226444 -97.23732185 198.68373489 C-99.4167934 197.58539311 -101.59807145 196.4906283 -103.78118706 195.39954758 C-106.82993735 193.87228432 -109.86886061 192.32702999 -112.90576172 190.77636719 C-113.80400665 190.33040192 -114.70225159 189.88443665 -115.62771606 189.42495728 C-121.41787643 186.43593054 -125.47433105 183.48200196 -128.46264648 177.50537109 C-128.56387431 175.87188465 -128.60208748 174.23431903 -128.6098175 172.59771729 C-128.61697281 171.56028381 -128.62412811 170.52285034 -128.63150024 169.45397949 C-128.63418915 168.31110474 -128.63687805 167.16822998 -128.63964844 165.99072266 C-128.64621964 164.79062561 -128.65279083 163.59052856 -128.65956116 162.35406494 C-128.67933109 158.36803949 -128.69096524 154.38205433 -128.70092773 150.39599609 C-128.70497529 149.02355682 -128.70909221 147.65111775 -128.71327782 146.27867889 C-128.73233223 139.82979841 -128.74656178 133.38092938 -128.75488979 126.93202615 C-128.76465856 119.49038523 -128.79096726 112.04904206 -128.83139068 104.60750604 C-128.86156767 98.85455075 -128.87636021 93.10168072 -128.8796708 87.34864783 C-128.88201987 83.91326935 -128.8909606 80.47820885 -128.91613197 77.04291534 C-128.9437789 73.20771296 -128.93957668 69.37290094 -128.93261719 65.53759766 C-128.94542725 64.40281982 -128.9582373 63.26804199 -128.97143555 62.09887695 C-128.93176083 56.10687328 -128.82123178 52.02248221 -124.46264648 47.50537109 C-119.14808304 43.50164962 -113.0322334 40.6229201 -107.1159668 37.62329102 C-106.21723846 37.16414307 -105.31851013 36.70499512 -104.39254761 36.23193359 C-101.4444813 34.72820746 -98.49319262 33.23099646 -95.54077148 31.73583984 C-94.52602501 31.22189478 -93.51127853 30.70794971 -92.46578217 30.17843056 C-87.09904166 27.46259017 -81.72912012 24.75314201 -76.35717773 22.04760742 C-71.92792714 19.81514523 -67.50589805 17.56925234 -63.08959961 15.3112793 C-57.73530755 12.57382227 -52.36952285 9.86029119 -46.99477386 7.1632328 C-44.95741817 6.13602456 -42.92416285 5.10063913 -40.89530182 4.05675316 C-38.05008641 2.59505372 -35.19102799 1.16469035 -32.3269043 -0.25952148 C-31.50364655 -0.69115097 -30.68038879 -1.12278046 -29.83218384 -1.56748962 C-19.26969505 -6.72008943 -10.14878954 -5.2589056 0 0 Z M-24.05737305 33.07568359 C-25.17823303 33.63626465 -26.29909302 34.1968457 -27.45391846 34.77441406 C-28.67045625 35.39289573 -29.8869052 36.01155219 -31.10327148 36.63037109 C-32.35273771 37.25883568 -33.60255986 37.88659309 -34.85272217 38.51367188 C-38.13766404 40.16376874 -41.4176869 41.82341966 -44.69677734 43.48510742 C-48.04550296 45.17995111 -51.39879226 46.86571343 -54.75170898 48.55224609 C-61.32652141 51.86108384 -67.89616364 55.18002826 -74.46264648 58.50537109 C-74.46264648 59.16537109 -74.46264648 59.82537109 -74.46264648 60.50537109 C-67.27429556 64.19231847 -60.0774074 67.86179171 -52.86903954 71.50942326 C-49.52198482 73.20380573 -46.17816094 74.90399681 -42.84106445 76.61791992 C-39.61909729 78.27243618 -36.38951285 79.91109063 -33.15410233 81.53915215 C-31.92252397 82.16231945 -30.69377096 82.79110398 -29.4679985 83.42561531 C-27.74777035 84.31485637 -26.01627273 85.18219265 -24.28442383 86.04858398 C-23.30291351 86.54822159 -22.3214032 87.04785919 -21.31015015 87.56263733 C-16.91365034 89.01820308 -13.88458813 88.09295009 -9.69107056 86.36009216 C-8.27209976 85.64394493 -8.27209976 85.64394493 -6.82446289 84.91333008 C-5.20346176 84.10260292 -5.20346176 84.10260292 -3.54971313 83.27549744 C-2.39949677 82.69006668 -1.2492804 82.10463593 -0.06420898 81.50146484 C1.13755706 80.89684749 2.3396808 80.29294063 3.54214478 79.68971252 C6.69226156 78.10705074 9.83745217 76.51483561 12.98168945 74.92053223 C16.19652426 73.29258509 19.41595876 71.67378863 22.63500977 70.05419922 C28.94030383 66.88016049 35.24043543 63.69599892 41.53735352 60.50537109 C41.53735352 59.84537109 41.53735352 59.18537109 41.53735352 58.50537109 C34.30967338 54.84519031 27.0777115 51.19367208 19.84012222 47.5531311 C16.47955251 45.8624091 13.12053601 44.16874291 9.76489258 42.46826172 C6.52644911 40.82730914 3.28415948 39.19420493 0.03905487 37.56646729 C-1.19830756 36.94409075 -2.4342583 36.31889936 -3.66875458 35.69085693 C-5.39804763 34.81169308 -7.13287462 33.94344008 -8.86791992 33.07568359 C-9.85387146 32.5782666 -10.839823 32.08084961 -11.85565186 31.56835938 C-16.71825618 29.58565816 -19.62601139 30.84004167 -24.05737305 33.07568359 Z M-96.46264648 86.50537109 C-96.46264648 111.25537109 -96.46264648 136.00537109 -96.46264648 161.50537109 C-86.27389648 166.62037109 -76.08514648 171.73537109 -65.58764648 177.00537109 C-62.36901855 178.62378906 -59.15039062 180.24220703 -55.83422852 181.90966797 C-52.95252202 183.35386521 -52.95252202 183.35386521 -50.07028198 184.79699707 C-48.78463181 185.44135989 -47.49977605 186.08730922 -46.21554565 186.73449707 C-44.272572 187.71327573 -42.32715391 188.68702431 -40.38110352 189.65966797 C-39.2841214 190.21037964 -38.18713928 190.76109131 -37.05691528 191.32849121 C-34.63387698 192.64307911 -34.63387698 192.64307911 -32.46264648 192.50537109 C-32.46264648 167.75537109 -32.46264648 143.00537109 -32.46264648 117.50537109 C-42.65139648 112.39037109 -52.84014648 107.27537109 -63.33764648 102.00537109 C-66.55627441 100.38695312 -69.77490234 98.76853516 -73.09106445 97.10107422 C-75.97277095 95.65687698 -75.97277095 95.65687698 -78.85501099 94.21374512 C-80.14066116 93.5693823 -81.42551692 92.92343296 -82.70974731 92.27624512 C-84.65272096 91.29746646 -86.59813905 90.32371788 -88.54418945 89.35107422 C-89.64117157 88.80036255 -90.73815369 88.24965088 -91.86837769 87.68225098 C-94.29141599 86.36766308 -94.29141599 86.36766308 -96.46264648 86.50537109 Z M55.61889648 89.35107422 C55.0040999 89.65835197 54.38930332 89.96562973 53.75587654 90.28221893 C51.76187582 91.279967 49.77068418 92.28318459 47.77954102 93.28662109 C46.55063706 93.90254293 45.32155295 94.51810543 44.09228516 95.13330078 C39.53012036 97.41963096 34.97144947 99.71292755 30.41235352 102.00537109 C20.22360352 107.12037109 10.03485352 112.23537109 -0.46264648 117.50537109 C-0.46264648 142.25537109 -0.46264648 167.00537109 -0.46264648 192.50537109 C3.88039614 191.05769022 7.5084596 189.64215188 11.54272461 187.61621094 C12.71955811 187.02767334 13.8963916 186.43913574 15.10888672 185.83276367 C16.34290864 185.21071874 17.57687722 184.58856797 18.81079102 183.96630859 C19.94492432 183.39823486 21.07905762 182.83016113 22.24755859 182.24487305 C26.47135605 180.12775418 30.69164782 178.00364704 34.91235352 175.88037109 C44.35860352 171.13662109 53.80485352 166.39287109 63.53735352 161.50537109 C63.53735352 136.75537109 63.53735352 112.00537109 63.53735352 86.50537109 C60.47650943 86.50537109 58.34389145 87.98306055 55.61889648 89.35107422 Z " fill="#000000" transform="translate(272.462646484375,196.49462890625)"/>
<path d="M0 0 C4.96480743 2.30508916 7.42550864 5.2182346 10 10 C10.56443734 13.35812847 10.52316773 16.66198851 10.48101807 20.06063843 C10.48615417 21.57151535 10.48615417 21.57151535 10.49139404 23.11291504 C10.4980117 26.49662636 10.47592727 29.87954471 10.45410156 33.26318359 C10.4528762 35.72694181 10.45341023 38.19070142 10.45556259 40.654459 C10.45637438 46.58568255 10.43923925 52.51659949 10.41355728 58.44774631 C10.38473433 65.30999287 10.38157705 72.17211818 10.37841797 79.03442383 C10.35742463 97.14798763 10.30158006 115.26149747 10.25 133.375 C10.1675 173.84125 10.085 214.3075 10 256 C115.6 256 221.2 256 330 256 C329.84157955 175.31122614 329.84157955 175.31122614 329.63964844 94.62255859 C329.62158203 79.03442383 329.62158203 79.03442383 329.6182251 71.74234009 C329.61449093 66.6375445 329.59980139 61.5328754 329.57769775 56.4281311 C329.54956414 49.92117444 329.54202628 43.41441187 329.5477109 36.90738225 C329.54652179 34.51652846 329.53856104 32.12566644 329.52313948 29.73486209 C329.50329943 26.50981331 329.50801856 23.285708 329.51898193 20.06063843 C329.50733128 19.1212121 329.49568062 18.18178577 329.48367691 17.21389198 C329.53484906 11.62898504 330.26481613 8.42639798 334 4 C337.81930172 0.37166337 340.88279006 -0.31000458 346 -0.5 C351.11720994 -0.31000458 354.18069828 0.37166337 358 4 C362.67205294 9.43177767 362.56759929 14.02697515 362.50793457 20.85546875 C362.51729451 22.49839653 362.51729451 22.49839653 362.52684355 24.17451477 C362.54280207 27.84572862 362.53015743 31.51628118 362.51757812 35.1875 C362.52299794 37.81901436 362.5301198 40.45052569 362.53881836 43.08203125 C362.55659815 49.48817538 362.55276609 55.89413197 362.5411678 62.30028343 C362.53213159 67.50700799 362.53091028 72.71368001 362.53526306 77.92041016 C362.53587599 78.66166169 362.53648893 79.40291323 362.53712043 80.16662693 C362.53839934 81.67249935 362.5396962 83.17837176 362.5410108 84.68424416 C362.55241501 98.80243328 362.53930542 112.92051849 362.51780933 127.03869057 C362.49993847 139.15084575 362.50304262 151.26284758 362.52148438 163.375 C362.54289393 177.44291203 362.55131638 191.51073301 362.53903532 205.57865906 C362.53776113 207.07896931 362.53650365 208.57927957 362.53526306 210.07958984 C362.53433741 211.18684087 362.53433741 211.18684087 362.53339306 212.31646061 C362.5299404 217.51649729 362.53576666 222.71647618 362.54518127 227.91650391 C362.55757584 234.91628611 362.54874225 241.91577373 362.52560425 248.91552734 C362.52030882 251.48664874 362.52184508 254.05779449 362.53065491 256.62890625 C362.54156035 260.13444564 362.52790568 263.63905158 362.50793457 267.14453125 C362.5213189 268.67633781 362.5213189 268.67633781 362.53497362 270.23908997 C362.4713906 275.97989143 362.03111423 279.57617583 358 284 C353.73055359 287.31047196 350.98704729 288.50018113 345.59375 288.50336456 C344.31754791 288.51379555 343.04134583 288.52422654 341.72647095 288.53497362 C340.31764501 288.52632615 338.90882135 288.51729956 337.5 288.50793457 C335.99766434 288.51254453 334.49533319 288.51889808 332.99301147 288.52684355 C328.86785554 288.54354719 324.74306959 288.53528592 320.61791229 288.52289867 C316.16793812 288.51385471 311.71802791 288.52781466 307.26806641 288.53881836 C298.55184533 288.55661516 289.83576194 288.55275843 281.11953545 288.5411678 C274.03638452 288.53213832 266.95327221 288.53090737 259.87011719 288.53526306 C258.86243097 288.53587599 257.85474476 288.53648893 256.8165226 288.53712043 C254.76949818 288.53839932 252.72247377 288.53969617 250.67544937 288.5410108 C231.47549909 288.55242 212.27562517 288.53929755 193.07568741 288.51780933 C176.59729503 288.49993805 160.11901535 288.50304206 143.640625 288.52148438 C124.50989933 288.54288508 105.37924061 288.55132133 86.24850464 288.53903532 C84.20896404 288.53776111 82.16942343 288.53650363 80.12988281 288.53526306 C78.62459991 288.53433741 78.62459991 288.53433741 77.08890724 288.53339306 C70.01335673 288.52993776 62.93784863 288.53577238 55.86230469 288.54518127 C47.24085735 288.55639374 38.6195557 288.55337705 29.99812508 288.5320583 C25.59837957 288.52153774 21.19887707 288.51744312 16.7991333 288.53065491 C12.77236813 288.54256392 8.7460715 288.53604119 4.71934891 288.5147447 C3.26183155 288.51027227 1.8042747 288.51255933 0.34678268 288.52224785 C-1.63336758 288.53440215 -3.61362857 288.51954901 -5.59375 288.50336456 C-6.69396484 288.50271515 -7.79417969 288.50206574 -8.92773438 288.50139666 C-13.90353896 287.68934064 -17.00903362 285.08750603 -20.34325409 281.4284668 C-22.67245576 276.60842135 -22.55414847 272.43360808 -22.50793457 267.14453125 C-22.51729451 265.50160347 -22.51729451 265.50160347 -22.52684355 263.82548523 C-22.54280207 260.15427138 -22.53015743 256.48371882 -22.51757812 252.8125 C-22.52299794 250.18098564 -22.5301198 247.54947431 -22.53881836 244.91796875 C-22.55659815 238.51182462 -22.55276609 232.10586803 -22.5411678 225.69971657 C-22.53213159 220.49299201 -22.53091028 215.28631999 -22.53526306 210.07958984 C-22.53587599 209.33833831 -22.53648893 208.59708677 -22.53712043 207.83337307 C-22.53839934 206.32750065 -22.5396962 204.82162824 -22.5410108 203.31575584 C-22.55241501 189.19756672 -22.53930542 175.07948151 -22.51780933 160.96130943 C-22.49993847 148.84915425 -22.50304262 136.73715242 -22.52148438 124.625 C-22.54289393 110.55708797 -22.55131638 96.48926699 -22.53903532 82.42134094 C-22.53776113 80.92103069 -22.53650365 79.42072043 -22.53526306 77.92041016 C-22.53464596 77.1822428 -22.53402886 76.44407545 -22.53339306 75.68353939 C-22.5299404 70.48350271 -22.53576666 65.28352382 -22.54518127 60.08349609 C-22.55757584 53.08371389 -22.54874225 46.08422627 -22.52560425 39.08447266 C-22.52030882 36.51335126 -22.52184508 33.94220551 -22.53065491 31.37109375 C-22.54156035 27.86555436 -22.52790568 24.36094842 -22.50793457 20.85546875 C-22.51685746 19.83426437 -22.52578034 18.81306 -22.53497362 17.76091003 C-22.47101037 11.98577773 -21.91610054 8.5528995 -18 4 C-12.72867143 -1.00776214 -6.89190982 -0.92775709 0 0 Z " fill="#000000" transform="translate(86,192)"/>
<path d="M0 0 C5.21273472 2.20365805 9.91924889 5.39148225 14.64453125 8.47314453 C17.84911136 10.55040863 21.10379691 12.5419206 24.35839844 14.53955078 C27.01023757 16.16971392 29.65427654 17.81193537 32.296875 19.45703125 C38.41486223 23.26209484 44.55018079 27.03872012 50.6875 30.8125 C52.32416626 31.81917725 52.32416626 31.81917725 53.99389648 32.84619141 C56.21902038 34.21477065 58.44419966 35.58325984 60.66943359 36.95166016 C66.11367568 40.29993688 71.5567889 43.65004759 77 47 C79.16666108 48.33334242 81.33332775 49.66667574 83.5 51 C105.16666667 64.33333333 126.83333333 77.66666667 148.5 91 C149.57306396 91.66032227 150.64612793 92.32064453 151.75170898 93.00097656 C153.9127685 94.33090932 156.07373894 95.66098685 158.23461914 96.99121094 C163.7363441 100.37778129 169.23971744 103.76162196 174.74609375 107.140625 C180.16404409 110.46600897 185.57633596 113.80042725 190.98486328 117.14111328 C192.96031877 118.35901758 194.93778959 119.57366041 196.91748047 120.78466797 C199.57519998 122.41065974 202.22583185 124.04762488 204.875 125.6875 C205.6477124 126.15639648 206.4204248 126.62529297 207.21655273 127.10839844 C211.92143772 130.04167444 215.46025091 132.92050183 218 138 C218.50502343 143.53042052 218.73807257 148.41030524 216.375 153.5 C212.14113537 157.95669961 208.88426474 160.26464834 202.6875 160.875 C194.33159397 160.55677753 188.15354116 155.96031823 181.35546875 151.52685547 C178.15088864 149.44959137 174.89620309 147.4580794 171.64160156 145.46044922 C168.98976243 143.83028608 166.34572346 142.18806463 163.703125 140.54296875 C157.58513777 136.73790516 151.44981921 132.96127988 145.3125 129.1875 C144.22138916 128.51638184 143.13027832 127.84526367 142.00610352 127.15380859 C139.78097962 125.78522935 137.55580034 124.41674016 135.33056641 123.04833984 C129.88632432 119.70006312 124.4432111 116.34995241 119 113 C116.83333892 111.66665758 114.66667225 110.33332426 112.5 109 C80 89 80 89 47.5 69 C46.42588867 68.3390332 45.35177734 67.67806641 44.24511719 66.99707031 C42.09463701 65.67364811 39.94424529 64.35008216 37.79394531 63.02636719 C32.73508402 59.91239457 27.67535908 56.79985364 22.61242676 53.69250488 C20.2310108 52.23079936 17.85010554 50.76826311 15.46923828 49.30566406 C13.79639492 48.27848788 12.12281715 47.25250803 10.44921875 46.2265625 C9.42957031 45.60007813 8.40992188 44.97359375 7.359375 44.328125 C6.41384766 43.74998047 5.46832031 43.17183594 4.49414062 42.57617188 C2.44772551 41.28294008 0.51852421 39.92673019 -1.421875 38.484375 C-3.8385582 36.76604909 -3.8385582 36.76604909 -6.29394531 37.19726562 C-9.52927108 38.15700499 -12.00054736 39.58844155 -14.875 41.359375 C-15.43208649 41.69979324 -15.98917297 42.04021149 -16.56314087 42.39094543 C-18.37988866 43.50354508 -20.18990443 44.62661638 -22 45.75 C-23.26963135 46.53049834 -24.53965514 47.31035864 -25.81005859 48.08959961 C-28.97092825 50.03094072 -32.12639228 51.98085465 -35.27966309 53.93450928 C-37.71846665 55.44498234 -40.16014535 56.95078731 -42.6015625 58.45703125 C-45.96497097 60.53468676 -49.32524046 62.61730922 -52.68359375 64.703125 C-58.67494067 68.42243748 -64.68078207 72.11807904 -70.6875 75.8125 C-71.77949707 76.48418213 -72.87149414 77.15586426 -73.99658203 77.84790039 C-76.2208193 79.21589606 -78.4451034 80.58381559 -80.66943359 81.95166016 C-86.11367568 85.29993688 -91.5567889 88.65004759 -97 92 C-99.16666108 93.33334242 -101.33332775 94.66667574 -103.5 96 C-104.5725 96.66 -105.645 97.32 -106.75 98 C-124.625 109 -124.625 109 -142.5 120 C-144.1094751 120.9904834 -144.1094751 120.9904834 -145.75146484 122.00097656 C-147.91315925 123.33120006 -150.07494278 124.66127873 -152.23681641 125.99121094 C-158.84709827 130.05800379 -165.45413068 134.13000407 -172.05810547 138.20703125 C-175.31541036 140.21329706 -178.57938522 142.20837366 -181.84375 144.203125 C-185.81955813 146.63774908 -189.75163785 149.12479021 -193.65625 151.671875 C-209.21104193 161.68605689 -209.21104193 161.68605689 -217.6484375 160.6640625 C-222.46449188 159.30404714 -224.99350627 157.05946709 -228.375 153.5 C-230.77919935 148.32172448 -230.72771089 143.61266377 -230 138 C-225.6700095 127.56865926 -210.68739621 121.75273763 -201.39453125 116.2265625 C-196.18636514 113.1232268 -191.02447265 109.94957186 -185.875 106.75 C-184.11590144 105.65752629 -182.35678646 104.565079 -180.59765625 103.47265625 C-179.69289551 102.91078613 -178.78813477 102.34891602 -177.85595703 101.77001953 C-172.68234756 98.56360231 -167.49714571 95.37603006 -162.3125 92.1875 C-161.22114746 91.5162207 -160.12979492 90.84494141 -159.00537109 90.15332031 C-156.78048569 88.78491301 -154.55555056 87.41658656 -152.33056641 86.04833984 C-146.88632432 82.70006312 -141.4432111 79.34995241 -136 76 C-133.83333892 74.66665758 -131.66667225 73.33332426 -129.5 72 C-128.4275 71.34 -127.355 70.68 -126.25 70 C-95.375 51 -95.375 51 -64.5 32 C-63.42596924 31.3390332 -62.35193848 30.67806641 -61.24536133 29.99707031 C-59.09424644 28.67335709 -56.94304304 27.34978768 -54.79174805 26.02636719 C-49.73891488 22.91775718 -44.68695992 19.80774838 -39.63821411 16.69250488 C-37.26722132 15.2296482 -34.89571493 13.7676253 -32.52416992 12.30566406 C-30.86131634 11.28010724 -29.19920153 10.25335288 -27.53710938 9.2265625 C-24.69656315 7.47576293 -21.84959571 5.7360165 -19 4 C-18.30745117 3.56864746 -17.61490234 3.13729492 -16.90136719 2.69287109 C-11.10648466 -0.81323677 -6.61157293 -1.43535835 0 0 Z " fill="#000000" transform="translate(262,32)"/>
</svg>
